Graphik-ThinItalic.ufo
<glyph name="exclam" format="2">
  <advance width="254"/>
  <unicode hex="0021"/>
  <outline>
    <contour>
      <point x="102" y="152" type="line"/>
      <point x="189" y="715" type="line"/>
      <point x="209" y="715" type="line"/>
      <point x="118" y="152" type="line"/>
    </contour>
    <contour>
      <point x="86" y="-5" type="curve" smooth="yes"/>
      <point x="76" y="-5"/>
      <point x="69" y="3"/>
      <point x="69" y="12" type="curve" smooth="yes"/>
      <point x="69" y="21"/>
      <point x="76" y="29"/>
      <point x="86" y="29" type="curve" smooth="yes"/>
      <point x="96" y="29"/>
      <point x="103" y="21"/>
      <point x="103" y="12" type="curve" smooth="yes"/>
      <point x="103" y="3"/>
      <point x="96" y="-5"/>
    </contour>
  </outline>
</glyph>
<glyph name="quotedbl" format="2">
  <advance width="223"/>
  <unicode hex="0022"/>
  <outline>
    <contour>
      <point x="101" y="548" type="line"/>
      <point x="126" y="715" type="line"/>
      <point x="146" y="715" type="line"/>
      <point x="117" y="548" type="line"/>
    </contour>
    <contour>
      <point x="194" y="548" type="line"/>
      <point x="219" y="715" type="line"/>
      <point x="239" y="715" type="line"/>
      <point x="210" y="548" type="line"/>
    </contour>
  </outline>
</glyph>
<glyph name="numbersign" format="2">
  <advance width="478"/>
  <unicode hex="0023"/>
  <outline>
    <contour>
      <point x="257" y="99" type="line"/>
      <point x="306" y="310" type="line"/>
      <point x="158" y="310" type="line"/>
      <point x="109" y="99" type="line"/>
      <point x="92" y="99" type="line"/>
      <point x="141" y="310" type="line"/>
      <point x="43" y="310" type="line"/>
      <point x="45" y="326" type="line"/>
      <point x="145" y="326" type="line"/>
      <point x="189" y="512" type="line"/>
      <point x="89" y="512" type="line"/>
      <point x="91" y="528" type="line"/>
      <point x="193" y="528" type="line"/>
      <point x="237" y="715" type="line"/>
      <point x="254" y="715" type="line"/>
      <point x="210" y="528" type="line"/>
      <point x="358" y="528" type="line"/>
      <point x="402" y="715" type="line"/>
      <point x="419" y="715" type="line"/>
      <point x="375" y="528" type="line"/>
      <point x="475" y="528" type="line"/>
      <point x="473" y="512" type="line"/>
      <point x="371" y="512" type="line"/>
      <point x="327" y="326" type="line"/>
      <point x="429" y="326" type="line"/>
      <point x="427" y="310" type="line"/>
      <point x="323" y="310" type="line"/>
      <point x="274" y="99" type="line"/>
    </contour>
    <contour>
      <point x="206" y="512" type="line"/>
      <point x="162" y="326" type="line"/>
      <point x="310" y="326" type="line"/>
      <point x="354" y="512" type="line"/>
    </contour>
  </outline>
</glyph>
<glyph name="dollar" format="2">
  <advance width="582"/>
  <unicode hex="0024"/>
  <outline>
    <contour>
      <point x="275" y="-6" type="curve" smooth="yes"/>
      <point x="268" y="-6"/>
      <point x="260" y="-6"/>
      <point x="253" y="-5" type="curve"/>
      <point x="233" y="-135" type="line"/>
      <point x="216" y="-135" type="line"/>
      <point x="236" y="-4" type="line"/>
      <point x="123" y="6"/>
      <point x="37" y="65"/>
      <point x="29" y="190" type="curve"/>
      <point x="47" y="190" type="line"/>
      <point x="58" y="79"/>
      <point x="129" y="22"/>
      <point x="239" y="12" type="curve"/>
      <point x="295" y="366" type="line"/>
      <point x="163" y="403"/>
      <point x="107" y="452"/>
      <point x="107" y="535" type="curve" smooth="yes"/>
      <point x="107" y="658"/>
      <point x="206" y="721"/>
      <point x="331" y="721" type="curve" smooth="yes"/>
      <point x="338" y="721"/>
      <point x="344" y="721"/>
      <point x="351" y="720" type="curve"/>
      <point x="366" y="813" type="line"/>
      <point x="383" y="813" type="line"/>
      <point x="368" y="719" type="line"/>
      <point x="468" y="709"/>
      <point x="537" y="657"/>
      <point x="547" y="562" type="curve"/>
      <point x="529" y="562" type="line"/>
      <point x="516" y="647"/>
      <point x="457" y="693"/>
      <point x="365" y="702" type="curve"/>
      <point x="314" y="378" type="line"/>
      <point x="449" y="342"/>
      <point x="514" y="306"/>
      <point x="514" y="202" type="curve" smooth="yes"/>
      <point x="514" y="67"/>
      <point x="412" y="-6"/>
    </contour>
    <contour>
      <point x="495" y="202" type="curve" smooth="yes"/>
      <point x="495" y="294"/>
      <point x="438" y="327"/>
      <point x="311" y="362" type="curve"/>
      <point x="256" y="11" type="line"/>
      <point x="274" y="11" type="line" smooth="yes"/>
      <point x="402" y="11"/>
      <point x="495" y="76"/>
    </contour>
    <contour>
      <point x="126" y="535" type="curve" smooth="yes"/>
      <point x="126" y="461"/>
      <point x="176" y="417"/>
      <point x="297" y="383" type="curve"/>
      <point x="348" y="703" type="line"/>
      <point x="343" y="703"/>
      <point x="337" y="704"/>
      <point x="332" y="704" type="curve" smooth="yes"/>
      <point x="215" y="704"/>
      <point x="126" y="651"/>
    </contour>
  </outline>
</glyph>
<glyph name="percent" format="2">
  <advance width="745"/>
  <unicode hex="0025"/>
  <outline>
    <contour>
      <point x="113" y="552" type="curve" smooth="yes"/>
      <point x="114" y="482"/>
      <point x="162" y="431"/>
      <point x="232" y="431" type="curve" smooth="yes"/>
      <point x="314" y="431"/>
      <point x="373" y="492"/>
      <point x="372" y="580" type="curve" smooth="yes"/>
      <point x="371" y="648"/>
      <point x="325" y="703"/>
      <point x="252" y="703" type="curve" smooth="yes"/>
      <point x="170" y="703"/>
      <point x="113" y="635"/>
    </contour>
    <contour>
      <point x="232" y="415" type="curve" smooth="yes"/>
      <point x="154" y="415"/>
      <point x="95" y="472"/>
      <point x="95" y="552" type="curve" smooth="yes"/>
      <point x="95" y="642"/>
      <point x="160" y="719"/>
      <point x="252" y="719" type="curve" smooth="yes"/>
      <point x="329" y="719"/>
      <point x="390" y="660"/>
      <point x="390" y="580" type="curve" smooth="yes"/>
      <point x="390" y="480"/>
      <point x="320" y="415"/>
    </contour>
    <contour>
      <point x="80" y="0" type="line"/>
      <point x="670" y="715" type="line"/>
      <point x="691" y="715" type="line"/>
      <point x="101" y="0" type="line"/>
    </contour>
    <contour>
      <point x="398" y="132" type="curve" smooth="yes"/>
      <point x="399" y="62"/>
      <point x="447" y="11"/>
      <point x="517" y="11" type="curve" smooth="yes"/>
      <point x="599" y="11"/>
      <point x="658" y="72"/>
      <point x="657" y="160" type="curve" smooth="yes"/>
      <point x="656" y="228"/>
      <point x="610" y="283"/>
      <point x="537" y="283" type="curve" smooth="yes"/>
      <point x="455" y="283"/>
      <point x="398" y="215"/>
    </contour>
    <contour>
      <point x="517" y="-5" type="curve" smooth="yes"/>
      <point x="439" y="-5"/>
      <point x="380" y="52"/>
      <point x="380" y="132" type="curve" smooth="yes"/>
      <point x="380" y="222"/>
      <point x="445" y="299"/>
      <point x="537" y="299" type="curve" smooth="yes"/>
      <point x="614" y="299"/>
      <point x="675" y="240"/>
      <point x="675" y="160" type="curve" smooth="yes"/>
      <point x="675" y="60"/>
      <point x="605" y="-5"/>
    </contour>
  </outline>
</glyph>
<glyph name="ampersand" format="2">
  <advance width="632"/>
  <unicode hex="0026"/>
  <outline>
    <contour>
      <point x="559" y="0" type="line"/>
      <point x="537" y="0" type="line"/>
      <point x="453" y="123" type="line"/>
      <point x="404" y="61"/>
      <point x="328" y="-7"/>
      <point x="223" y="-7" type="curve" smooth="yes"/>
      <point x="118" y="-7"/>
      <point x="33" y="54"/>
      <point x="33" y="169" type="curve" smooth="yes"/>
      <point x="33" y="299"/>
      <point x="140" y="357"/>
      <point x="253" y="404" type="curve"/>
      <point x="216" y="458"/>
      <point x="188" y="506"/>
      <point x="188" y="563" type="curve" smooth="yes"/>
      <point x="188" y="649"/>
      <point x="252" y="719"/>
      <point x="344" y="719" type="curve" smooth="yes"/>
      <point x="423" y="719"/>
      <point x="471" y="662"/>
      <point x="471" y="589" type="curve" smooth="yes"/>
      <point x="471" y="483"/>
      <point x="360" y="432"/>
      <point x="279" y="398" type="curve"/>
      <point x="453" y="151" type="line"/>
      <point x="589" y="353" type="line"/>
      <point x="610" y="353" type="line"/>
      <point x="462" y="138" type="line"/>
    </contour>
    <contour>
      <point x="53" y="170" type="curve" smooth="yes"/>
      <point x="53" y="71"/>
      <point x="124" y="10"/>
      <point x="223" y="10" type="curve" smooth="yes"/>
      <point x="320" y="10"/>
      <point x="397" y="79"/>
      <point x="443" y="137" type="curve"/>
      <point x="262" y="391" type="line"/>
      <point x="156" y="346"/>
      <point x="53" y="296"/>
    </contour>
    <contour>
      <point x="343" y="702" type="curve" smooth="yes"/>
      <point x="263" y="703"/>
      <point x="207" y="641"/>
      <point x="207" y="563" type="curve" smooth="yes"/>
      <point x="207" y="510"/>
      <point x="234" y="463"/>
      <point x="270" y="411" type="curve"/>
      <point x="347" y="445"/>
      <point x="452" y="487"/>
      <point x="452" y="589" type="curve" smooth="yes"/>
      <point x="452" y="655"/>
      <point x="413" y="701"/>
    </contour>
  </outline>
</glyph>
<glyph name="quotesingle" format="2">
  <advance width="130"/>
  <unicode hex="0027"/>
  <outline>
    <contour>
      <point x="101" y="548" type="line"/>
      <point x="126" y="715" type="line"/>
      <point x="146" y="715" type="line"/>
      <point x="117" y="548" type="line"/>
    </contour>
  </outline>
</glyph>
<glyph name="parenleft" format="2">
  <advance width="273"/>
  <unicode hex="0028"/>
  <outline>
    <contour>
      <point x="165" y="-148" type="line"/>
      <point x="106" y="-58"/>
      <point x="59" y="65"/>
      <point x="59" y="213" type="curve" smooth="yes"/>
      <point x="59" y="438"/>
      <point x="160" y="636"/>
      <point x="304" y="773" type="curve"/>
      <point x="324" y="773" type="line"/>
      <point x="168" y="619"/>
      <point x="77" y="427"/>
      <point x="77" y="213" type="curve" smooth="yes"/>
      <point x="77" y="65"/>
      <point x="126" y="-55"/>
      <point x="184" y="-148" type="curve"/>
    </contour>
  </outline>
</glyph>
<glyph name="parenright" format="2">
  <advance width="273"/>
  <unicode hex="0029"/>
  <outline>
    <contour>
      <point x="122" y="773" type="line"/>
      <point x="181" y="683"/>
      <point x="228" y="560"/>
      <point x="228" y="412" type="curve" smooth="yes"/>
      <point x="228" y="187"/>
      <point x="127" y="-11"/>
      <point x="-17" y="-148" type="curve"/>
      <point x="-37" y="-148" type="line"/>
      <point x="119" y="6"/>
      <point x="210" y="198"/>
      <point x="210" y="412" type="curve" smooth="yes"/>
      <point x="210" y="560"/>
      <point x="161" y="680"/>
      <point x="103" y="773" type="curve"/>
    </contour>
  </outline>
</glyph>
<glyph name="asterisk" format="2">
  <advance width="412"/>
  <unicode hex="002A"/>
  <outline>
    <contour>
      <point x="136" y="448" type="line"/>
      <point x="123" y="461" type="line"/>
      <point x="243" y="576" type="line"/>
      <point x="108" y="638" type="line"/>
      <point x="116" y="655" type="line"/>
      <point x="249" y="591" type="line"/>
      <point x="272" y="743" type="line"/>
      <point x="291" y="743" type="line"/>
      <point x="266" y="589" type="line"/>
      <point x="414" y="632" type="line"/>
      <point x="418" y="615" type="line"/>
      <point x="268" y="574" type="line"/>
      <point x="346" y="444" type="line"/>
      <point x="330" y="434" type="line"/>
      <point x="253" y="564" type="line"/>
    </contour>
  </outline>
</glyph>
<glyph name="plus" format="2">
  <advance width="500"/>
  <unicode hex="002B"/>
  <outline>
    <contour>
      <point x="217" y="115" type="line"/>
      <point x="251" y="334" type="line"/>
      <point x="47" y="334" type="line"/>
      <point x="50" y="350" type="line"/>
      <point x="254" y="350" type="line"/>
      <point x="289" y="569" type="line"/>
      <point x="307" y="569" type="line"/>
      <point x="272" y="350" type="line"/>
      <point x="476" y="350" type="line"/>
      <point x="473" y="334" type="line"/>
      <point x="269" y="334" type="line"/>
      <point x="235" y="115" type="line"/>
    </contour>
  </outline>
</glyph>
<glyph name="comma" format="2">
  <advance width="166"/>
  <unicode hex="002C"/>
  <outline>
    <contour>
      <point x="-10" y="-109" type="line"/>
      <point x="-24" y="-102" type="line"/>
      <point x="45" y="38" type="line"/>
      <point x="63" y="30" type="line"/>
    </contour>
  </outline>
</glyph>
<glyph name="hyphen" format="2">
  <advance width="332"/>
  <unicode hex="002D"/>
  <outline>
    <contour>
      <point x="62" y="271" type="line"/>
      <point x="65" y="288" type="line"/>
      <point x="269" y="288" type="line"/>
      <point x="266" y="271" type="line"/>
    </contour>
  </outline>
</glyph>
<glyph name="period" format="2">
  <advance width="166"/>
  <unicode hex="002E"/>
  <outline>
    <contour>
      <point x="42" y="-5" type="curve" smooth="yes"/>
      <point x="32" y="-5"/>
      <point x="25" y="3"/>
      <point x="25" y="12" type="curve" smooth="yes"/>
      <point x="25" y="21"/>
      <point x="32" y="29"/>
      <point x="42" y="29" type="curve" smooth="yes"/>
      <point x="52" y="29"/>
      <point x="59" y="21"/>
      <point x="59" y="12" type="curve" smooth="yes"/>
      <point x="59" y="3"/>
      <point x="52" y="-5"/>
    </contour>
  </outline>
</glyph>
<glyph name="slash" format="2">
  <advance width="376"/>
  <unicode hex="002F"/>
  <outline>
    <contour>
      <point x="-44" y="-148" type="line"/>
      <point x="391" y="776" type="line"/>
      <point x="411" y="776" type="line"/>
      <point x="-24" y="-148" type="line"/>
    </contour>
  </outline>
</glyph>
<glyph name="zero" format="2">
  <advance width="634"/>
  <unicode hex="0030"/>
  <outline>
    <contour>
      <point x="300" y="-6" type="curve" smooth="yes"/>
      <point x="129" y="-6"/>
      <point x="56" y="101"/>
      <point x="56" y="247" type="curve" smooth="yes"/>
      <point x="56" y="277"/>
      <point x="58" y="306"/>
      <point x="63" y="336" type="curve" smooth="yes"/>
      <point x="76" y="418" type="line" smooth="yes"/>
      <point x="107" y="614"/>
      <point x="213" y="721"/>
      <point x="367" y="721" type="curve" smooth="yes"/>
      <point x="535" y="721"/>
      <point x="603" y="612"/>
      <point x="604" y="470" type="curve" smooth="yes"/>
      <point x="604" y="440"/>
      <point x="602" y="410"/>
      <point x="597" y="380" type="curve" smooth="yes"/>
      <point x="584" y="298" type="line" smooth="yes"/>
      <point x="552" y="99"/>
      <point x="458" y="-6"/>
    </contour>
    <contour>
      <point x="300" y="11" type="curve" smooth="yes"/>
      <point x="449" y="11"/>
      <point x="535" y="108"/>
      <point x="566" y="299" type="curve" smooth="yes"/>
      <point x="579" y="381" type="line" smooth="yes"/>
      <point x="584" y="411"/>
      <point x="586" y="440"/>
      <point x="586" y="470" type="curve" smooth="yes"/>
      <point x="585" y="604"/>
      <point x="523" y="704"/>
      <point x="367" y="704" type="curve" smooth="yes"/>
      <point x="221" y="704"/>
      <point x="123" y="602"/>
      <point x="94" y="417" type="curve" smooth="yes"/>
      <point x="81" y="335" type="line" smooth="yes"/>
      <point x="76" y="305"/>
      <point x="74" y="276"/>
      <point x="74" y="247" type="curve" smooth="yes"/>
      <point x="75" y="110"/>
      <point x="139" y="11"/>
    </contour>
  </outline>
</glyph>
<glyph name="one" format="2">
  <advance width="331"/>
  <unicode hex="0031"/>
  <outline>
    <contour>
      <point x="146" y="0" type="line"/>
      <point x="255" y="688" type="line"/>
      <point x="70" y="576" type="line"/>
      <point x="73" y="595" type="line"/>
      <point x="269" y="715" type="line"/>
      <point x="277" y="715" type="line"/>
      <point x="164" y="0" type="line"/>
    </contour>
  </outline>
</glyph>
<glyph name="two" format="2">
  <advance width="518"/>
  <unicode hex="0032"/>
  <outline>
    <contour>
      <point x="-30" y="0" type="line"/>
      <point x="-29" y="5" type="line"/>
      <point x="313" y="291" type="line" smooth="yes"/>
      <point x="408" y="370"/>
      <point x="475" y="442"/>
      <point x="475" y="549" type="curve" smooth="yes"/>
      <point x="475" y="644"/>
      <point x="413" y="704"/>
      <point x="309" y="704" type="curve" smooth="yes"/>
      <point x="210" y="704"/>
      <point x="126" y="651"/>
      <point x="96" y="521" type="curve"/>
      <point x="78" y="521" type="line"/>
      <point x="106" y="657"/>
      <point x="202" y="721"/>
      <point x="309" y="721" type="curve" smooth="yes"/>
      <point x="423" y="721"/>
      <point x="493" y="652"/>
      <point x="493" y="549" type="curve" smooth="yes"/>
      <point x="493" y="434"/>
      <point x="422" y="361"/>
      <point x="330" y="284" type="curve" smooth="yes"/>
      <point x="11" y="17" type="line"/>
      <point x="431" y="17" type="line"/>
      <point x="428" y="0" type="line"/>
    </contour>
  </outline>
</glyph>
<glyph name="three" format="2">
  <advance width="524"/>
  <unicode hex="0033"/>
  <outline>
    <contour>
      <point x="238" y="-6" type="curve" smooth="yes"/>
      <point x="113" y="-6"/>
      <point x="21" y="64"/>
      <point x="20" y="191" type="curve"/>
      <point x="39" y="191" type="line"/>
      <point x="41" y="74"/>
      <point x="120" y="11"/>
      <point x="238" y="11" type="curve" smooth="yes"/>
      <point x="351" y="11"/>
      <point x="451" y="76"/>
      <point x="451" y="213" type="curve" smooth="yes"/>
      <point x="451" y="293"/>
      <point x="403" y="366"/>
      <point x="288" y="366" type="curve" smooth="yes"/>
      <point x="245" y="366" type="line"/>
      <point x="248" y="383" type="line"/>
      <point x="296" y="383" type="line" smooth="yes"/>
      <point x="395" y="383"/>
      <point x="476" y="439"/>
      <point x="476" y="557" type="curve" smooth="yes"/>
      <point x="476" y="645"/>
      <point x="416" y="704"/>
      <point x="317" y="704" type="curve" smooth="yes"/>
      <point x="217" y="704"/>
      <point x="140" y="641"/>
      <point x="117" y="538" type="curve"/>
      <point x="99" y="538" type="line"/>
      <point x="120" y="651"/>
      <point x="213" y="721"/>
      <point x="317" y="721" type="curve" smooth="yes"/>
      <point x="419" y="721"/>
      <point x="494" y="661"/>
      <point x="494" y="557" type="curve" smooth="yes"/>
      <point x="494" y="460"/>
      <point x="440" y="393"/>
      <point x="347" y="374" type="curve"/>
      <point x="421" y="358"/>
      <point x="469" y="296"/>
      <point x="469" y="212" type="curve" smooth="yes"/>
      <point x="469" y="68"/>
      <point x="362" y="-6"/>
    </contour>
  </outline>
</glyph>
<glyph name="four" format="2">
  <advance width="569"/>
  <unicode hex="0034"/>
  <outline>
    <contour>
      <point x="366" y="0" type="line"/>
      <point x="393" y="173" type="line"/>
      <point x="12" y="173" type="line"/>
      <point x="13" y="178" type="line"/>
      <point x="464" y="715" type="line"/>
      <point x="498" y="715" type="line"/>
      <point x="415" y="190" type="line"/>
      <point x="514" y="190" type="line"/>
      <point x="511" y="173" type="line"/>
      <point x="412" y="173" type="line"/>
      <point x="385" y="0" type="line"/>
    </contour>
    <contour>
      <point x="46" y="190" type="line"/>
      <point x="396" y="190" type="line"/>
      <point x="477" y="703" type="line"/>
    </contour>
  </outline>
</glyph>
<glyph name="five" format="2">
  <advance width="531"/>
  <unicode hex="0035"/>
  <outline>
    <contour>
      <point x="232" y="-6" type="curve" smooth="yes"/>
      <point x="112" y="-6"/>
      <point x="26" y="64"/>
      <point x="18" y="173" type="curve"/>
      <point x="36" y="173" type="line"/>
      <point x="45" y="77"/>
      <point x="119" y="11"/>
      <point x="232" y="11" type="curve" smooth="yes"/>
      <point x="379" y="11"/>
      <point x="460" y="116"/>
      <point x="460" y="257" type="curve" smooth="yes"/>
      <point x="460" y="361"/>
      <point x="390" y="440"/>
      <point x="283" y="440" type="curve" smooth="yes"/>
      <point x="195" y="440"/>
      <point x="137" y="402"/>
      <point x="93" y="352" type="curve"/>
      <point x="85" y="352" type="line"/>
      <point x="143" y="715" type="line"/>
      <point x="519" y="715" type="line"/>
      <point x="516" y="698" type="line"/>
      <point x="158" y="698" type="line"/>
      <point x="109" y="387" type="line"/>
      <point x="141" y="422"/>
      <point x="205" y="457"/>
      <point x="283" y="457" type="curve" smooth="yes"/>
      <point x="399" y="457"/>
      <point x="478" y="374"/>
      <point x="478" y="257" type="curve" smooth="yes"/>
      <point x="478" y="107"/>
      <point x="389" y="-6"/>
    </contour>
  </outline>
</glyph>
<glyph name="six" format="2">
  <advance width="577"/>
  <unicode hex="0036"/>
  <outline>
    <contour>
      <point x="277" y="-6" type="curve" smooth="yes"/>
      <point x="143" y="-6"/>
      <point x="59" y="70"/>
      <point x="60" y="215" type="curve" smooth="yes"/>
      <point x="60" y="247"/>
      <point x="65" y="280"/>
      <point x="69" y="307" type="curve" smooth="yes"/>
      <point x="81" y="382" type="line" smooth="yes"/>
      <point x="123" y="643"/>
      <point x="230" y="721"/>
      <point x="370" y="721" type="curve" smooth="yes"/>
      <point x="477" y="721"/>
      <point x="548" y="671"/>
      <point x="556" y="571" type="curve"/>
      <point x="538" y="571" type="line"/>
      <point x="529" y="660"/>
      <point x="470" y="704"/>
      <point x="370" y="704" type="curve" smooth="yes"/>
      <point x="236" y="704"/>
      <point x="139" y="630"/>
      <point x="99" y="381" type="curve" smooth="yes"/>
      <point x="87" y="306" type="line"/>
      <point x="131" y="399"/>
      <point x="221" y="444"/>
      <point x="311" y="444" type="curve" smooth="yes"/>
      <point x="429" y="444"/>
      <point x="526" y="381"/>
      <point x="526" y="253" type="curve" smooth="yes"/>
      <point x="526" y="104"/>
      <point x="428" y="-6"/>
    </contour>
    <contour>
      <point x="79" y="204" type="curve" smooth="yes"/>
      <point x="79" y="85"/>
      <point x="154" y="11"/>
      <point x="277" y="11" type="curve" smooth="yes"/>
      <point x="421" y="11"/>
      <point x="508" y="116"/>
      <point x="508" y="253" type="curve" smooth="yes"/>
      <point x="508" y="367"/>
      <point x="424" y="427"/>
      <point x="311" y="427" type="curve" smooth="yes"/>
      <point x="186" y="427"/>
      <point x="79" y="340"/>
    </contour>
  </outline>
</glyph>
<glyph name="seven" format="2">
  <advance width="480"/>
  <unicode hex="0037"/>
  <outline>
    <contour>
      <point x="110" y="0" type="line"/>
      <point x="506" y="698" type="line"/>
      <point x="92" y="698" type="line"/>
      <point x="95" y="715" type="line"/>
      <point x="535" y="715" type="line"/>
      <point x="534" y="710" type="line"/>
      <point x="131" y="0" type="line"/>
    </contour>
  </outline>
</glyph>
<glyph name="eight" format="2">
  <advance width="555"/>
  <unicode hex="0038"/>
  <outline>
    <contour>
      <point x="262" y="-6" type="curve" smooth="yes"/>
      <point x="149" y="-6"/>
      <point x="36" y="53"/>
      <point x="36" y="181" type="curve" smooth="yes"/>
      <point x="36" y="308"/>
      <point x="128" y="376"/>
      <point x="247" y="389" type="curve"/>
      <point x="179" y="406"/>
      <point x="120" y="459"/>
      <point x="120" y="546" type="curve" smooth="yes"/>
      <point x="120" y="657"/>
      <point x="223" y="721"/>
      <point x="328" y="721" type="curve" smooth="yes"/>
      <point x="430" y="721"/>
      <point x="516" y="655"/>
      <point x="516" y="555" type="curve" smooth="yes"/>
      <point x="516" y="449"/>
      <point x="450" y="394"/>
      <point x="349" y="381" type="curve"/>
      <point x="436" y="361"/>
      <point x="500" y="299"/>
      <point x="500" y="204" type="curve" smooth="yes"/>
      <point x="500" y="59"/>
      <point x="386" y="-6"/>
    </contour>
    <contour>
      <point x="54" y="181" type="curve" smooth="yes"/>
      <point x="54" y="65"/>
      <point x="155" y="11"/>
      <point x="263" y="11" type="curve" smooth="yes"/>
      <point x="380" y="11"/>
      <point x="482" y="71"/>
      <point x="482" y="205" type="curve" smooth="yes"/>
      <point x="482" y="306"/>
      <point x="401" y="376"/>
      <point x="280" y="376" type="curve" smooth="yes"/>
      <point x="164" y="376"/>
      <point x="54" y="315"/>
    </contour>
    <contour>
      <point x="138" y="546" type="curve" smooth="yes"/>
      <point x="137" y="460"/>
      <point x="206" y="393"/>
      <point x="315" y="393" type="curve" smooth="yes"/>
      <point x="411" y="393"/>
      <point x="498" y="440"/>
      <point x="498" y="555" type="curve" smooth="yes"/>
      <point x="498" y="644"/>
      <point x="425" y="704"/>
      <point x="328" y="704" type="curve" smooth="yes"/>
      <point x="234" y="704"/>
      <point x="139" y="651"/>
    </contour>
  </outline>
</glyph>
<glyph name="nine" format="2">
  <advance width="574"/>
  <unicode hex="0039"/>
  <outline>
    <contour>
      <point x="244" y="-6" type="curve" smooth="yes"/>
      <point x="137" y="-6"/>
      <point x="60" y="47"/>
      <point x="48" y="149" type="curve"/>
      <point x="66" y="149" type="line"/>
      <point x="78" y="58"/>
      <point x="144" y="11"/>
      <point x="244" y="11" type="curve" smooth="yes"/>
      <point x="383" y="11"/>
      <point x="469" y="81"/>
      <point x="509" y="334" type="curve" smooth="yes"/>
      <point x="521" y="409" type="line"/>
      <point x="477" y="316"/>
      <point x="388" y="270"/>
      <point x="298" y="270" type="curve" smooth="yes"/>
      <point x="180" y="270"/>
      <point x="82" y="336"/>
      <point x="82" y="466" type="curve" smooth="yes"/>
      <point x="82" y="615"/>
      <point x="180" y="721"/>
      <point x="331" y="721" type="curve" smooth="yes"/>
      <point x="460" y="721"/>
      <point x="549" y="645"/>
      <point x="548" y="500" type="curve" smooth="yes"/>
      <point x="548" y="468"/>
      <point x="543" y="435"/>
      <point x="539" y="408" type="curve" smooth="yes"/>
      <point x="527" y="333" type="line" smooth="yes"/>
      <point x="484" y="63"/>
      <point x="389" y="-6"/>
    </contour>
    <contour>
      <point x="100" y="466" type="curve" smooth="yes"/>
      <point x="100" y="350"/>
      <point x="185" y="287"/>
      <point x="298" y="287" type="curve" smooth="yes"/>
      <point x="423" y="287"/>
      <point x="529" y="380"/>
      <point x="529" y="511" type="curve" smooth="yes"/>
      <point x="529" y="630"/>
      <point x="454" y="704"/>
      <point x="331" y="704" type="curve" smooth="yes"/>
      <point x="187" y="704"/>
      <point x="100" y="603"/>
    </contour>
  </outline>
</glyph>
<glyph name="colon" format="2">
  <advance width="172"/>
  <unicode hex="003A"/>
  <outline>
    <contour>
      <point x="45" y="-5" type="curve" smooth="yes"/>
      <point x="35" y="-5"/>
      <point x="28" y="3"/>
      <point x="28" y="12" type="curve" smooth="yes"/>
      <point x="28" y="21"/>
      <point x="35" y="29"/>
      <point x="45" y="29" type="curve" smooth="yes"/>
      <point x="55" y="29"/>
      <point x="62" y="21"/>
      <point x="62" y="12" type="curve" smooth="yes"/>
      <point x="62" y="3"/>
      <point x="55" y="-5"/>
    </contour>
    <contour>
      <point x="102" y="352" type="curve" smooth="yes"/>
      <point x="92" y="352"/>
      <point x="85" y="360"/>
      <point x="85" y="369" type="curve" smooth="yes"/>
      <point x="85" y="378"/>
      <point x="92" y="386"/>
      <point x="102" y="386" type="curve" smooth="yes"/>
      <point x="112" y="386"/>
      <point x="119" y="378"/>
      <point x="119" y="369" type="curve" smooth="yes"/>
      <point x="119" y="360"/>
      <point x="112" y="352"/>
    </contour>
  </outline>
</glyph>
<glyph name="semicolon" format="2">
  <advance width="172"/>
  <unicode hex="003B"/>
  <outline>
    <contour>
      <point x="-14" y="-109" type="line"/>
      <point x="-28" y="-102" type="line"/>
      <point x="41" y="38" type="line"/>
      <point x="59" y="30" type="line"/>
    </contour>
    <contour>
      <point x="102" y="352" type="curve" smooth="yes"/>
      <point x="92" y="352"/>
      <point x="85" y="360"/>
      <point x="85" y="369" type="curve" smooth="yes"/>
      <point x="85" y="378"/>
      <point x="92" y="386"/>
      <point x="102" y="386" type="curve" smooth="yes"/>
      <point x="112" y="386"/>
      <point x="119" y="378"/>
      <point x="119" y="369" type="curve" smooth="yes"/>
      <point x="119" y="360"/>
      <point x="112" y="352"/>
    </contour>
  </outline>
</glyph>
<glyph name="less" format="2">
  <advance width="487"/>
  <unicode hex="003C"/>
  <outline>
    <contour>
      <point x="408" y="115" type="line"/>
      <point x="56" y="326" type="line"/>
      <point x="57" y="332" type="line"/>
      <point x="473" y="524" type="line"/>
      <point x="470" y="505" type="line"/>
      <point x="84" y="327" type="line"/>
      <point x="411" y="133" type="line"/>
    </contour>
  </outline>
</glyph>
<glyph name="equal" format="2">
  <advance width="484"/>
  <unicode hex="003D"/>
  <outline>
    <contour>
      <point x="34" y="233" type="line"/>
      <point x="37" y="249" type="line"/>
      <point x="441" y="249" type="line"/>
      <point x="438" y="233" type="line"/>
    </contour>
    <contour>
      <point x="58" y="385" type="line"/>
      <point x="61" y="401" type="line"/>
      <point x="465" y="401" type="line"/>
      <point x="462" y="385" type="line"/>
    </contour>
  </outline>
</glyph>
<glyph name="greater" format="2">
  <advance width="487"/>
  <unicode hex="003E"/>
  <outline>
    <contour>
      <point x="96" y="524" type="line"/>
      <point x="448" y="313" type="line"/>
      <point x="447" y="307" type="line"/>
      <point x="31" y="115" type="line"/>
      <point x="34" y="134" type="line"/>
      <point x="420" y="312" type="line"/>
      <point x="93" y="506" type="line"/>
    </contour>
  </outline>
</glyph>
<glyph name="question" format="2">
  <advance width="462"/>
  <unicode hex="003F"/>
  <outline>
    <contour>
      <point x="180" y="152" type="line"/>
      <point x="191" y="224" type="line" smooth="yes"/>
      <point x="203" y="305"/>
      <point x="243" y="340"/>
      <point x="315" y="397" type="curve" smooth="yes"/>
      <point x="383" y="451"/>
      <point x="444" y="488"/>
      <point x="444" y="582" type="curve" smooth="yes"/>
      <point x="444" y="670"/>
      <point x="369" y="704"/>
      <point x="295" y="704" type="curve" smooth="yes"/>
      <point x="194" y="704"/>
      <point x="122" y="646"/>
      <point x="100" y="532" type="curve"/>
      <point x="82" y="532" type="line"/>
      <point x="101" y="653"/>
      <point x="185" y="721"/>
      <point x="295" y="721" type="curve" smooth="yes"/>
      <point x="377" y="721"/>
      <point x="463" y="682"/>
      <point x="463" y="582" type="curve" smooth="yes"/>
      <point x="463" y="478"/>
      <point x="394" y="440"/>
      <point x="325" y="384" type="curve" smooth="yes"/>
      <point x="257" y="329"/>
      <point x="221" y="299"/>
      <point x="209" y="222" type="curve" smooth="yes"/>
      <point x="198" y="152" type="line"/>
    </contour>
    <contour>
      <point x="166" y="-5" type="curve" smooth="yes"/>
      <point x="156" y="-5"/>
      <point x="149" y="3"/>
      <point x="149" y="12" type="curve" smooth="yes"/>
      <point x="149" y="21"/>
      <point x="156" y="29"/>
      <point x="166" y="29" type="curve" smooth="yes"/>
      <point x="176" y="29"/>
      <point x="183" y="21"/>
      <point x="183" y="12" type="curve" smooth="yes"/>
      <point x="183" y="3"/>
      <point x="176" y="-5"/>
    </contour>
  </outline>
</glyph>
<glyph name="at" format="2">
  <advance width="902"/>
  <unicode hex="0040"/>
  <outline>
    <contour>
      <point x="642" y="463" type="line"/>
      <point x="606" y="237" type="line" smooth="yes"/>
      <point x="591" y="152"/>
      <point x="612" y="89"/>
      <point x="691" y="89" type="curve" smooth="yes"/>
      <point x="772" y="89"/>
      <point x="845" y="164"/>
      <point x="845" y="323" type="curve" smooth="yes"/>
      <point x="845" y="523"/>
      <point x="711" y="672"/>
      <point x="478" y="672" type="curve" smooth="yes"/>
      <point x="262" y="672"/>
      <point x="69" y="493"/>
      <point x="69" y="260" type="curve" smooth="yes"/>
      <point x="69" y="55"/>
      <point x="202" y="-131"/>
      <point x="463" y="-131" type="curve" smooth="yes"/>
      <point x="621" y="-131"/>
      <point x="726" y="-68"/>
      <point x="777" y="0" type="curve"/>
      <point x="795" y="0" type="line"/>
      <point x="748" y="-74"/>
      <point x="631" y="-147"/>
      <point x="463" y="-147" type="curve" smooth="yes"/>
      <point x="193" y="-147"/>
      <point x="51" y="45"/>
      <point x="51" y="260" type="curve" smooth="yes"/>
      <point x="51" y="503"/>
      <point x="257" y="688"/>
      <point x="478" y="688" type="curve" smooth="yes"/>
      <point x="717" y="688"/>
      <point x="863" y="530"/>
      <point x="863" y="324" type="curve" smooth="yes"/>
      <point x="863" y="146"/>
      <point x="770" y="74"/>
      <point x="690" y="74" type="curve" smooth="yes"/>
      <point x="624" y="74"/>
      <point x="583" y="115"/>
      <point x="585" y="192" type="curve"/>
      <point x="565" y="140"/>
      <point x="507" y="66"/>
      <point x="421" y="66" type="curve" smooth="yes"/>
      <point x="334" y="66"/>
      <point x="270" y="128"/>
      <point x="270" y="229" type="curve" smooth="yes"/>
      <point x="270" y="348"/>
      <point x="351" y="472"/>
      <point x="469" y="472" type="curve" smooth="yes"/>
      <point x="543" y="472"/>
      <point x="598" y="421"/>
      <point x="607" y="350" type="curve"/>
      <point x="624" y="463" type="line"/>
    </contour>
    <contour>
      <point x="421" y="82" type="curve" smooth="yes"/>
      <point x="516" y="82"/>
      <point x="596" y="187"/>
      <point x="597" y="302" type="curve" smooth="yes"/>
      <point x="598" y="394"/>
      <point x="548" y="456"/>
      <point x="469" y="456" type="curve" smooth="yes"/>
      <point x="362" y="456"/>
      <point x="288" y="342"/>
      <point x="288" y="229" type="curve" smooth="yes"/>
      <point x="288" y="139"/>
      <point x="341" y="82"/>
    </contour>
  </outline>
</glyph>
<glyph name="B" format="2">
  <advance width="582"/>
  <unicode hex="0042"/>
  <outline>
    <contour>
      <point x="53" y="0" type="line"/>
      <point x="166" y="715" type="line"/>
      <point x="345" y="715" type="line" smooth="yes"/>
      <point x="459" y="715"/>
      <point x="529" y="655"/>
      <point x="529" y="556" type="curve" smooth="yes"/>
      <point x="529" y="447"/>
      <point x="461" y="393"/>
      <point x="363" y="373" type="curve"/>
      <point x="460" y="361"/>
      <point x="513" y="300"/>
      <point x="513" y="215" type="curve" smooth="yes"/>
      <point x="513" y="76"/>
      <point x="415" y="0"/>
      <point x="281" y="0" type="curve" smooth="yes"/>
    </contour>
    <contour>
      <point x="74" y="17" type="line"/>
      <point x="281" y="17" type="line" smooth="yes"/>
      <point x="402" y="17"/>
      <point x="494" y="82"/>
      <point x="494" y="215" type="curve" smooth="yes"/>
      <point x="494" y="306"/>
      <point x="431" y="365"/>
      <point x="301" y="365" type="curve" smooth="yes"/>
      <point x="129" y="365" type="line"/>
    </contour>
    <contour>
      <point x="132" y="382" type="line"/>
      <point x="302" y="382" type="line" smooth="yes"/>
      <point x="402" y="382"/>
      <point x="510" y="424"/>
      <point x="510" y="556" type="curve" smooth="yes"/>
      <point x="510" y="644"/>
      <point x="447" y="698"/>
      <point x="345" y="698" type="curve" smooth="yes"/>
      <point x="182" y="698" type="line"/>
    </contour>
  </outline>
</glyph>
<glyph name="C" format="2">
  <advance width="722"/>
  <unicode hex="0043"/>
  <outline>
    <contour>
      <point x="366" y="-6" type="curve" smooth="yes"/>
      <point x="177" y="-6"/>
      <point x="56" y="115"/>
      <point x="56" y="315" type="curve" smooth="yes"/>
      <point x="56" y="532"/>
      <point x="199" y="721"/>
      <point x="431" y="721" type="curve" smooth="yes"/>
      <point x="560" y="721"/>
      <point x="675" y="645"/>
      <point x="695" y="510" type="curve"/>
      <point x="678" y="510" type="line"/>
      <point x="655" y="633"/>
      <point x="554" y="704"/>
      <point x="431" y="704" type="curve" smooth="yes"/>
      <point x="209" y="704"/>
      <point x="76" y="525"/>
      <point x="76" y="315" type="curve" smooth="yes"/>
      <point x="76" y="126"/>
      <point x="187" y="11"/>
      <point x="366" y="11" type="curve" smooth="yes"/>
      <point x="502" y="11"/>
      <point x="612" y="85"/>
      <point x="658" y="221" type="curve"/>
      <point x="676" y="221" type="line"/>
      <point x="631" y="73"/>
      <point x="508" y="-6"/>
    </contour>
  </outline>
</glyph>
<glyph name="F" format="2">
  <advance width="534"/>
  <unicode hex="0046"/>
  <outline>
    <contour>
      <point x="53" y="0" type="line"/>
      <point x="166" y="715" type="line"/>
      <point x="559" y="715" type="line"/>
      <point x="556" y="698" type="line"/>
      <point x="182" y="698" type="line"/>
      <point x="131" y="378" type="line"/>
      <point x="428" y="378" type="line"/>
      <point x="425" y="361" type="line"/>
      <point x="129" y="361" type="line"/>
      <point x="72" y="0" type="line"/>
    </contour>
  </outline>
</glyph>
<glyph name="J" format="2">
  <advance width="378"/>
  <unicode hex="004A"/>
  <outline>
    <contour>
      <point x="114" y="-4" type="curve" smooth="yes"/>
      <point x="57" y="-4"/>
      <point x="20" y="11"/>
      <point x="-3" y="25" type="curve"/>
      <point x="0" y="43" type="line"/>
      <point x="30" y="25"/>
      <point x="65" y="13"/>
      <point x="114" y="13" type="curve" smooth="yes"/>
      <point x="193" y="13"/>
      <point x="246" y="53"/>
      <point x="262" y="153" type="curve" smooth="yes"/>
      <point x="351" y="715" type="line"/>
      <point x="370" y="715" type="line"/>
      <point x="281" y="152" type="line" smooth="yes"/>
      <point x="263" y="38"/>
      <point x="201" y="-4"/>
    </contour>
  </outline>
</glyph>
<glyph name="K" format="2">
  <advance width="579"/>
  <unicode hex="004B"/>
  <outline>
    <contour>
      <point x="503" y="0" type="line"/>
      <point x="479" y="0" type="line"/>
      <point x="140" y="368" type="line"/>
      <point x="570" y="715" type="line"/>
      <point x="596" y="715" type="line"/>
      <point x="165" y="367" type="line"/>
    </contour>
    <contour>
      <point x="53" y="0" type="line"/>
      <point x="166" y="715" type="line"/>
      <point x="185" y="715" type="line"/>
      <point x="72" y="0" type="line"/>
    </contour>
  </outline>
</glyph>
<glyph name="N" format="2">
  <advance width="701"/>
  <unicode hex="004E"/>
  <outline>
    <contour>
      <point x="53" y="0" type="line"/>
      <point x="166" y="715" type="line"/>
      <point x="195" y="715" type="line"/>
      <point x="548" y="22" type="line"/>
      <point x="658" y="715" type="line"/>
      <point x="677" y="715" type="line"/>
      <point x="564" y="0" type="line"/>
      <point x="539" y="0" type="line"/>
      <point x="182" y="700" type="line"/>
      <point x="72" y="0" type="line"/>
    </contour>
  </outline>
</glyph>
<glyph name="P" format="2">
  <advance width="552"/>
  <unicode hex="0050"/>
  <outline>
    <contour>
      <point x="53" y="0" type="line"/>
      <point x="166" y="715" type="line"/>
      <point x="322" y="715" type="line" smooth="yes"/>
      <point x="455" y="715"/>
      <point x="543" y="664"/>
      <point x="543" y="542" type="curve" smooth="yes"/>
      <point x="543" y="388"/>
      <point x="445" y="323"/>
      <point x="294" y="323" type="curve" smooth="yes"/>
      <point x="122" y="323" type="line"/>
      <point x="71" y="0" type="line"/>
    </contour>
    <contour>
      <point x="124" y="340" type="line"/>
      <point x="294" y="340" type="line" smooth="yes"/>
      <point x="434" y="340"/>
      <point x="524" y="394"/>
      <point x="524" y="542" type="curve" smooth="yes"/>
      <point x="524" y="657"/>
      <point x="440" y="698"/>
      <point x="321" y="698" type="curve" smooth="yes"/>
      <point x="181" y="698" type="line"/>
    </contour>
  </outline>
</glyph>
<glyph name="Q" format="2">
  <advance width="780"/>
  <unicode hex="0051"/>
  <outline>
    <contour>
      <point x="672" y="-26" type="line"/>
      <point x="591" y="61" type="line"/>
      <point x="533" y="19"/>
      <point x="462" y="-6"/>
      <point x="380" y="-6" type="curve" smooth="yes"/>
      <point x="178" y="-6"/>
      <point x="56" y="139"/>
      <point x="56" y="331" type="curve" smooth="yes"/>
      <point x="56" y="535"/>
      <point x="207" y="721"/>
      <point x="430" y="721" type="curve" smooth="yes"/>
      <point x="622" y="721"/>
      <point x="752" y="577"/>
      <point x="752" y="389" type="curve" smooth="yes"/>
      <point x="752" y="265"/>
      <point x="697" y="146"/>
      <point x="604" y="72" type="curve"/>
      <point x="684" y="-14" type="line"/>
    </contour>
    <contour>
      <point x="380" y="11" type="curve" smooth="yes"/>
      <point x="457" y="11"/>
      <point x="524" y="35"/>
      <point x="579" y="74" type="curve"/>
      <point x="461" y="203" type="line"/>
      <point x="473" y="215" type="line"/>
      <point x="593" y="84" type="line"/>
      <point x="680" y="155"/>
      <point x="732" y="268"/>
      <point x="733" y="389" type="curve" smooth="yes"/>
      <point x="734" y="558"/>
      <point x="621" y="704"/>
      <point x="430" y="704" type="curve" smooth="yes"/>
      <point x="219" y="704"/>
      <point x="78" y="531"/>
      <point x="75" y="331" type="curve" smooth="yes"/>
      <point x="72" y="157"/>
      <point x="186" y="11"/>
    </contour>
  </outline>
</glyph>
<glyph name="U" format="2">
  <advance width="666"/>
  <unicode hex="0055"/>
  <outline>
    <contour>
      <point x="315" y="-4" type="curve" smooth="yes"/>
      <point x="134" y="-4"/>
      <point x="52" y="97"/>
      <point x="78" y="262" type="curve" smooth="yes"/>
      <point x="150" y="715" type="line"/>
      <point x="169" y="715" type="line"/>
      <point x="97" y="262" type="line" smooth="yes"/>
      <point x="73" y="107"/>
      <point x="142" y="13"/>
      <point x="316" y="13" type="curve" smooth="yes"/>
      <point x="466" y="13"/>
      <point x="540" y="88"/>
      <point x="563" y="236" type="curve" smooth="yes"/>
      <point x="639" y="715" type="line"/>
      <point x="658" y="715" type="line"/>
      <point x="582" y="236" type="line" smooth="yes"/>
      <point x="557" y="76"/>
      <point x="478" y="-4"/>
    </contour>
  </outline>
</glyph>
<glyph name="V" format="2">
  <advance width="616"/>
  <unicode hex="0056"/>
  <outline>
    <contour>
      <point x="258" y="0" type="line"/>
      <point x="92" y="715" type="line"/>
      <point x="110" y="715" type="line"/>
      <point x="272" y="23" type="line"/>
      <point x="633" y="715" type="line"/>
      <point x="652" y="715" type="line"/>
      <point x="280" y="0" type="line"/>
    </contour>
  </outline>
</glyph>
<glyph name="Z" format="2">
  <advance width="577"/>
  <unicode hex="005A"/>
  <outline>
    <contour>
      <point x="-16" y="0" type="line"/>
      <point x="-15" y="7" type="line"/>
      <point x="579" y="698" type="line"/>
      <point x="130" y="698" type="line"/>
      <point x="133" y="715" type="line"/>
      <point x="612" y="715" type="line"/>
      <point x="611" y="708" type="line"/>
      <point x="17" y="17" type="line"/>
      <point x="496" y="17" type="line"/>
      <point x="493" y="0" type="line"/>
    </contour>
  </outline>
</glyph>
<glyph name="bracketleft" format="2">
  <advance width="322"/>
  <unicode hex="005B"/>
  <outline>
    <contour>
      <point x="33" y="-148" type="line"/>
      <point x="179" y="776" type="line"/>
      <point x="364" y="776" type="line"/>
      <point x="361" y="760" type="line"/>
      <point x="195" y="760" type="line"/>
      <point x="54" y="-132" type="line"/>
      <point x="220" y="-132" type="line"/>
      <point x="217" y="-148" type="line"/>
    </contour>
  </outline>
</glyph>
<glyph name="bracketright" format="2">
  <advance width="322"/>
  <unicode hex="005D"/>
  <outline>
    <contour>
      <point x="-27" y="-148" type="line"/>
      <point x="-24" y="-132" type="line"/>
      <point x="142" y="-132" type="line"/>
      <point x="283" y="760" type="line"/>
      <point x="117" y="760" type="line"/>
      <point x="120" y="776" type="line"/>
      <point x="303" y="776" type="line"/>
      <point x="157" y="-148" type="line"/>
    </contour>
  </outline>
</glyph>
<glyph name="asciicircum" format="2">
  <advance width="445"/>
  <unicode hex="005E"/>
  <outline>
    <contour>
      <point x="75" y="438" type="line"/>
      <point x="285" y="715" type="line"/>
      <point x="301" y="715" type="line"/>
      <point x="424" y="438" type="line"/>
      <point x="404" y="438" type="line"/>
      <point x="291" y="695" type="line"/>
      <point x="96" y="438" type="line"/>
    </contour>
  </outline>
</glyph>
<glyph name="underscore" format="2">
  <advance width="384"/>
  <unicode hex="005F"/>
  <outline>
    <contour>
      <point x="-65" y="-142" type="line"/>
      <point x="-62" y="-125" type="line"/>
      <point x="323" y="-125" type="line"/>
      <point x="320" y="-142" type="line"/>
    </contour>
  </outline>
</glyph>
<glyph name="grave" format="2">
  <advance width="400"/>
  <unicode hex="0060"/>
  <outline>
    <contour>
      <point x="244" y="596" type="line"/>
      <point x="189" y="743" type="line"/>
      <point x="208" y="743" type="line"/>
      <point x="261" y="596" type="line"/>
    </contour>
  </outline>
</glyph>
<glyph name="b" format="2">
  <advance width="586"/>
  <unicode hex="0062"/>
  <outline>
    <contour>
      <point x="295" y="-7" type="curve" smooth="yes"/>
      <point x="160" y="-7"/>
      <point x="96" y="96"/>
      <point x="84" y="177" type="curve"/>
      <point x="56" y="0" type="line"/>
      <point x="38" y="0" type="line"/>
      <point x="160" y="773" type="line"/>
      <point x="178" y="773" type="line"/>
      <point x="116" y="379" type="line"/>
      <point x="154" y="461"/>
      <point x="232" y="530"/>
      <point x="340" y="530" type="curve" smooth="yes"/>
      <point x="455" y="530"/>
      <point x="549" y="437"/>
      <point x="549" y="293" type="curve" smooth="yes"/>
      <point x="549" y="128"/>
      <point x="464" y="-7"/>
    </contour>
    <contour>
      <point x="295" y="9" type="curve" smooth="yes"/>
      <point x="452" y="9"/>
      <point x="531" y="136"/>
      <point x="531" y="293" type="curve" smooth="yes"/>
      <point x="531" y="431"/>
      <point x="442" y="514"/>
      <point x="340" y="514" type="curve" smooth="yes"/>
      <point x="186" y="514"/>
      <point x="97" y="368"/>
      <point x="95" y="237" type="curve" smooth="yes"/>
      <point x="93" y="94"/>
      <point x="181" y="9"/>
    </contour>
  </outline>
</glyph>
<glyph name="d" format="2">
  <advance width="588"/>
  <unicode hex="0064"/>
  <outline>
    <contour>
      <point x="250" y="-7" type="curve" smooth="yes"/>
      <point x="130" y="-7"/>
      <point x="37" y="81"/>
      <point x="37" y="225" type="curve" smooth="yes"/>
      <point x="37" y="390"/>
      <point x="138" y="530"/>
      <point x="298" y="530" type="curve" smooth="yes"/>
      <point x="433" y="530"/>
      <point x="492" y="424"/>
      <point x="502" y="346" type="curve"/>
      <point x="570" y="773" type="line"/>
      <point x="588" y="773" type="line"/>
      <point x="493" y="173" type="line" smooth="yes"/>
      <point x="478" y="81"/>
      <point x="476" y="29"/>
      <point x="474" y="0" type="curve"/>
      <point x="456" y="0" type="line"/>
      <point x="457" y="35"/>
      <point x="464" y="102"/>
      <point x="470" y="143" type="curve"/>
      <point x="433" y="60"/>
      <point x="358" y="-7"/>
    </contour>
    <contour>
      <point x="250" y="9" type="curve" smooth="yes"/>
      <point x="404" y="9"/>
      <point x="489" y="155"/>
      <point x="491" y="286" type="curve" smooth="yes"/>
      <point x="493" y="429"/>
      <point x="412" y="514"/>
      <point x="298" y="514" type="curve" smooth="yes"/>
      <point x="146" y="514"/>
      <point x="55" y="382"/>
      <point x="55" y="225" type="curve" smooth="yes"/>
      <point x="55" y="87"/>
      <point x="143" y="9"/>
    </contour>
  </outline>
</glyph>
<glyph name="e" format="2">
  <advance width="529"/>
  <unicode hex="0065"/>
  <outline>
    <contour>
      <point x="57" y="219" type="curve" smooth="yes"/>
      <point x="57" y="85"/>
      <point x="125" y="9"/>
      <point x="253" y="9" type="curve" smooth="yes"/>
      <point x="348" y="9"/>
      <point x="418" y="53"/>
      <point x="453" y="141" type="curve"/>
      <point x="471" y="141" type="line"/>
      <point x="436" y="43"/>
      <point x="358" y="-7"/>
      <point x="253" y="-7" type="curve" smooth="yes"/>
      <point x="110" y="-7"/>
      <point x="38" y="79"/>
      <point x="38" y="219" type="curve" smooth="yes"/>
      <point x="38" y="380"/>
      <point x="134" y="530"/>
      <point x="299" y="530" type="curve" smooth="yes"/>
      <point x="451" y="530"/>
      <point x="512" y="419"/>
      <point x="491" y="283" type="curve" smooth="yes"/>
      <point x="489" y="270" type="line"/>
      <point x="60" y="270" type="line"/>
      <point x="58" y="253"/>
      <point x="57" y="236"/>
    </contour>
    <contour>
      <point x="299" y="514" type="curve" smooth="yes"/>
      <point x="164" y="514"/>
      <point x="83" y="411"/>
      <point x="62" y="286" type="curve"/>
      <point x="474" y="286" type="line"/>
      <point x="492" y="414"/>
      <point x="441" y="514"/>
    </contour>
  </outline>
</glyph>
<glyph name="f" format="2">
  <advance width="317"/>
  <unicode hex="0066"/>
  <outline>
    <contour>
      <point x="61" y="507" type="line"/>
      <point x="64" y="523" type="line"/>
      <point x="149" y="523" type="line"/>
      <point x="165" y="621" type="line" smooth="yes"/>
      <point x="185" y="743"/>
      <point x="253" y="776"/>
      <point x="323" y="776" type="curve" smooth="yes"/>
      <point x="346" y="776"/>
      <point x="363" y="773"/>
      <point x="380" y="768" type="curve"/>
      <point x="378" y="752" type="line"/>
      <point x="359" y="758"/>
      <point x="345" y="760"/>
      <point x="323" y="760" type="curve" smooth="yes"/>
      <point x="260" y="760"/>
      <point x="202" y="735"/>
      <point x="183" y="620" type="curve" smooth="yes"/>
      <point x="167" y="523" type="line"/>
      <point x="333" y="523" type="line"/>
      <point x="330" y="507" type="line"/>
      <point x="165" y="507" type="line"/>
      <point x="85" y="0" type="line"/>
      <point x="67" y="0" type="line"/>
      <point x="147" y="507" type="line"/>
    </contour>
  </outline>
</glyph>
<glyph name="g" format="2">
  <advance width="594"/>
  <unicode hex="0067"/>
  <outline>
    <contour>
      <point x="255" y="33" type="curve" smooth="yes"/>
      <point x="403" y="34"/>
      <point x="499" y="170"/>
      <point x="499" y="316" type="curve" smooth="yes"/>
      <point x="499" y="426"/>
      <point x="434" y="514"/>
      <point x="307" y="514" type="curve" smooth="yes"/>
      <point x="158" y="515"/>
      <point x="61" y="393"/>
      <point x="61" y="238" type="curve" smooth="yes"/>
      <point x="61" y="123"/>
      <point x="129" y="33"/>
    </contour>
    <contour>
      <point x="554" y="523" type="line"/>
      <point x="474" y="15" type="line" smooth="yes"/>
      <point x="452" y="-122"/>
      <point x="361" y="-185"/>
      <point x="232" y="-185" type="curve" smooth="yes"/>
      <point x="124" y="-185"/>
      <point x="27" y="-137"/>
      <point x="12" y="-30" type="curve"/>
      <point x="30" y="-30" type="line"/>
      <point x="44" y="-119"/>
      <point x="121" y="-169"/>
      <point x="232" y="-169" type="curve" smooth="yes"/>
      <point x="353" y="-169"/>
      <point x="437" y="-108"/>
      <point x="456" y="15" type="curve" smooth="yes"/>
      <point x="480" y="168" type="line"/>
      <point x="446" y="97"/>
      <point x="372" y="17"/>
      <point x="254" y="17" type="curve" smooth="yes"/>
      <point x="124" y="17"/>
      <point x="43" y="106"/>
      <point x="43" y="238" type="curve" smooth="yes"/>
      <point x="43" y="399"/>
      <point x="148" y="530"/>
      <point x="307" y="530" type="curve" smooth="yes"/>
      <point x="420" y="530"/>
      <point x="492" y="463"/>
      <point x="511" y="364" type="curve"/>
      <point x="536" y="523" type="line"/>
    </contour>
  </outline>
</glyph>
<glyph name="h" format="2">
  <advance width="559"/>
  <unicode hex="0068"/>
  <outline>
    <contour>
      <point x="38" y="0" type="line"/>
      <point x="160" y="773" type="line"/>
      <point x="178" y="773" type="line"/>
      <point x="119" y="400" type="line"/>
      <point x="154" y="469"/>
      <point x="228" y="530"/>
      <point x="327" y="530" type="curve" smooth="yes"/>
      <point x="443" y="530"/>
      <point x="513" y="455"/>
      <point x="490" y="310" type="curve" smooth="yes"/>
      <point x="441" y="0" type="line"/>
      <point x="423" y="0" type="line"/>
      <point x="472" y="310" type="line" smooth="yes"/>
      <point x="494" y="448"/>
      <point x="431" y="514"/>
      <point x="327" y="514" type="curve" smooth="yes"/>
      <point x="229" y="514"/>
      <point x="126" y="445"/>
      <point x="106" y="317" type="curve" smooth="yes"/>
      <point x="56" y="0" type="line"/>
    </contour>
  </outline>
</glyph>
<glyph name="m" format="2">
  <advance width="884"/>
  <unicode hex="006D"/>
  <outline>
    <contour>
      <point x="38" y="0" type="line"/>
      <point x="99" y="389" type="line" smooth="yes"/>
      <point x="110" y="458"/>
      <point x="112" y="494"/>
      <point x="114" y="523" type="curve"/>
      <point x="132" y="523" type="line"/>
      <point x="131" y="496"/>
      <point x="127" y="451"/>
      <point x="119" y="402" type="curve"/>
      <point x="154" y="468"/>
      <point x="214" y="530"/>
      <point x="310" y="530" type="curve" smooth="yes"/>
      <point x="401" y="530"/>
      <point x="459" y="479"/>
      <point x="464" y="383" type="curve"/>
      <point x="495" y="465"/>
      <point x="571" y="530"/>
      <point x="664" y="530" type="curve" smooth="yes"/>
      <point x="777" y="530"/>
      <point x="838" y="458"/>
      <point x="815" y="310" type="curve" smooth="yes"/>
      <point x="766" y="0" type="line"/>
      <point x="748" y="0" type="line"/>
      <point x="797" y="310" type="line" smooth="yes"/>
      <point x="819" y="451"/>
      <point x="765" y="514"/>
      <point x="664" y="514" type="curve" smooth="yes"/>
      <point x="569" y="514"/>
      <point x="480" y="440"/>
      <point x="461" y="317" type="curve" smooth="yes"/>
      <point x="411" y="0" type="line"/>
      <point x="393" y="0" type="line"/>
      <point x="442" y="310" type="line" smooth="yes"/>
      <point x="464" y="448"/>
      <point x="411" y="514"/>
      <point x="310" y="514" type="curve" smooth="yes"/>
      <point x="215" y="514"/>
      <point x="125" y="440"/>
      <point x="106" y="317" type="curve" smooth="yes"/>
      <point x="56" y="0" type="line"/>
    </contour>
  </outline>
</glyph>
<glyph name="q" format="2">
  <advance width="588"/>
  <unicode hex="0071"/>
  <outline>
    <contour>
      <point x="419" y="-182" type="line"/>
      <point x="470" y="143" type="line"/>
      <point x="433" y="60"/>
      <point x="358" y="-7"/>
      <point x="250" y="-7" type="curve" smooth="yes"/>
      <point x="130" y="-7"/>
      <point x="37" y="81"/>
      <point x="37" y="225" type="curve" smooth="yes"/>
      <point x="37" y="390"/>
      <point x="138" y="530"/>
      <point x="298" y="530" type="curve" smooth="yes"/>
      <point x="433" y="530"/>
      <point x="492" y="424"/>
      <point x="502" y="346" type="curve"/>
      <point x="530" y="523" type="line"/>
      <point x="548" y="523" type="line"/>
      <point x="437" y="-182" type="line"/>
    </contour>
    <contour>
      <point x="250" y="9" type="curve" smooth="yes"/>
      <point x="404" y="9"/>
      <point x="489" y="155"/>
      <point x="491" y="286" type="curve" smooth="yes"/>
      <point x="493" y="429"/>
      <point x="412" y="514"/>
      <point x="298" y="514" type="curve" smooth="yes"/>
      <point x="146" y="514"/>
      <point x="55" y="382"/>
      <point x="55" y="225" type="curve" smooth="yes"/>
      <point x="55" y="87"/>
      <point x="143" y="9"/>
    </contour>
  </outline>
</glyph>
<glyph name="r" format="2">
  <advance width="316"/>
  <unicode hex="0072"/>
  <outline>
    <contour>
      <point x="38" y="0" type="line"/>
      <point x="99" y="389" type="line" smooth="yes"/>
      <point x="110" y="458"/>
      <point x="112" y="494"/>
      <point x="114" y="523" type="curve"/>
      <point x="132" y="523" type="line"/>
      <point x="131" y="496"/>
      <point x="127" y="447"/>
      <point x="118" y="394" type="curve"/>
      <point x="150" y="465"/>
      <point x="213" y="524"/>
      <point x="322" y="527" type="curve"/>
      <point x="319" y="511" type="line"/>
      <point x="216" y="508"/>
      <point x="126" y="444"/>
      <point x="102" y="293" type="curve" smooth="yes"/>
      <point x="56" y="0" type="line"/>
    </contour>
  </outline>
</glyph>
<glyph name="v" format="2">
  <advance width="493"/>
  <unicode hex="0076"/>
  <outline>
    <contour>
      <point x="196" y="0" type="line"/>
      <point x="66" y="523" type="line"/>
      <point x="84" y="523" type="line"/>
      <point x="211" y="18" type="line"/>
      <point x="488" y="523" type="line"/>
      <point x="507" y="523" type="line"/>
      <point x="222" y="0" type="line"/>
    </contour>
  </outline>
</glyph>
<glyph name="x" format="2">
  <advance width="485"/>
  <unicode hex="0078"/>
  <outline>
    <contour>
      <point x="-11" y="0" type="line"/>
      <point x="230" y="273" type="line"/>
      <point x="83" y="523" type="line"/>
      <point x="104" y="523" type="line"/>
      <point x="243" y="285" type="line"/>
      <point x="452" y="523" type="line"/>
      <point x="474" y="523" type="line"/>
      <point x="253" y="271" type="line"/>
      <point x="412" y="0" type="line"/>
      <point x="391" y="0" type="line"/>
      <point x="239" y="259" type="line"/>
      <point x="11" y="0" type="line"/>
    </contour>
  </outline>
</glyph>
<glyph name="y" format="2">
  <advance width="480"/>
  <unicode hex="0079"/>
  <outline>
    <contour>
      <point x="78" y="-182" type="line"/>
      <point x="200" y="36" type="line"/>
      <point x="66" y="523" type="line"/>
      <point x="84" y="523" type="line"/>
      <point x="213" y="57" type="line"/>
      <point x="474" y="523" type="line"/>
      <point x="494" y="523" type="line"/>
      <point x="98" y="-182" type="line"/>
    </contour>
  </outline>
</glyph>
<glyph name="z" format="2">
  <advance width="457"/>
  <unicode hex="007A"/>
  <outline>
    <contour>
      <point x="-16" y="0" type="line"/>
      <point x="-15" y="5" type="line"/>
      <point x="434" y="507" type="line"/>
      <point x="95" y="507" type="line"/>
      <point x="98" y="523" type="line"/>
      <point x="468" y="523" type="line"/>
      <point x="467" y="518" type="line"/>
      <point x="18" y="16" type="line"/>
      <point x="378" y="16" type="line"/>
      <point x="375" y="0" type="line"/>
    </contour>
  </outline>
</glyph>
<glyph name="braceleft" format="2">
  <advance width="341"/>
  <unicode hex="007B"/>
  <outline>
    <contour>
      <point x="236" y="-144" type="line"/>
      <point x="111" y="-136"/>
      <point x="65" y="-68"/>
      <point x="108" y="49" type="curve" smooth="yes"/>
      <point x="153" y="175" type="line" smooth="yes"/>
      <point x="182" y="256"/>
      <point x="159" y="315"/>
      <point x="52" y="321" type="curve"/>
      <point x="55" y="337" type="line"/>
      <point x="161" y="337"/>
      <point x="202" y="382"/>
      <point x="198" y="466" type="curve" smooth="yes"/>
      <point x="192" y="598" type="line" smooth="yes"/>
      <point x="186" y="734"/>
      <point x="255" y="770"/>
      <point x="382" y="776" type="curve"/>
      <point x="379" y="760" type="line"/>
      <point x="269" y="754"/>
      <point x="203" y="727"/>
      <point x="209" y="598" type="curve" smooth="yes"/>
      <point x="215" y="467" type="line" smooth="yes"/>
      <point x="219" y="373"/>
      <point x="171" y="338"/>
      <point x="103" y="327" type="curve"/>
      <point x="169" y="311"/>
      <point x="200" y="256"/>
      <point x="169" y="170" type="curve" smooth="yes"/>
      <point x="124" y="44" type="line" smooth="yes"/>
      <point x="85" y="-65"/>
      <point x="125" y="-120"/>
      <point x="239" y="-128" type="curve"/>
    </contour>
  </outline>
</glyph>
<glyph name="braceright" format="2">
  <advance width="341"/>
  <unicode hex="007D"/>
  <outline>
    <contour>
      <point x="120" y="776" type="line"/>
      <point x="245" y="768"/>
      <point x="291" y="700"/>
      <point x="248" y="583" type="curve" smooth="yes"/>
      <point x="203" y="457" type="line" smooth="yes"/>
      <point x="174" y="376"/>
      <point x="197" y="317"/>
      <point x="304" y="311" type="curve"/>
      <point x="301" y="295" type="line"/>
      <point x="195" y="295"/>
      <point x="154" y="250"/>
      <point x="158" y="166" type="curve" smooth="yes"/>
      <point x="164" y="34" type="line" smooth="yes"/>
      <point x="170" y="-102"/>
      <point x="101" y="-138"/>
      <point x="-26" y="-144" type="curve"/>
      <point x="-23" y="-128" type="line"/>
      <point x="87" y="-122"/>
      <point x="153" y="-95"/>
      <point x="147" y="34" type="curve" smooth="yes"/>
      <point x="141" y="165" type="line" smooth="yes"/>
      <point x="137" y="259"/>
      <point x="185" y="294"/>
      <point x="253" y="305" type="curve"/>
      <point x="187" y="321"/>
      <point x="156" y="376"/>
      <point x="187" y="462" type="curve" smooth="yes"/>
      <point x="232" y="588" type="line" smooth="yes"/>
      <point x="271" y="697"/>
      <point x="231" y="752"/>
      <point x="117" y="760" type="curve"/>
    </contour>
  </outline>
</glyph>
<glyph name="asciitilde" format="2">
  <advance width="429"/>
  <unicode hex="007E"/>
  <outline>
    <contour>
      <point x="48" y="242" type="line"/>
      <point x="59" y="291"/>
      <point x="88" y="331"/>
      <point x="137" y="331" type="curve" smooth="yes"/>
      <point x="199" y="331"/>
      <point x="242" y="260"/>
      <point x="297" y="260" type="curve" smooth="yes"/>
      <point x="338" y="260"/>
      <point x="360" y="296"/>
      <point x="368" y="333" type="curve"/>
      <point x="386" y="333" type="line"/>
      <point x="375" y="284"/>
      <point x="346" y="244"/>
      <point x="297" y="244" type="curve" smooth="yes"/>
      <point x="234" y="244"/>
      <point x="191" y="315"/>
      <point x="137" y="315" type="curve" smooth="yes"/>
      <point x="97" y="315"/>
      <point x="74" y="279"/>
      <point x="66" y="242" type="curve"/>
    </contour>
  </outline>
</glyph>
<glyph name="exclamdown" format="2">
  <advance width="254"/>
  <unicode hex="00A1"/>
  <outline>
    <contour>
      <point x="162" y="446" type="line"/>
      <point x="75" y="-117" type="line"/>
      <point x="55" y="-117" type="line"/>
      <point x="146" y="446" type="line"/>
    </contour>
    <contour>
      <point x="178" y="603" type="curve" smooth="yes"/>
      <point x="188" y="603"/>
      <point x="195" y="595"/>
      <point x="195" y="586" type="curve" smooth="yes"/>
      <point x="195" y="577"/>
      <point x="188" y="569"/>
      <point x="178" y="569" type="curve" smooth="yes"/>
      <point x="168" y="569"/>
      <point x="161" y="577"/>
      <point x="161" y="586" type="curve" smooth="yes"/>
      <point x="161" y="595"/>
      <point x="168" y="603"/>
    </contour>
  </outline>
</glyph>
<glyph name="cent" format="2">
  <advance width="539"/>
  <unicode hex="00A2"/>
  <outline>
    <contour>
      <point x="268" y="-7" type="curve" smooth="yes"/>
      <point x="261" y="-7"/>
      <point x="254" y="-7"/>
      <point x="247" y="-6" type="curve"/>
      <point x="227" y="-135" type="line"/>
      <point x="210" y="-135" type="line"/>
      <point x="230" y="-4" type="line"/>
      <point x="113" y="11"/>
      <point x="42" y="104"/>
      <point x="42" y="231" type="curve" smooth="yes"/>
      <point x="42" y="395"/>
      <point x="150" y="530"/>
      <point x="311" y="530" type="curve" smooth="yes"/>
      <point x="315" y="530" type="line"/>
      <point x="331" y="629" type="line"/>
      <point x="348" y="629" type="line"/>
      <point x="332" y="529" type="line"/>
      <point x="429" y="521"/>
      <point x="498" y="455"/>
      <point x="504" y="363" type="curve"/>
      <point x="486" y="363" type="line"/>
      <point x="482" y="443"/>
      <point x="421" y="505"/>
      <point x="329" y="513" type="curve"/>
      <point x="250" y="9" type="line"/>
      <point x="268" y="9" type="line" smooth="yes"/>
      <point x="371" y="9"/>
      <point x="450" y="65"/>
      <point x="478" y="170" type="curve"/>
      <point x="496" y="170" type="line"/>
      <point x="468" y="52"/>
      <point x="378" y="-7"/>
    </contour>
    <contour>
      <point x="60" y="231" type="curve" smooth="yes"/>
      <point x="60" y="109"/>
      <point x="129" y="26"/>
      <point x="233" y="11" type="curve"/>
      <point x="312" y="514" type="line"/>
      <point x="310" y="514" type="line" smooth="yes"/>
      <point x="157" y="514"/>
      <point x="60" y="384"/>
    </contour>
  </outline>
</glyph>
<glyph name="sterling" format="2">
  <advance width="581"/>
  <unicode hex="00A3"/>
  <outline>
    <contour>
      <point x="61" y="342" type="line"/>
      <point x="64" y="358" type="line"/>
      <point x="144" y="358" type="line"/>
      <point x="139" y="398"/>
      <point x="133" y="437"/>
      <point x="133" y="479" type="curve" smooth="yes"/>
      <point x="133" y="620"/>
      <point x="214" y="721"/>
      <point x="366" y="721" type="curve" smooth="yes"/>
      <point x="496" y="721"/>
      <point x="554" y="646"/>
      <point x="557" y="545" type="curve"/>
      <point x="539" y="545" type="line"/>
      <point x="535" y="639"/>
      <point x="480" y="704"/>
      <point x="366" y="704" type="curve" smooth="yes"/>
      <point x="230" y="704"/>
      <point x="152" y="615"/>
      <point x="152" y="479" type="curve" smooth="yes"/>
      <point x="152" y="438"/>
      <point x="158" y="398"/>
      <point x="163" y="358" type="curve"/>
      <point x="409" y="358" type="line"/>
      <point x="406" y="342" type="line"/>
      <point x="165" y="342" type="line"/>
      <point x="168" y="318"/>
      <point x="170" y="294"/>
      <point x="170" y="269" type="curve" smooth="yes"/>
      <point x="170" y="190"/>
      <point x="154" y="141"/>
      <point x="122" y="95" type="curve"/>
      <point x="209" y="94"/>
      <point x="288" y="11"/>
      <point x="385" y="11" type="curve" smooth="yes"/>
      <point x="447" y="11"/>
      <point x="499" y="56"/>
      <point x="509" y="137" type="curve"/>
      <point x="528" y="137" type="line"/>
      <point x="517" y="43"/>
      <point x="453" y="-6"/>
      <point x="385" y="-6" type="curve" smooth="yes"/>
      <point x="285" y="-6"/>
      <point x="201" y="78"/>
      <point x="121" y="78" type="curve" smooth="yes"/>
      <point x="72" y="78"/>
      <point x="35" y="47"/>
      <point x="24" y="0" type="curve"/>
      <point x="4" y="0" type="line"/>
      <point x="15" y="45"/>
      <point x="49" y="84"/>
      <point x="98" y="93" type="curve"/>
      <point x="136" y="142"/>
      <point x="151" y="194"/>
      <point x="151" y="269" type="curve" smooth="yes"/>
      <point x="151" y="294"/>
      <point x="149" y="318"/>
      <point x="146" y="342" type="curve"/>
    </contour>
  </outline>
</glyph>
<glyph name="yen" format="2">
  <advance width="516"/>
  <unicode hex="00A5"/>
  <outline>
    <contour>
      <point x="69" y="333" type="line"/>
      <point x="72" y="349" type="line"/>
      <point x="262" y="349" type="line"/>
      <point x="99" y="715" type="line"/>
      <point x="119" y="715" type="line"/>
      <point x="279" y="356" type="line"/>
      <point x="538" y="715" type="line"/>
      <point x="559" y="715" type="line"/>
      <point x="294" y="349" type="line"/>
      <point x="481" y="349" type="line"/>
      <point x="478" y="333" type="line"/>
      <point x="285" y="333" type="line"/>
      <point x="266" y="213" type="line"/>
      <point x="459" y="213" type="line"/>
      <point x="456" y="197" type="line"/>
      <point x="264" y="197" type="line"/>
      <point x="233" y="0" type="line"/>
      <point x="214" y="0" type="line"/>
      <point x="245" y="197" type="line"/>
      <point x="47" y="197" type="line"/>
      <point x="50" y="213" type="line"/>
      <point x="247" y="213" type="line"/>
      <point x="266" y="333" type="line"/>
    </contour>
  </outline>
</glyph>
<glyph name="brokenbar" format="2">
  <advance width="226"/>
  <unicode hex="00A6"/>
  <outline>
    <contour>
      <point x="114" y="-148" type="line"/>
      <point x="114" y="297" type="line"/>
      <point x="132" y="297" type="line"/>
      <point x="132" y="-148" type="line"/>
    </contour>
    <contour>
      <point x="114" y="367" type="line"/>
      <point x="114" y="776" type="line"/>
      <point x="132" y="776" type="line"/>
      <point x="132" y="367" type="line"/>
    </contour>
  </outline>
</glyph>
<glyph name="section" format="2">
  <advance width="530"/>
  <unicode hex="00A7"/>
  <outline>
    <contour>
      <point x="215" y="-137" type="curve" smooth="yes"/>
      <point x="124" y="-137"/>
      <point x="53" y="-90"/>
      <point x="43" y="4" type="curve"/>
      <point x="62" y="4" type="line"/>
      <point x="72" y="-77"/>
      <point x="132" y="-120"/>
      <point x="215" y="-120" type="curve" smooth="yes"/>
      <point x="299" y="-121"/>
      <point x="369" y="-69"/>
      <point x="369" y="17" type="curve" smooth="yes"/>
      <point x="369" y="84"/>
      <point x="328" y="123"/>
      <point x="226" y="161" type="curve" smooth="yes"/>
      <point x="121" y="200"/>
      <point x="61" y="242"/>
      <point x="61" y="319" type="curve" smooth="yes"/>
      <point x="61" y="408"/>
      <point x="146" y="442"/>
      <point x="230" y="458" type="curve"/>
      <point x="190" y="484"/>
      <point x="164" y="523"/>
      <point x="164" y="577" type="curve" smooth="yes"/>
      <point x="164" y="658"/>
      <point x="234" y="725"/>
      <point x="330" y="724" type="curve" smooth="yes"/>
      <point x="413" y="724"/>
      <point x="478" y="683"/>
      <point x="479" y="591" type="curve"/>
      <point x="461" y="591" type="line"/>
      <point x="461" y="665"/>
      <point x="409" y="707"/>
      <point x="330" y="707" type="curve" smooth="yes"/>
      <point x="249" y="708"/>
      <point x="183" y="656"/>
      <point x="183" y="578" type="curve" smooth="yes"/>
      <point x="183" y="520"/>
      <point x="211" y="475"/>
      <point x="320" y="432" type="curve" smooth="yes"/>
      <point x="422" y="391"/>
      <point x="479" y="350"/>
      <point x="479" y="272" type="curve" smooth="yes"/>
      <point x="479" y="192"/>
      <point x="405" y="150"/>
      <point x="319" y="136" type="curve"/>
      <point x="359" y="112"/>
      <point x="388" y="74"/>
      <point x="388" y="17" type="curve" smooth="yes"/>
      <point x="388" y="-72"/>
      <point x="315" y="-137"/>
    </contour>
    <contour>
      <point x="302" y="149" type="line"/>
      <point x="387" y="160"/>
      <point x="460" y="198"/>
      <point x="460" y="272" type="curve" smooth="yes"/>
      <point x="460" y="340"/>
      <point x="409" y="375"/>
      <point x="317" y="415" type="curve" smooth="yes"/>
      <point x="247" y="446" type="line"/>
      <point x="157" y="431"/>
      <point x="80" y="402"/>
      <point x="80" y="319" type="curve" smooth="yes"/>
      <point x="80" y="251"/>
      <point x="137" y="213"/>
      <point x="227" y="179" type="curve" smooth="yes"/>
    </contour>
  </outline>
</glyph>
<glyph name="dieresis" format="2">
  <advance width="400"/>
  <unicode hex="00A8"/>
  <outline>
    <contour>
      <point x="190" y="639" type="curve" smooth="yes"/>
      <point x="180" y="639"/>
      <point x="173" y="647"/>
      <point x="173" y="656" type="curve" smooth="yes"/>
      <point x="173" y="665"/>
      <point x="180" y="673"/>
      <point x="190" y="673" type="curve" smooth="yes"/>
      <point x="200" y="673"/>
      <point x="207" y="665"/>
      <point x="207" y="656" type="curve" smooth="yes"/>
      <point x="207" y="647"/>
      <point x="200" y="639"/>
    </contour>
    <contour>
      <point x="332" y="639" type="curve" smooth="yes"/>
      <point x="322" y="639"/>
      <point x="315" y="647"/>
      <point x="315" y="656" type="curve" smooth="yes"/>
      <point x="315" y="665"/>
      <point x="322" y="673"/>
      <point x="332" y="673" type="curve" smooth="yes"/>
      <point x="342" y="673"/>
      <point x="349" y="665"/>
      <point x="349" y="656" type="curve" smooth="yes"/>
      <point x="349" y="647"/>
      <point x="342" y="639"/>
    </contour>
  </outline>
</glyph>
<glyph name="copyright" format="2">
  <advance width="844"/>
  <unicode hex="00A9"/>
  <outline>
    <contour>
      <point x="437" y="146" type="curve" smooth="yes"/>
      <point x="317" y="146"/>
      <point x="239" y="234"/>
      <point x="239" y="360" type="curve" smooth="yes"/>
      <point x="239" y="366" type="line" smooth="yes"/>
      <point x="239" y="491"/>
      <point x="328" y="580"/>
      <point x="436" y="580" type="curve" smooth="yes"/>
      <point x="523" y="580"/>
      <point x="592" y="535"/>
      <point x="608" y="452" type="curve"/>
      <point x="590" y="452" type="line"/>
      <point x="574" y="523"/>
      <point x="519" y="564"/>
      <point x="436" y="564" type="curve" smooth="yes"/>
      <point x="335" y="564"/>
      <point x="257" y="482"/>
      <point x="257" y="366" type="curve" smooth="yes"/>
      <point x="257" y="360" type="line" smooth="yes"/>
      <point x="257" y="241"/>
      <point x="328" y="162"/>
      <point x="437" y="162" type="curve" smooth="yes"/>
      <point x="520" y="162"/>
      <point x="580" y="208"/>
      <point x="596" y="284" type="curve"/>
      <point x="613" y="284" type="line"/>
      <point x="597" y="198"/>
      <point x="526" y="146"/>
    </contour>
    <contour>
      <point x="433" y="6" type="curve" smooth="yes"/>
      <point x="630" y="6"/>
      <point x="784" y="159"/>
      <point x="784" y="359" type="curve" smooth="yes"/>
      <point x="784" y="554"/>
      <point x="634" y="709"/>
      <point x="435" y="709" type="curve" smooth="yes"/>
      <point x="238" y="709"/>
      <point x="84" y="553"/>
      <point x="84" y="357" type="curve" smooth="yes"/>
      <point x="84" y="158"/>
      <point x="239" y="6"/>
    </contour>
    <contour>
      <point x="433" y="-9" type="curve" smooth="yes"/>
      <point x="230" y="-9"/>
      <point x="67" y="150"/>
      <point x="67" y="357" type="curve" smooth="yes"/>
      <point x="67" y="561"/>
      <point x="229" y="724"/>
      <point x="435" y="724" type="curve" smooth="yes"/>
      <point x="643" y="724"/>
      <point x="801" y="562"/>
      <point x="801" y="359" type="curve" smooth="yes"/>
      <point x="801" y="151"/>
      <point x="639" y="-9"/>
    </contour>
  </outline>
</glyph>
<glyph name="ordfeminine" format="2">
  <advance width="417"/>
  <unicode hex="00AA"/>
  <outline>
    <contour>
      <point x="199" y="316" type="curve" smooth="yes"/>
      <point x="111" y="316"/>
      <point x="71" y="363"/>
      <point x="71" y="422" type="curve" smooth="yes"/>
      <point x="71" y="520"/>
      <point x="155" y="542"/>
      <point x="244" y="542" type="curve" smooth="yes"/>
      <point x="363" y="542" type="line"/>
      <point x="369" y="577" type="line" smooth="yes"/>
      <point x="380" y="657"/>
      <point x="351" y="705"/>
      <point x="261" y="705" type="curve" smooth="yes"/>
      <point x="200" y="705"/>
      <point x="150" y="678"/>
      <point x="129" y="609" type="curve"/>
      <point x="111" y="609" type="line"/>
      <point x="131" y="688"/>
      <point x="195" y="721"/>
      <point x="261" y="721" type="curve" smooth="yes"/>
      <point x="363" y="721"/>
      <point x="401" y="663"/>
      <point x="387" y="576" type="curve" smooth="yes"/>
      <point x="364" y="429" type="line" smooth="yes"/>
      <point x="356" y="376"/>
      <point x="355" y="344"/>
      <point x="354" y="321" type="curve"/>
      <point x="336" y="321" type="line"/>
      <point x="336" y="338"/>
      <point x="338" y="362"/>
      <point x="340" y="386" type="curve"/>
      <point x="317" y="349"/>
      <point x="268" y="316"/>
    </contour>
    <contour>
      <point x="201" y="332" type="curve" smooth="yes"/>
      <point x="274" y="332"/>
      <point x="337" y="377"/>
      <point x="347" y="439" type="curve" smooth="yes"/>
      <point x="361" y="526" type="line"/>
      <point x="243" y="526" type="line" smooth="yes"/>
      <point x="167" y="526"/>
      <point x="89" y="513"/>
      <point x="89" y="423" type="curve" smooth="yes"/>
      <point x="89" y="371"/>
      <point x="123" y="332"/>
    </contour>
  </outline>
</glyph>
<glyph name="guillemotleft" format="2">
  <advance width="387"/>
  <unicode hex="00AB"/>
  <outline>
    <contour>
      <point x="160" y="83" type="line"/>
      <point x="48" y="261" type="line"/>
      <point x="216" y="439" type="line"/>
      <point x="238" y="439" type="line"/>
      <point x="69" y="260" type="line"/>
      <point x="179" y="83" type="line"/>
    </contour>
    <contour>
      <point x="294" y="83" type="line"/>
      <point x="182" y="261" type="line"/>
      <point x="350" y="439" type="line"/>
      <point x="372" y="439" type="line"/>
      <point x="203" y="260" type="line"/>
      <point x="313" y="83" type="line"/>
    </contour>
  </outline>
</glyph>
<glyph name="registered" format="2">
  <advance width="514"/>
  <unicode hex="00AE"/>
  <outline>
    <contour>
      <point x="221" y="387" type="line"/>
      <point x="221" y="630" type="line"/>
      <point x="293" y="630" type="line" smooth="yes"/>
      <point x="342" y="630"/>
      <point x="376" y="607"/>
      <point x="376" y="563" type="curve" smooth="yes"/>
      <point x="376" y="562" type="line" smooth="yes"/>
      <point x="376" y="523"/>
      <point x="350" y="504"/>
      <point x="311" y="499" type="curve"/>
      <point x="389" y="387" type="line"/>
      <point x="369" y="387" type="line"/>
      <point x="291" y="498" type="line"/>
      <point x="238" y="498" type="line"/>
      <point x="238" y="387" type="line"/>
    </contour>
    <contour>
      <point x="238" y="513" type="line"/>
      <point x="294" y="513" type="line" smooth="yes"/>
      <point x="336" y="513"/>
      <point x="358" y="529"/>
      <point x="358" y="562" type="curve" smooth="yes"/>
      <point x="358" y="563" type="line" smooth="yes"/>
      <point x="358" y="598"/>
      <point x="335" y="614"/>
      <point x="294" y="614" type="curve" smooth="yes"/>
      <point x="238" y="614" type="line"/>
    </contour>
    <contour>
      <point x="293" y="297" type="curve" smooth="yes"/>
      <point x="408" y="297"/>
      <point x="498" y="386"/>
      <point x="498" y="503" type="curve" smooth="yes"/>
      <point x="498" y="618"/>
      <point x="410" y="709"/>
      <point x="293" y="709" type="curve" smooth="yes"/>
      <point x="178" y="709"/>
      <point x="88" y="617"/>
      <point x="88" y="502" type="curve" smooth="yes"/>
      <point x="88" y="385"/>
      <point x="179" y="297"/>
    </contour>
    <contour>
      <point x="293" y="282" type="curve" smooth="yes"/>
      <point x="170" y="282"/>
      <point x="71" y="377"/>
      <point x="71" y="502" type="curve" smooth="yes"/>
      <point x="71" y="625"/>
      <point x="169" y="724"/>
      <point x="293" y="724" type="curve" smooth="yes"/>
      <point x="419" y="724"/>
      <point x="515" y="626"/>
      <point x="515" y="503" type="curve" smooth="yes"/>
      <point x="515" y="378"/>
      <point x="417" y="282"/>
    </contour>
  </outline>
</glyph>
<glyph name="macron" format="2">
  <advance width="400"/>
  <unicode hex="00AF"/>
  <outline>
    <contour>
      <point x="150" y="646" type="line"/>
      <point x="153" y="663" type="line"/>
      <point x="372" y="663" type="line"/>
      <point x="369" y="646" type="line"/>
    </contour>
  </outline>
</glyph>
<glyph name="degree" format="2">
  <advance width="384"/>
  <unicode hex="00B0"/>
  <outline>
    <contour>
      <point x="238" y="468" type="curve" smooth="yes"/>
      <point x="310" y="469"/>
      <point x="363" y="523"/>
      <point x="363" y="594" type="curve" smooth="yes"/>
      <point x="363" y="657"/>
      <point x="313" y="708"/>
      <point x="245" y="708" type="curve" smooth="yes"/>
      <point x="178" y="708"/>
      <point x="119" y="655"/>
      <point x="119" y="583" type="curve" smooth="yes"/>
      <point x="119" y="520"/>
      <point x="169" y="468"/>
    </contour>
    <contour>
      <point x="238" y="452" type="curve" smooth="yes"/>
      <point x="161" y="452"/>
      <point x="101" y="511"/>
      <point x="101" y="583" type="curve" smooth="yes"/>
      <point x="101" y="658"/>
      <point x="166" y="724"/>
      <point x="245" y="724" type="curve" smooth="yes"/>
      <point x="321" y="724"/>
      <point x="381" y="666"/>
      <point x="381" y="594" type="curve" smooth="yes"/>
      <point x="381" y="516"/>
      <point x="318" y="452"/>
    </contour>
  </outline>
</glyph>
<glyph name="plusminus" format="2">
  <advance width="500"/>
  <unicode hex="00B1"/>
  <outline>
    <contour>
      <point x="217" y="115" type="line"/>
      <point x="251" y="334" type="line"/>
      <point x="47" y="334" type="line"/>
      <point x="50" y="350" type="line"/>
      <point x="254" y="350" type="line"/>
      <point x="289" y="569" type="line"/>
      <point x="307" y="569" type="line"/>
      <point x="272" y="350" type="line"/>
      <point x="476" y="350" type="line"/>
      <point x="473" y="334" type="line"/>
      <point x="269" y="334" type="line"/>
      <point x="235" y="115" type="line"/>
    </contour>
    <contour>
      <point x="-6" y="0" type="line"/>
      <point x="-3" y="16" type="line"/>
      <point x="423" y="16" type="line"/>
      <point x="420" y="0" type="line"/>
    </contour>
  </outline>
</glyph>
<glyph name="threesuperior" format="2">
  <advance width="305"/>
  <unicode hex="00B3"/>
  <outline>
    <contour>
      <point x="184" y="367" type="curve" smooth="yes"/>
      <point x="118" y="367"/>
      <point x="66" y="402"/>
      <point x="62" y="465" type="curve"/>
      <point x="80" y="465" type="line"/>
      <point x="84" y="414"/>
      <point x="124" y="383"/>
      <point x="184" y="383" type="curve" smooth="yes"/>
      <point x="238" y="383"/>
      <point x="283" y="411"/>
      <point x="283" y="470" type="curve" smooth="yes"/>
      <point x="283" y="508"/>
      <point x="256" y="543"/>
      <point x="203" y="543" type="curve" smooth="yes"/>
      <point x="179" y="543" type="line"/>
      <point x="182" y="559" type="line"/>
      <point x="211" y="559" type="line" smooth="yes"/>
      <point x="254" y="559"/>
      <point x="291" y="583"/>
      <point x="291" y="633" type="curve" smooth="yes"/>
      <point x="291" y="679"/>
      <point x="255" y="703"/>
      <point x="211" y="703" type="curve" smooth="yes"/>
      <point x="155" y="703"/>
      <point x="122" y="669"/>
      <point x="110" y="624" type="curve"/>
      <point x="93" y="624" type="line"/>
      <point x="105" y="678"/>
      <point x="147" y="718"/>
      <point x="211" y="718" type="curve" smooth="yes"/>
      <point x="261" y="718"/>
      <point x="309" y="690"/>
      <point x="309" y="633" type="curve" smooth="yes"/>
      <point x="309" y="590"/>
      <point x="284" y="561"/>
      <point x="241" y="550" type="curve"/>
      <point x="276" y="540"/>
      <point x="301" y="511"/>
      <point x="301" y="470" type="curve" smooth="yes"/>
      <point x="301" y="404"/>
      <point x="248" y="367"/>
    </contour>
  </outline>
</glyph>
<glyph name="paragraph" format="2">
  <advance width="526"/>
  <unicode hex="00B6"/>
  <outline>
    <contour>
      <point x="208" y="-100" type="line"/>
      <point x="281" y="361" type="line"/>
      <point x="276" y="361" type="line" smooth="yes"/>
      <point x="162" y="361"/>
      <point x="85" y="421"/>
      <point x="85" y="523" type="curve" smooth="yes"/>
      <point x="85" y="657"/>
      <point x="184" y="715"/>
      <point x="313" y="715" type="curve" smooth="yes"/>
      <point x="502" y="715" type="line"/>
      <point x="373" y="-100" type="line"/>
      <point x="355" y="-100" type="line"/>
      <point x="481" y="699" type="line"/>
      <point x="352" y="699" type="line"/>
      <point x="226" y="-100" type="line"/>
    </contour>
  </outline>
</glyph>
<glyph name="periodcentered" format="2">
  <advance width="166"/>
  <unicode hex="00B7"/>
  <outline>
    <contour>
      <point x="91" y="303" type="curve" smooth="yes"/>
      <point x="81" y="303"/>
      <point x="74" y="311"/>
      <point x="74" y="320" type="curve" smooth="yes"/>
      <point x="74" y="329"/>
      <point x="81" y="337"/>
      <point x="91" y="337" type="curve" smooth="yes"/>
      <point x="101" y="337"/>
      <point x="108" y="329"/>
      <point x="108" y="320" type="curve" smooth="yes"/>
      <point x="108" y="311"/>
      <point x="101" y="303"/>
    </contour>
  </outline>
</glyph>
<glyph name="cedilla" format="2">
  <advance width="400"/>
  <unicode hex="00B8"/>
  <outline>
    <contour>
      <point x="144" y="-210" type="curve" smooth="yes"/>
      <point x="94" y="-210"/>
      <point x="61" y="-183"/>
      <point x="58" y="-138" type="curve"/>
      <point x="77" y="-138" type="line"/>
      <point x="79" y="-173"/>
      <point x="103" y="-194"/>
      <point x="144" y="-194" type="curve" smooth="yes"/>
      <point x="176" y="-194"/>
      <point x="214" y="-179"/>
      <point x="214" y="-132" type="curve" smooth="yes"/>
      <point x="214" y="-94"/>
      <point x="188" y="-80"/>
      <point x="158" y="-80" type="curve" smooth="yes"/>
      <point x="136" y="-80"/>
      <point x="121" y="-87"/>
      <point x="112" y="-92" type="curve"/>
      <point x="104" y="-84" type="line"/>
      <point x="160" y="0" type="line"/>
      <point x="178" y="0" type="line"/>
      <point x="130" y="-71" type="line"/>
      <point x="179" y="-53"/>
      <point x="231" y="-76"/>
      <point x="231" y="-132" type="curve" smooth="yes"/>
      <point x="231" y="-180"/>
      <point x="194" y="-210"/>
    </contour>
  </outline>
</glyph>
<glyph name="ordmasculine" format="2">
  <advance width="454"/>
  <unicode hex="00BA"/>
  <outline>
    <contour>
      <point x="250" y="316" type="curve" smooth="yes"/>
      <point x="147" y="316"/>
      <point x="79" y="395"/>
      <point x="79" y="494" type="curve" smooth="yes"/>
      <point x="79" y="614"/>
      <point x="155" y="720"/>
      <point x="285" y="720" type="curve" smooth="yes"/>
      <point x="392" y="720"/>
      <point x="453" y="636"/>
      <point x="453" y="542" type="curve" smooth="yes"/>
      <point x="453" y="415"/>
      <point x="376" y="316"/>
    </contour>
    <contour>
      <point x="250" y="332" type="curve" smooth="yes"/>
      <point x="364" y="332"/>
      <point x="434" y="424"/>
      <point x="434" y="542" type="curve" smooth="yes"/>
      <point x="434" y="628"/>
      <point x="381" y="704"/>
      <point x="284" y="704" type="curve" smooth="yes"/>
      <point x="166" y="704"/>
      <point x="98" y="606"/>
      <point x="98" y="494" type="curve" smooth="yes"/>
      <point x="98" y="407"/>
      <point x="155" y="332"/>
    </contour>
  </outline>
</glyph>
<glyph name="guillemotright" format="2">
  <advance width="387"/>
  <unicode hex="00BB"/>
  <outline>
    <contour>
      <point x="225" y="439" type="line"/>
      <point x="337" y="260" type="line"/>
      <point x="169" y="83" type="line"/>
      <point x="147" y="83" type="line"/>
      <point x="316" y="262" type="line"/>
      <point x="206" y="439" type="line"/>
    </contour>
    <contour>
      <point x="91" y="439" type="line"/>
      <point x="203" y="260" type="line"/>
      <point x="35" y="83" type="line"/>
      <point x="13" y="83" type="line"/>
      <point x="182" y="262" type="line"/>
      <point x="72" y="439" type="line"/>
    </contour>
  </outline>
</glyph>
<glyph name="onequarter" format="2">
  <advance width="659"/>
  <unicode hex="00BC"/>
  <outline>
    <contour>
      <point x="132" y="370" type="line"/>
      <point x="183" y="689" type="line"/>
      <point x="77" y="621" type="line"/>
      <point x="80" y="641" type="line"/>
      <point x="195" y="715" type="line"/>
      <point x="205" y="715" type="line"/>
      <point x="150" y="370" type="line"/>
    </contour>
    <contour>
      <point x="33" y="0" type="line"/>
      <point x="621" y="715" type="line"/>
      <point x="642" y="715" type="line"/>
      <point x="54" y="0" type="line"/>
    </contour>
    <contour>
      <point x="518" y="0" type="line"/>
      <point x="531" y="80" type="line"/>
      <point x="344" y="80" type="line"/>
      <point x="345" y="86" type="line"/>
      <point x="562" y="345" type="line"/>
      <point x="591" y="345" type="line"/>
      <point x="551" y="96" type="line"/>
      <point x="600" y="96" type="line"/>
      <point x="597" y="80" type="line"/>
      <point x="549" y="80" type="line"/>
      <point x="536" y="0" type="line"/>
    </contour>
    <contour>
      <point x="374" y="96" type="line"/>
      <point x="533" y="96" type="line"/>
      <point x="571" y="331" type="line"/>
    </contour>
  </outline>
</glyph>
<glyph name="onehalf" format="2">
  <advance width="659"/>
  <unicode hex="00BD"/>
  <outline>
    <contour>
      <point x="132" y="370" type="line"/>
      <point x="183" y="689" type="line"/>
      <point x="77" y="621" type="line"/>
      <point x="80" y="641" type="line"/>
      <point x="195" y="715" type="line"/>
      <point x="205" y="715" type="line"/>
      <point x="150" y="370" type="line"/>
    </contour>
    <contour>
      <point x="2" y="0" type="line"/>
      <point x="590" y="715" type="line"/>
      <point x="611" y="715" type="line"/>
      <point x="23" y="0" type="line"/>
    </contour>
    <contour>
      <point x="350" y="0" type="line"/>
      <point x="351" y="7" type="line"/>
      <point x="502" y="129" type="line" smooth="yes"/>
      <point x="551" y="168"/>
      <point x="594" y="203"/>
      <point x="594" y="260" type="curve" smooth="yes"/>
      <point x="594" y="301"/>
      <point x="565" y="333"/>
      <point x="517" y="333" type="curve" smooth="yes"/>
      <point x="464" y="333"/>
      <point x="425" y="301"/>
      <point x="411" y="241" type="curve"/>
      <point x="394" y="241" type="line"/>
      <point x="407" y="311"/>
      <point x="458" y="348"/>
      <point x="517" y="348" type="curve" smooth="yes"/>
      <point x="576" y="348"/>
      <point x="612" y="311"/>
      <point x="612" y="260" type="curve" smooth="yes"/>
      <point x="612" y="196"/>
      <point x="566" y="160"/>
      <point x="513" y="117" type="curve" smooth="yes"/>
      <point x="388" y="16" type="line"/>
      <point x="583" y="16" type="line"/>
      <point x="580" y="0" type="line"/>
    </contour>
  </outline>
</glyph>
<glyph name="threequarters" format="2">
  <advance width="687"/>
  <unicode hex="00BE"/>
  <outline>
    <contour>
      <point x="187" y="367" type="curve" smooth="yes"/>
      <point x="121" y="367"/>
      <point x="69" y="402"/>
      <point x="65" y="465" type="curve"/>
      <point x="83" y="465" type="line"/>
      <point x="87" y="414"/>
      <point x="127" y="383"/>
      <point x="187" y="383" type="curve" smooth="yes"/>
      <point x="241" y="383"/>
      <point x="286" y="411"/>
      <point x="286" y="470" type="curve" smooth="yes"/>
      <point x="286" y="508"/>
      <point x="259" y="543"/>
      <point x="206" y="543" type="curve" smooth="yes"/>
      <point x="182" y="543" type="line"/>
      <point x="185" y="559" type="line"/>
      <point x="214" y="559" type="line" smooth="yes"/>
      <point x="257" y="559"/>
      <point x="294" y="583"/>
      <point x="294" y="633" type="curve" smooth="yes"/>
      <point x="294" y="679"/>
      <point x="258" y="703"/>
      <point x="214" y="703" type="curve" smooth="yes"/>
      <point x="158" y="703"/>
      <point x="125" y="669"/>
      <point x="113" y="624" type="curve"/>
      <point x="96" y="624" type="line"/>
      <point x="108" y="678"/>
      <point x="150" y="718"/>
      <point x="214" y="718" type="curve" smooth="yes"/>
      <point x="264" y="718"/>
      <point x="312" y="690"/>
      <point x="312" y="633" type="curve" smooth="yes"/>
      <point x="312" y="590"/>
      <point x="287" y="561"/>
      <point x="244" y="550" type="curve"/>
      <point x="279" y="540"/>
      <point x="304" y="511"/>
      <point x="304" y="470" type="curve" smooth="yes"/>
      <point x="304" y="404"/>
      <point x="251" y="367"/>
    </contour>
    <contour>
      <point x="88" y="0" type="line"/>
      <point x="676" y="715" type="line"/>
      <point x="697" y="715" type="line"/>
      <point x="109" y="0" type="line"/>
    </contour>
    <contour>
      <point x="546" y="0" type="line"/>
      <point x="559" y="80" type="line"/>
      <point x="372" y="80" type="line"/>
      <point x="373" y="86" type="line"/>
      <point x="590" y="345" type="line"/>
      <point x="619" y="345" type="line"/>
      <point x="579" y="96" type="line"/>
      <point x="628" y="96" type="line"/>
      <point x="625" y="80" type="line"/>
      <point x="577" y="80" type="line"/>
      <point x="564" y="0" type="line"/>
    </contour>
    <contour>
      <point x="402" y="96" type="line"/>
      <point x="561" y="96" type="line"/>
      <point x="599" y="331" type="line"/>
    </contour>
  </outline>
</glyph>
<glyph name="questiondown" format="2">
  <advance width="462"/>
  <unicode hex="00BF"/>
  <outline>
    <contour>
      <point x="292" y="446" type="line"/>
      <point x="281" y="374" type="line" smooth="yes"/>
      <point x="269" y="293"/>
      <point x="229" y="258"/>
      <point x="157" y="201" type="curve" smooth="yes"/>
      <point x="89" y="147"/>
      <point x="28" y="110"/>
      <point x="28" y="16" type="curve" smooth="yes"/>
      <point x="28" y="-72"/>
      <point x="103" y="-106"/>
      <point x="177" y="-106" type="curve" smooth="yes"/>
      <point x="278" y="-106"/>
      <point x="350" y="-48"/>
      <point x="372" y="66" type="curve"/>
      <point x="390" y="66" type="line"/>
      <point x="371" y="-55"/>
      <point x="287" y="-123"/>
      <point x="177" y="-123" type="curve" smooth="yes"/>
      <point x="95" y="-123"/>
      <point x="9" y="-84"/>
      <point x="9" y="16" type="curve" smooth="yes"/>
      <point x="9" y="120"/>
      <point x="78" y="158"/>
      <point x="147" y="214" type="curve" smooth="yes"/>
      <point x="215" y="269"/>
      <point x="251" y="299"/>
      <point x="263" y="376" type="curve" smooth="yes"/>
      <point x="274" y="446" type="line"/>
    </contour>
    <contour>
      <point x="306" y="603" type="curve" smooth="yes"/>
      <point x="316" y="603"/>
      <point x="323" y="595"/>
      <point x="323" y="586" type="curve" smooth="yes"/>
      <point x="323" y="577"/>
      <point x="316" y="569"/>
      <point x="306" y="569" type="curve" smooth="yes"/>
      <point x="296" y="569"/>
      <point x="289" y="577"/>
      <point x="289" y="586" type="curve" smooth="yes"/>
      <point x="289" y="595"/>
      <point x="296" y="603"/>
    </contour>
  </outline>
</glyph>
<glyph name="Agrave" format="2">
  <advance width="630"/>
  <unicode hex="00C0"/>
  <outline>
    <contour>
      <point x="540" y="0" type="line"/>
      <point x="486" y="235" type="line"/>
      <point x="131" y="235" type="line"/>
      <point x="7" y="0" type="line"/>
      <point x="-12" y="0" type="line"/>
      <point x="368" y="715" type="line"/>
      <point x="394" y="715" type="line"/>
      <point x="558" y="0" type="line"/>
    </contour>
    <contour>
      <point x="379" y="701" type="line"/>
      <point x="140" y="252" type="line"/>
      <point x="482" y="252" type="line"/>
    </contour>
    <contour>
      <point x="383" y="771" type="line"/>
      <point x="319" y="888" type="line"/>
      <point x="340" y="888" type="line"/>
      <point x="401" y="771" type="line"/>
    </contour>
  </outline>
</glyph>
<glyph name="Acircumflex" format="2">
  <advance width="630"/>
  <unicode hex="00C2"/>
  <outline>
    <contour>
      <point x="540" y="0" type="line"/>
      <point x="486" y="235" type="line"/>
      <point x="131" y="235" type="line"/>
      <point x="7" y="0" type="line"/>
      <point x="-12" y="0" type="line"/>
      <point x="368" y="715" type="line"/>
      <point x="394" y="715" type="line"/>
      <point x="558" y="0" type="line"/>
    </contour>
    <contour>
      <point x="379" y="701" type="line"/>
      <point x="140" y="252" type="line"/>
      <point x="482" y="252" type="line"/>
    </contour>
    <contour>
      <point x="260" y="771" type="line"/>
      <point x="387" y="888" type="line"/>
      <point x="407" y="888" type="line"/>
      <point x="504" y="771" type="line"/>
      <point x="485" y="771" type="line"/>
      <point x="396" y="873" type="line"/>
      <point x="281" y="771" type="line"/>
    </contour>
  </outline>
</glyph>
<glyph name="Atilde" format="2">
  <advance width="630"/>
  <unicode hex="00C3"/>
  <outline>
    <contour>
      <point x="540" y="0" type="line"/>
      <point x="486" y="235" type="line"/>
      <point x="131" y="235" type="line"/>
      <point x="7" y="0" type="line"/>
      <point x="-12" y="0" type="line"/>
      <point x="368" y="715" type="line"/>
      <point x="394" y="715" type="line"/>
      <point x="558" y="0" type="line"/>
    </contour>
    <contour>
      <point x="379" y="701" type="line"/>
      <point x="140" y="252" type="line"/>
      <point x="482" y="252" type="line"/>
    </contour>
    <contour>
      <point x="455" y="774" type="curve" smooth="yes"/>
      <point x="404" y="774"/>
      <point x="361" y="838"/>
      <point x="319" y="838" type="curve" smooth="yes"/>
      <point x="294" y="838"/>
      <point x="269" y="818"/>
      <point x="260" y="775" type="curve"/>
      <point x="243" y="775" type="line"/>
      <point x="254" y="829"/>
      <point x="284" y="854"/>
      <point x="320" y="854" type="curve" smooth="yes"/>
      <point x="369" y="854"/>
      <point x="413" y="790"/>
      <point x="456" y="790" type="curve" smooth="yes"/>
      <point x="480" y="790"/>
      <point x="505" y="810"/>
      <point x="514" y="853" type="curve"/>
      <point x="531" y="853" type="line"/>
      <point x="520" y="800"/>
      <point x="490" y="774"/>
    </contour>
  </outline>
</glyph>
<glyph name="Adieresis" format="2">
  <advance width="630"/>
  <unicode hex="00C4"/>
  <outline>
    <contour>
      <point x="540" y="0" type="line"/>
      <point x="486" y="235" type="line"/>
      <point x="131" y="235" type="line"/>
      <point x="7" y="0" type="line"/>
      <point x="-12" y="0" type="line"/>
      <point x="368" y="715" type="line"/>
      <point x="394" y="715" type="line"/>
      <point x="558" y="0" type="line"/>
    </contour>
    <contour>
      <point x="379" y="701" type="line"/>
      <point x="140" y="252" type="line"/>
      <point x="482" y="252" type="line"/>
    </contour>
    <contour>
      <point x="310" y="787" type="curve" smooth="yes"/>
      <point x="300" y="787"/>
      <point x="293" y="795"/>
      <point x="293" y="804" type="curve" smooth="yes"/>
      <point x="293" y="813"/>
      <point x="300" y="821"/>
      <point x="310" y="821" type="curve" smooth="yes"/>
      <point x="320" y="821"/>
      <point x="327" y="813"/>
      <point x="327" y="804" type="curve" smooth="yes"/>
      <point x="327" y="795"/>
      <point x="320" y="787"/>
    </contour>
    <contour>
      <point x="464" y="787" type="curve" smooth="yes"/>
      <point x="454" y="787"/>
      <point x="447" y="795"/>
      <point x="447" y="804" type="curve" smooth="yes"/>
      <point x="447" y="813"/>
      <point x="454" y="821"/>
      <point x="464" y="821" type="curve" smooth="yes"/>
      <point x="474" y="821"/>
      <point x="481" y="813"/>
      <point x="481" y="804" type="curve" smooth="yes"/>
      <point x="481" y="795"/>
      <point x="474" y="787"/>
    </contour>
  </outline>
</glyph>
<glyph name="Aring" format="2">
  <advance width="630"/>
  <unicode hex="00C5"/>
  <outline>
    <contour>
      <point x="540" y="0" type="line"/>
      <point x="486" y="235" type="line"/>
      <point x="131" y="235" type="line"/>
      <point x="7" y="0" type="line"/>
      <point x="-12" y="0" type="line"/>
      <point x="368" y="715" type="line"/>
      <point x="394" y="715" type="line"/>
      <point x="558" y="0" type="line"/>
    </contour>
    <contour>
      <point x="379" y="701" type="line"/>
      <point x="140" y="252" type="line"/>
      <point x="482" y="252" type="line"/>
    </contour>
    <contour>
      <point x="387" y="749" type="curve" smooth="yes"/>
      <point x="338" y="749"/>
      <point x="301" y="788"/>
      <point x="301" y="832" type="curve" smooth="yes"/>
      <point x="301" y="880"/>
      <point x="341" y="920"/>
      <point x="390" y="920" type="curve" smooth="yes"/>
      <point x="441" y="920"/>
      <point x="476" y="882"/>
      <point x="476" y="837" type="curve" smooth="yes"/>
      <point x="476" y="787"/>
      <point x="438" y="749"/>
    </contour>
    <contour>
      <point x="387" y="764" type="curve" smooth="yes"/>
      <point x="429" y="764"/>
      <point x="459" y="794"/>
      <point x="459" y="837" type="curve" smooth="yes"/>
      <point x="459" y="876"/>
      <point x="432" y="905"/>
      <point x="390" y="905" type="curve" smooth="yes"/>
      <point x="350" y="905"/>
      <point x="318" y="874"/>
      <point x="318" y="832" type="curve" smooth="yes"/>
      <point x="318" y="795"/>
      <point x="347" y="764"/>
    </contour>
  </outline>
</glyph>
<glyph name="AE" format="2">
  <advance width="941"/>
  <unicode hex="00C6"/>
  <outline>
    <contour>
      <point x="-14" y="0" type="line"/>
      <point x="454" y="715" type="line"/>
      <point x="938" y="715" type="line"/>
      <point x="935" y="698" type="line"/>
      <point x="557" y="698" type="line"/>
      <point x="506" y="378" type="line"/>
      <point x="820" y="378" type="line"/>
      <point x="817" y="361" type="line"/>
      <point x="504" y="361" type="line"/>
      <point x="449" y="17" type="line"/>
      <point x="852" y="17" type="line"/>
      <point x="849" y="0" type="line"/>
      <point x="428" y="0" type="line"/>
      <point x="465" y="235" type="line"/>
      <point x="162" y="235" type="line"/>
      <point x="8" y="0" type="line"/>
    </contour>
    <contour>
      <point x="465" y="698" type="line"/>
      <point x="173" y="252" type="line"/>
      <point x="467" y="252" type="line"/>
      <point x="538" y="698" type="line"/>
    </contour>
  </outline>
</glyph>
<glyph name="Ccedilla" format="2">
  <advance width="722"/>
  <unicode hex="00C7"/>
  <outline>
    <contour>
      <point x="296" y="-210" type="curve" smooth="yes"/>
      <point x="246" y="-210"/>
      <point x="213" y="-183"/>
      <point x="210" y="-138" type="curve"/>
      <point x="229" y="-138" type="line"/>
      <point x="231" y="-173"/>
      <point x="255" y="-194"/>
      <point x="296" y="-194" type="curve" smooth="yes"/>
      <point x="328" y="-194"/>
      <point x="366" y="-179"/>
      <point x="366" y="-132" type="curve" smooth="yes"/>
      <point x="366" y="-94"/>
      <point x="340" y="-80"/>
      <point x="310" y="-80" type="curve" smooth="yes"/>
      <point x="288" y="-80"/>
      <point x="273" y="-87"/>
      <point x="264" y="-92" type="curve"/>
      <point x="256" y="-84" type="line"/>
      <point x="310" y="-2" type="line"/>
      <point x="153" y="19"/>
      <point x="56" y="135"/>
      <point x="56" y="315" type="curve" smooth="yes"/>
      <point x="56" y="532"/>
      <point x="199" y="721"/>
      <point x="431" y="721" type="curve" smooth="yes"/>
      <point x="560" y="721"/>
      <point x="675" y="645"/>
      <point x="695" y="510" type="curve"/>
      <point x="678" y="510" type="line"/>
      <point x="655" y="633"/>
      <point x="554" y="704"/>
      <point x="431" y="704" type="curve" smooth="yes"/>
      <point x="209" y="704"/>
      <point x="76" y="525"/>
      <point x="76" y="315" type="curve" smooth="yes"/>
      <point x="76" y="126"/>
      <point x="187" y="11"/>
      <point x="366" y="11" type="curve" smooth="yes"/>
      <point x="502" y="11"/>
      <point x="612" y="85"/>
      <point x="658" y="221" type="curve"/>
      <point x="676" y="221" type="line"/>
      <point x="631" y="73"/>
      <point x="508" y="-6"/>
      <point x="366" y="-6" type="curve" smooth="yes"/>
      <point x="351" y="-6"/>
      <point x="337" y="-5"/>
      <point x="327" y="-4" type="curve"/>
      <point x="282" y="-71" type="line"/>
      <point x="331" y="-53"/>
      <point x="383" y="-76"/>
      <point x="383" y="-132" type="curve" smooth="yes"/>
      <point x="383" y="-180"/>
      <point x="346" y="-210"/>
    </contour>
  </outline>
</glyph>
<glyph name="Edieresis" format="2">
  <advance width="566"/>
  <unicode hex="00CB"/>
  <outline>
    <contour>
      <point x="53" y="0" type="line"/>
      <point x="166" y="715" type="line"/>
      <point x="563" y="715" type="line"/>
      <point x="560" y="698" type="line"/>
      <point x="182" y="698" type="line"/>
      <point x="131" y="378" type="line"/>
      <point x="445" y="378" type="line"/>
      <point x="442" y="361" type="line"/>
      <point x="129" y="361" type="line"/>
      <point x="74" y="17" type="line"/>
      <point x="478" y="17" type="line"/>
      <point x="474" y="0" type="line"/>
    </contour>
    <contour>
      <point x="291" y="787" type="curve" smooth="yes"/>
      <point x="281" y="787"/>
      <point x="274" y="795"/>
      <point x="274" y="804" type="curve" smooth="yes"/>
      <point x="274" y="813"/>
      <point x="281" y="821"/>
      <point x="291" y="821" type="curve" smooth="yes"/>
      <point x="301" y="821"/>
      <point x="308" y="813"/>
      <point x="308" y="804" type="curve" smooth="yes"/>
      <point x="308" y="795"/>
      <point x="301" y="787"/>
    </contour>
    <contour>
      <point x="445" y="787" type="curve" smooth="yes"/>
      <point x="435" y="787"/>
      <point x="428" y="795"/>
      <point x="428" y="804" type="curve" smooth="yes"/>
      <point x="428" y="813"/>
      <point x="435" y="821"/>
      <point x="445" y="821" type="curve" smooth="yes"/>
      <point x="455" y="821"/>
      <point x="462" y="813"/>
      <point x="462" y="804" type="curve" smooth="yes"/>
      <point x="462" y="795"/>
      <point x="455" y="787"/>
    </contour>
  </outline>
</glyph>
<glyph name="Icircumflex" format="2">
  <advance width="219"/>
  <unicode hex="00CE"/>
  <outline>
    <contour>
      <point x="58" y="0" type="line"/>
      <point x="171" y="715" type="line"/>
      <point x="190" y="715" type="line"/>
      <point x="77" y="0" type="line"/>
    </contour>
    <contour>
      <point x="67" y="771" type="line"/>
      <point x="194" y="888" type="line"/>
      <point x="214" y="888" type="line"/>
      <point x="311" y="771" type="line"/>
      <point x="292" y="771" type="line"/>
      <point x="203" y="873" type="line"/>
      <point x="88" y="771" type="line"/>
    </contour>
  </outline>
</glyph>
<glyph name="Idieresis" format="2">
  <advance width="219"/>
  <unicode hex="00CF"/>
  <outline>
    <contour>
      <point x="58" y="0" type="line"/>
      <point x="171" y="715" type="line"/>
      <point x="190" y="715" type="line"/>
      <point x="77" y="0" type="line"/>
    </contour>
    <contour>
      <point x="116" y="787" type="curve" smooth="yes"/>
      <point x="106" y="787"/>
      <point x="99" y="795"/>
      <point x="99" y="804" type="curve" smooth="yes"/>
      <point x="99" y="813"/>
      <point x="106" y="821"/>
      <point x="116" y="821" type="curve" smooth="yes"/>
      <point x="126" y="821"/>
      <point x="133" y="813"/>
      <point x="133" y="804" type="curve" smooth="yes"/>
      <point x="133" y="795"/>
      <point x="126" y="787"/>
    </contour>
    <contour>
      <point x="270" y="787" type="curve" smooth="yes"/>
      <point x="260" y="787"/>
      <point x="253" y="795"/>
      <point x="253" y="804" type="curve" smooth="yes"/>
      <point x="253" y="813"/>
      <point x="260" y="821"/>
      <point x="270" y="821" type="curve" smooth="yes"/>
      <point x="280" y="821"/>
      <point x="287" y="813"/>
      <point x="287" y="804" type="curve" smooth="yes"/>
      <point x="287" y="795"/>
      <point x="280" y="787"/>
    </contour>
  </outline>
</glyph>
<glyph name="Eth" format="2">
  <advance width="677"/>
  <unicode hex="00D0"/>
  <outline>
    <contour>
      <point x="34" y="352" type="line"/>
      <point x="37" y="369" type="line"/>
      <point x="111" y="369" type="line"/>
      <point x="166" y="715" type="line"/>
      <point x="337" y="715" type="line" smooth="yes"/>
      <point x="547" y="715"/>
      <point x="649" y="583"/>
      <point x="649" y="411" type="curve" smooth="yes"/>
      <point x="649" y="150"/>
      <point x="488" y="0"/>
      <point x="243" y="0" type="curve" smooth="yes"/>
      <point x="53" y="0" type="line"/>
      <point x="108" y="352" type="line"/>
    </contour>
    <contour>
      <point x="74" y="17" type="line"/>
      <point x="243" y="17" type="line" smooth="yes"/>
      <point x="480" y="17"/>
      <point x="630" y="163"/>
      <point x="630" y="411" type="curve" smooth="yes"/>
      <point x="630" y="572"/>
      <point x="539" y="698"/>
      <point x="337" y="698" type="curve" smooth="yes"/>
      <point x="182" y="698" type="line"/>
      <point x="130" y="369" type="line"/>
      <point x="340" y="369" type="line"/>
      <point x="337" y="352" type="line"/>
      <point x="127" y="352" type="line"/>
    </contour>
  </outline>
</glyph>
<glyph name="Ntilde" format="2">
  <advance width="701"/>
  <unicode hex="00D1"/>
  <outline>
    <contour>
      <point x="53" y="0" type="line"/>
      <point x="166" y="715" type="line"/>
      <point x="195" y="715" type="line"/>
      <point x="548" y="22" type="line"/>
      <point x="658" y="715" type="line"/>
      <point x="677" y="715" type="line"/>
      <point x="564" y="0" type="line"/>
      <point x="539" y="0" type="line"/>
      <point x="182" y="700" type="line"/>
      <point x="72" y="0" type="line"/>
    </contour>
    <contour>
      <point x="507" y="774" type="curve" smooth="yes"/>
      <point x="456" y="774"/>
      <point x="413" y="838"/>
      <point x="371" y="838" type="curve" smooth="yes"/>
      <point x="346" y="838"/>
      <point x="321" y="818"/>
      <point x="312" y="775" type="curve"/>
      <point x="295" y="775" type="line"/>
      <point x="306" y="829"/>
      <point x="336" y="854"/>
      <point x="372" y="854" type="curve" smooth="yes"/>
      <point x="421" y="854"/>
      <point x="465" y="790"/>
      <point x="508" y="790" type="curve" smooth="yes"/>
      <point x="532" y="790"/>
      <point x="557" y="810"/>
      <point x="566" y="853" type="curve"/>
      <point x="583" y="853" type="line"/>
      <point x="572" y="800"/>
      <point x="542" y="774"/>
    </contour>
  </outline>
</glyph>
<glyph name="Ograve" format="2">
  <advance width="780"/>
  <unicode hex="00D2"/>
  <outline>
    <contour>
      <point x="752" y="389" type="curve" smooth="yes"/>
      <point x="752" y="185"/>
      <point x="604" y="-6"/>
      <point x="380" y="-6" type="curve" smooth="yes"/>
      <point x="178" y="-6"/>
      <point x="56" y="139"/>
      <point x="56" y="331" type="curve" smooth="yes"/>
      <point x="56" y="535"/>
      <point x="207" y="721"/>
      <point x="430" y="721" type="curve" smooth="yes"/>
      <point x="622" y="721"/>
      <point x="752" y="577"/>
    </contour>
    <contour>
      <point x="733" y="389" type="curve" smooth="yes"/>
      <point x="734" y="558"/>
      <point x="621" y="704"/>
      <point x="430" y="704" type="curve" smooth="yes"/>
      <point x="219" y="704"/>
      <point x="78" y="531"/>
      <point x="75" y="331" type="curve" smooth="yes"/>
      <point x="72" y="157"/>
      <point x="186" y="11"/>
      <point x="380" y="11" type="curve" smooth="yes"/>
      <point x="592" y="11"/>
      <point x="732" y="190"/>
    </contour>
    <contour>
      <point x="440" y="771" type="line"/>
      <point x="376" y="888" type="line"/>
      <point x="397" y="888" type="line"/>
      <point x="458" y="771" type="line"/>
    </contour>
  </outline>
</glyph>
<glyph name="Otilde" format="2">
  <advance width="780"/>
  <unicode hex="00D5"/>
  <outline>
    <contour>
      <point x="752" y="389" type="curve" smooth="yes"/>
      <point x="752" y="185"/>
      <point x="604" y="-6"/>
      <point x="380" y="-6" type="curve" smooth="yes"/>
      <point x="178" y="-6"/>
      <point x="56" y="139"/>
      <point x="56" y="331" type="curve" smooth="yes"/>
      <point x="56" y="535"/>
      <point x="207" y="721"/>
      <point x="430" y="721" type="curve" smooth="yes"/>
      <point x="622" y="721"/>
      <point x="752" y="577"/>
    </contour>
    <contour>
      <point x="733" y="389" type="curve" smooth="yes"/>
      <point x="734" y="558"/>
      <point x="621" y="704"/>
      <point x="430" y="704" type="curve" smooth="yes"/>
      <point x="219" y="704"/>
      <point x="78" y="531"/>
      <point x="75" y="331" type="curve" smooth="yes"/>
      <point x="72" y="157"/>
      <point x="186" y="11"/>
      <point x="380" y="11" type="curve" smooth="yes"/>
      <point x="592" y="11"/>
      <point x="732" y="190"/>
    </contour>
    <contour>
      <point x="512" y="774" type="curve" smooth="yes"/>
      <point x="461" y="774"/>
      <point x="418" y="838"/>
      <point x="376" y="838" type="curve" smooth="yes"/>
      <point x="351" y="838"/>
      <point x="326" y="818"/>
      <point x="317" y="775" type="curve"/>
      <point x="300" y="775" type="line"/>
      <point x="311" y="829"/>
      <point x="341" y="854"/>
      <point x="377" y="854" type="curve" smooth="yes"/>
      <point x="426" y="854"/>
      <point x="470" y="790"/>
      <point x="513" y="790" type="curve" smooth="yes"/>
      <point x="537" y="790"/>
      <point x="562" y="810"/>
      <point x="571" y="853" type="curve"/>
      <point x="588" y="853" type="line"/>
      <point x="577" y="800"/>
      <point x="547" y="774"/>
    </contour>
  </outline>
</glyph>
<glyph name="Odieresis" format="2">
  <advance width="780"/>
  <unicode hex="00D6"/>
  <outline>
    <contour>
      <point x="752" y="389" type="curve" smooth="yes"/>
      <point x="752" y="185"/>
      <point x="604" y="-6"/>
      <point x="380" y="-6" type="curve" smooth="yes"/>
      <point x="178" y="-6"/>
      <point x="56" y="139"/>
      <point x="56" y="331" type="curve" smooth="yes"/>
      <point x="56" y="535"/>
      <point x="207" y="721"/>
      <point x="430" y="721" type="curve" smooth="yes"/>
      <point x="622" y="721"/>
      <point x="752" y="577"/>
    </contour>
    <contour>
      <point x="733" y="389" type="curve" smooth="yes"/>
      <point x="734" y="558"/>
      <point x="621" y="704"/>
      <point x="430" y="704" type="curve" smooth="yes"/>
      <point x="219" y="704"/>
      <point x="78" y="531"/>
      <point x="75" y="331" type="curve" smooth="yes"/>
      <point x="72" y="157"/>
      <point x="186" y="11"/>
      <point x="380" y="11" type="curve" smooth="yes"/>
      <point x="592" y="11"/>
      <point x="732" y="190"/>
    </contour>
    <contour>
      <point x="366" y="787" type="curve" smooth="yes"/>
      <point x="356" y="787"/>
      <point x="349" y="795"/>
      <point x="349" y="804" type="curve" smooth="yes"/>
      <point x="349" y="813"/>
      <point x="356" y="821"/>
      <point x="366" y="821" type="curve" smooth="yes"/>
      <point x="376" y="821"/>
      <point x="383" y="813"/>
      <point x="383" y="804" type="curve" smooth="yes"/>
      <point x="383" y="795"/>
      <point x="376" y="787"/>
    </contour>
    <contour>
      <point x="520" y="787" type="curve" smooth="yes"/>
      <point x="510" y="787"/>
      <point x="503" y="795"/>
      <point x="503" y="804" type="curve" smooth="yes"/>
      <point x="503" y="813"/>
      <point x="510" y="821"/>
      <point x="520" y="821" type="curve" smooth="yes"/>
      <point x="530" y="821"/>
      <point x="537" y="813"/>
      <point x="537" y="804" type="curve" smooth="yes"/>
      <point x="537" y="795"/>
      <point x="530" y="787"/>
    </contour>
  </outline>
</glyph>
<glyph name="multiply" format="2">
  <advance width="500"/>
  <unicode hex="00D7"/>
  <outline>
    <contour>
      <point x="60" y="156" type="line"/>
      <point x="49" y="169" type="line"/>
      <point x="238" y="337" type="line"/>
      <point x="92" y="505" type="line"/>
      <point x="105" y="517" type="line"/>
      <point x="251" y="349" type="line"/>
      <point x="441" y="517" type="line"/>
      <point x="452" y="504" type="line"/>
      <point x="263" y="336" type="line"/>
      <point x="410" y="168" type="line"/>
      <point x="397" y="156" type="line"/>
      <point x="250" y="324" type="line"/>
    </contour>
  </outline>
</glyph>
<glyph name="Udieresis" format="2">
  <advance width="666"/>
  <unicode hex="00DC"/>
  <outline>
    <contour>
      <point x="315" y="-4" type="curve" smooth="yes"/>
      <point x="134" y="-4"/>
      <point x="52" y="97"/>
      <point x="78" y="262" type="curve" smooth="yes"/>
      <point x="150" y="715" type="line"/>
      <point x="169" y="715" type="line"/>
      <point x="97" y="262" type="line" smooth="yes"/>
      <point x="73" y="107"/>
      <point x="142" y="13"/>
      <point x="316" y="13" type="curve" smooth="yes"/>
      <point x="466" y="13"/>
      <point x="540" y="88"/>
      <point x="563" y="236" type="curve" smooth="yes"/>
      <point x="639" y="715" type="line"/>
      <point x="658" y="715" type="line"/>
      <point x="582" y="236" type="line" smooth="yes"/>
      <point x="557" y="76"/>
      <point x="478" y="-4"/>
    </contour>
    <contour>
      <point x="334" y="787" type="curve" smooth="yes"/>
      <point x="324" y="787"/>
      <point x="317" y="795"/>
      <point x="317" y="804" type="curve" smooth="yes"/>
      <point x="317" y="813"/>
      <point x="324" y="821"/>
      <point x="334" y="821" type="curve" smooth="yes"/>
      <point x="344" y="821"/>
      <point x="351" y="813"/>
      <point x="351" y="804" type="curve" smooth="yes"/>
      <point x="351" y="795"/>
      <point x="344" y="787"/>
    </contour>
    <contour>
      <point x="488" y="787" type="curve" smooth="yes"/>
      <point x="478" y="787"/>
      <point x="471" y="795"/>
      <point x="471" y="804" type="curve" smooth="yes"/>
      <point x="471" y="813"/>
      <point x="478" y="821"/>
      <point x="488" y="821" type="curve" smooth="yes"/>
      <point x="498" y="821"/>
      <point x="505" y="813"/>
      <point x="505" y="804" type="curve" smooth="yes"/>
      <point x="505" y="795"/>
      <point x="498" y="787"/>
    </contour>
  </outline>
</glyph>
<glyph name="Yacute" format="2">
  <advance width="554"/>
  <unicode hex="00DD"/>
  <outline>
    <contour>
      <point x="228" y="0" type="line"/>
      <point x="279" y="325" type="line"/>
      <point x="85" y="715" type="line"/>
      <point x="104" y="715" type="line"/>
      <point x="291" y="342" type="line"/>
      <point x="573" y="715" type="line"/>
      <point x="595" y="715" type="line"/>
      <point x="298" y="324" type="line"/>
      <point x="247" y="0" type="line"/>
    </contour>
    <contour>
      <point x="329" y="771" type="line"/>
      <point x="410" y="888" type="line"/>
      <point x="432" y="888" type="line"/>
      <point x="348" y="771" type="line"/>
    </contour>
  </outline>
</glyph>
<glyph name="Thorn" format="2">
  <advance width="552"/>
  <unicode hex="00DE"/>
  <outline>
    <contour>
      <point x="184" y="715" type="line"/>
      <point x="159" y="559" type="line"/>
      <point x="302" y="559" type="line" smooth="yes"/>
      <point x="435" y="559"/>
      <point x="523" y="504"/>
      <point x="523" y="387" type="curve" smooth="yes"/>
      <point x="523" y="235"/>
      <point x="424" y="181"/>
      <point x="273" y="181" type="curve" smooth="yes"/>
      <point x="99" y="181" type="line"/>
      <point x="71" y="0" type="line"/>
      <point x="53" y="0" type="line"/>
      <point x="166" y="715" type="line"/>
    </contour>
    <contour>
      <point x="301" y="542" type="curve" smooth="yes"/>
      <point x="156" y="542" type="line"/>
      <point x="102" y="198" type="line"/>
      <point x="273" y="198" type="line" smooth="yes"/>
      <point x="413" y="198"/>
      <point x="504" y="243"/>
      <point x="504" y="387" type="curve" smooth="yes"/>
      <point x="504" y="498"/>
      <point x="423" y="542"/>
    </contour>
  </outline>
</glyph>
<glyph name="germandbls" format="2">
  <advance width="540"/>
  <unicode hex="00DF"/>
  <outline>
    <contour>
      <point x="271" y="-4" type="curve" smooth="yes"/>
      <point x="226" y="-4"/>
      <point x="190" y="4"/>
      <point x="163" y="18" type="curve"/>
      <point x="166" y="35" type="line"/>
      <point x="195" y="21"/>
      <point x="226" y="12"/>
      <point x="271" y="12" type="curve" smooth="yes"/>
      <point x="393" y="12"/>
      <point x="476" y="92"/>
      <point x="476" y="229" type="curve" smooth="yes"/>
      <point x="476" y="345"/>
      <point x="388" y="439"/>
      <point x="271" y="443" type="curve"/>
      <point x="274" y="459" type="line"/>
      <point x="385" y="463"/>
      <point x="473" y="524"/>
      <point x="473" y="629" type="curve" smooth="yes"/>
      <point x="473" y="716"/>
      <point x="408" y="759"/>
      <point x="334" y="760" type="curve" smooth="yes"/>
      <point x="231" y="761"/>
      <point x="164" y="692"/>
      <point x="148" y="586" type="curve" smooth="yes"/>
      <point x="56" y="0" type="line"/>
      <point x="38" y="0" type="line"/>
      <point x="130" y="587" type="line" smooth="yes"/>
      <point x="148" y="705"/>
      <point x="227" y="776"/>
      <point x="334" y="776" type="curve" smooth="yes"/>
      <point x="420" y="776"/>
      <point x="491" y="723"/>
      <point x="491" y="629" type="curve" smooth="yes"/>
      <point x="491" y="529"/>
      <point x="412" y="465"/>
      <point x="321" y="451" type="curve"/>
      <point x="408" y="431"/>
      <point x="494" y="351"/>
      <point x="494" y="229" type="curve" smooth="yes"/>
      <point x="494" y="83"/>
      <point x="404" y="-4"/>
    </contour>
  </outline>
</glyph>
<glyph name="atilde" format="2">
  <advance width="515"/>
  <unicode hex="00E3"/>
  <outline>
    <contour>
      <point x="206" y="-7" type="curve" smooth="yes"/>
      <point x="86" y="-7"/>
      <point x="33" y="55"/>
      <point x="33" y="133" type="curve" smooth="yes"/>
      <point x="33" y="259"/>
      <point x="136" y="292"/>
      <point x="251" y="292" type="curve" smooth="yes"/>
      <point x="426" y="292" type="line"/>
      <point x="433" y="339" type="line" smooth="yes"/>
      <point x="449" y="449"/>
      <point x="408" y="514"/>
      <point x="285" y="514" type="curve" smooth="yes"/>
      <point x="201" y="514"/>
      <point x="133" y="479"/>
      <point x="104" y="383" type="curve"/>
      <point x="86" y="383" type="line"/>
      <point x="113" y="486"/>
      <point x="196" y="530"/>
      <point x="285" y="530" type="curve" smooth="yes"/>
      <point x="420" y="530"/>
      <point x="469" y="451"/>
      <point x="451" y="338" type="curve" smooth="yes"/>
      <point x="420" y="142" type="line" smooth="yes"/>
      <point x="409" y="70"/>
      <point x="408" y="29"/>
      <point x="406" y="0" type="curve"/>
      <point x="388" y="0" type="line"/>
      <point x="389" y="22"/>
      <point x="392" y="58"/>
      <point x="395" y="90" type="curve"/>
      <point x="366" y="42"/>
      <point x="300" y="-7"/>
    </contour>
    <contour>
      <point x="206" y="9" type="curve" smooth="yes"/>
      <point x="305" y="9"/>
      <point x="391" y="70"/>
      <point x="404" y="152" type="curve" smooth="yes"/>
      <point x="423" y="276" type="line"/>
      <point x="251" y="276" type="line" smooth="yes"/>
      <point x="150" y="276"/>
      <point x="51" y="253"/>
      <point x="51" y="133" type="curve" smooth="yes"/>
      <point x="51" y="63"/>
      <point x="97" y="9"/>
    </contour>
    <contour>
      <point x="371" y="613" type="curve" smooth="yes"/>
      <point x="320" y="613"/>
      <point x="277" y="677"/>
      <point x="235" y="677" type="curve" smooth="yes"/>
      <point x="210" y="677"/>
      <point x="185" y="657"/>
      <point x="176" y="614" type="curve"/>
      <point x="159" y="614" type="line"/>
      <point x="170" y="668"/>
      <point x="200" y="693"/>
      <point x="236" y="693" type="curve" smooth="yes"/>
      <point x="285" y="693"/>
      <point x="329" y="629"/>
      <point x="372" y="629" type="curve" smooth="yes"/>
      <point x="396" y="629"/>
      <point x="421" y="649"/>
      <point x="430" y="692" type="curve"/>
      <point x="447" y="692" type="line"/>
      <point x="436" y="639"/>
      <point x="406" y="613"/>
    </contour>
  </outline>
</glyph>
<glyph name="adieresis" format="2">
  <advance width="515"/>
  <unicode hex="00E4"/>
  <outline>
    <contour>
      <point x="206" y="-7" type="curve" smooth="yes"/>
      <point x="86" y="-7"/>
      <point x="33" y="55"/>
      <point x="33" y="133" type="curve" smooth="yes"/>
      <point x="33" y="259"/>
      <point x="136" y="292"/>
      <point x="251" y="292" type="curve" smooth="yes"/>
      <point x="426" y="292" type="line"/>
      <point x="433" y="339" type="line" smooth="yes"/>
      <point x="449" y="449"/>
      <point x="408" y="514"/>
      <point x="285" y="514" type="curve" smooth="yes"/>
      <point x="201" y="514"/>
      <point x="133" y="479"/>
      <point x="104" y="383" type="curve"/>
      <point x="86" y="383" type="line"/>
      <point x="113" y="486"/>
      <point x="196" y="530"/>
      <point x="285" y="530" type="curve" smooth="yes"/>
      <point x="420" y="530"/>
      <point x="469" y="451"/>
      <point x="451" y="338" type="curve" smooth="yes"/>
      <point x="420" y="142" type="line" smooth="yes"/>
      <point x="409" y="70"/>
      <point x="408" y="29"/>
      <point x="406" y="0" type="curve"/>
      <point x="388" y="0" type="line"/>
      <point x="389" y="22"/>
      <point x="392" y="58"/>
      <point x="395" y="90" type="curve"/>
      <point x="366" y="42"/>
      <point x="300" y="-7"/>
    </contour>
    <contour>
      <point x="206" y="9" type="curve" smooth="yes"/>
      <point x="305" y="9"/>
      <point x="391" y="70"/>
      <point x="404" y="152" type="curve" smooth="yes"/>
      <point x="423" y="276" type="line"/>
      <point x="251" y="276" type="line" smooth="yes"/>
      <point x="150" y="276"/>
      <point x="51" y="253"/>
      <point x="51" y="133" type="curve" smooth="yes"/>
      <point x="51" y="63"/>
      <point x="97" y="9"/>
    </contour>
    <contour>
      <point x="233" y="639" type="curve" smooth="yes"/>
      <point x="223" y="639"/>
      <point x="216" y="647"/>
      <point x="216" y="656" type="curve" smooth="yes"/>
      <point x="216" y="665"/>
      <point x="223" y="673"/>
      <point x="233" y="673" type="curve" smooth="yes"/>
      <point x="243" y="673"/>
      <point x="250" y="665"/>
      <point x="250" y="656" type="curve" smooth="yes"/>
      <point x="250" y="647"/>
      <point x="243" y="639"/>
    </contour>
    <contour>
      <point x="375" y="639" type="curve" smooth="yes"/>
      <point x="365" y="639"/>
      <point x="358" y="647"/>
      <point x="358" y="656" type="curve" smooth="yes"/>
      <point x="358" y="665"/>
      <point x="365" y="673"/>
      <point x="375" y="673" type="curve" smooth="yes"/>
      <point x="385" y="673"/>
      <point x="392" y="665"/>
      <point x="392" y="656" type="curve" smooth="yes"/>
      <point x="392" y="647"/>
      <point x="385" y="639"/>
    </contour>
  </outline>
</glyph>
<glyph name="aring" format="2">
  <advance width="515"/>
  <unicode hex="00E5"/>
  <outline>
    <contour>
      <point x="206" y="-7" type="curve" smooth="yes"/>
      <point x="86" y="-7"/>
      <point x="33" y="55"/>
      <point x="33" y="133" type="curve" smooth="yes"/>
      <point x="33" y="259"/>
      <point x="136" y="292"/>
      <point x="251" y="292" type="curve" smooth="yes"/>
      <point x="426" y="292" type="line"/>
      <point x="433" y="339" type="line" smooth="yes"/>
      <point x="449" y="449"/>
      <point x="408" y="514"/>
      <point x="285" y="514" type="curve" smooth="yes"/>
      <point x="201" y="514"/>
      <point x="133" y="479"/>
      <point x="104" y="383" type="curve"/>
      <point x="86" y="383" type="line"/>
      <point x="113" y="486"/>
      <point x="196" y="530"/>
      <point x="285" y="530" type="curve" smooth="yes"/>
      <point x="420" y="530"/>
      <point x="469" y="451"/>
      <point x="451" y="338" type="curve" smooth="yes"/>
      <point x="420" y="142" type="line" smooth="yes"/>
      <point x="409" y="70"/>
      <point x="408" y="29"/>
      <point x="406" y="0" type="curve"/>
      <point x="388" y="0" type="line"/>
      <point x="389" y="22"/>
      <point x="392" y="58"/>
      <point x="395" y="90" type="curve"/>
      <point x="366" y="42"/>
      <point x="300" y="-7"/>
    </contour>
    <contour>
      <point x="206" y="9" type="curve" smooth="yes"/>
      <point x="305" y="9"/>
      <point x="391" y="70"/>
      <point x="404" y="152" type="curve" smooth="yes"/>
      <point x="423" y="276" type="line"/>
      <point x="251" y="276" type="line" smooth="yes"/>
      <point x="150" y="276"/>
      <point x="51" y="253"/>
      <point x="51" y="133" type="curve" smooth="yes"/>
      <point x="51" y="63"/>
      <point x="97" y="9"/>
    </contour>
    <contour>
      <point x="311" y="619" type="curve" smooth="yes"/>
      <point x="353" y="619"/>
      <point x="383" y="649"/>
      <point x="383" y="692" type="curve" smooth="yes"/>
      <point x="383" y="731"/>
      <point x="356" y="760"/>
      <point x="314" y="760" type="curve" smooth="yes"/>
      <point x="274" y="760"/>
      <point x="242" y="729"/>
      <point x="242" y="687" type="curve" smooth="yes"/>
      <point x="242" y="650"/>
      <point x="271" y="619"/>
    </contour>
    <contour>
      <point x="311" y="604" type="curve" smooth="yes"/>
      <point x="262" y="604"/>
      <point x="225" y="643"/>
      <point x="225" y="687" type="curve" smooth="yes"/>
      <point x="225" y="735"/>
      <point x="265" y="775"/>
      <point x="314" y="775" type="curve" smooth="yes"/>
      <point x="365" y="775"/>
      <point x="400" y="737"/>
      <point x="400" y="692" type="curve" smooth="yes"/>
      <point x="400" y="642"/>
      <point x="362" y="604"/>
    </contour>
  </outline>
</glyph>
<glyph name="ccedilla" format="2">
  <advance width="539"/>
  <unicode hex="00E7"/>
  <outline>
    <contour>
      <point x="209" y="-210" type="curve" smooth="yes"/>
      <point x="159" y="-210"/>
      <point x="126" y="-183"/>
      <point x="123" y="-138" type="curve"/>
      <point x="142" y="-138" type="line"/>
      <point x="144" y="-173"/>
      <point x="168" y="-194"/>
      <point x="209" y="-194" type="curve" smooth="yes"/>
      <point x="241" y="-194"/>
      <point x="279" y="-179"/>
      <point x="279" y="-132" type="curve" smooth="yes"/>
      <point x="279" y="-94"/>
      <point x="253" y="-80"/>
      <point x="223" y="-80" type="curve" smooth="yes"/>
      <point x="201" y="-80"/>
      <point x="186" y="-87"/>
      <point x="177" y="-92" type="curve"/>
      <point x="169" y="-84" type="line"/>
      <point x="223" y="-3" type="line"/>
      <point x="109" y="15"/>
      <point x="42" y="106"/>
      <point x="42" y="231" type="curve" smooth="yes"/>
      <point x="42" y="395"/>
      <point x="150" y="530"/>
      <point x="311" y="530" type="curve" smooth="yes"/>
      <point x="419" y="530"/>
      <point x="498" y="462"/>
      <point x="504" y="363" type="curve"/>
      <point x="486" y="363" type="line"/>
      <point x="482" y="449"/>
      <point x="413" y="514"/>
      <point x="310" y="514" type="curve" smooth="yes"/>
      <point x="157" y="514"/>
      <point x="60" y="384"/>
      <point x="60" y="231" type="curve" smooth="yes"/>
      <point x="60" y="96"/>
      <point x="145" y="9"/>
      <point x="268" y="9" type="curve" smooth="yes"/>
      <point x="371" y="9"/>
      <point x="450" y="65"/>
      <point x="478" y="170" type="curve"/>
      <point x="496" y="170" type="line"/>
      <point x="468" y="52"/>
      <point x="378" y="-7"/>
      <point x="268" y="-7" type="curve" smooth="yes"/>
      <point x="257" y="-7"/>
      <point x="246" y="-6"/>
      <point x="239" y="-5" type="curve"/>
      <point x="195" y="-71" type="line"/>
      <point x="244" y="-53"/>
      <point x="296" y="-76"/>
      <point x="296" y="-132" type="curve" smooth="yes"/>
      <point x="296" y="-180"/>
      <point x="259" y="-210"/>
    </contour>
  </outline>
</glyph>
<glyph name="edieresis" format="2">
  <advance width="529"/>
  <unicode hex="00EB"/>
  <outline>
    <contour>
      <point x="57" y="219" type="curve" smooth="yes"/>
      <point x="57" y="85"/>
      <point x="125" y="9"/>
      <point x="253" y="9" type="curve" smooth="yes"/>
      <point x="348" y="9"/>
      <point x="418" y="53"/>
      <point x="453" y="141" type="curve"/>
      <point x="471" y="141" type="line"/>
      <point x="436" y="43"/>
      <point x="358" y="-7"/>
      <point x="253" y="-7" type="curve" smooth="yes"/>
      <point x="110" y="-7"/>
      <point x="38" y="79"/>
      <point x="38" y="219" type="curve" smooth="yes"/>
      <point x="38" y="380"/>
      <point x="134" y="530"/>
      <point x="299" y="530" type="curve" smooth="yes"/>
      <point x="451" y="530"/>
      <point x="512" y="419"/>
      <point x="491" y="283" type="curve" smooth="yes"/>
      <point x="489" y="270" type="line"/>
      <point x="60" y="270" type="line"/>
      <point x="58" y="253"/>
      <point x="57" y="236"/>
    </contour>
    <contour>
      <point x="299" y="514" type="curve" smooth="yes"/>
      <point x="164" y="514"/>
      <point x="83" y="411"/>
      <point x="62" y="286" type="curve"/>
      <point x="474" y="286" type="line"/>
      <point x="492" y="414"/>
      <point x="441" y="514"/>
    </contour>
    <contour>
      <point x="241" y="639" type="curve" smooth="yes"/>
      <point x="231" y="639"/>
      <point x="224" y="647"/>
      <point x="224" y="656" type="curve" smooth="yes"/>
      <point x="224" y="665"/>
      <point x="231" y="673"/>
      <point x="241" y="673" type="curve" smooth="yes"/>
      <point x="251" y="673"/>
      <point x="258" y="665"/>
      <point x="258" y="656" type="curve" smooth="yes"/>
      <point x="258" y="647"/>
      <point x="251" y="639"/>
    </contour>
    <contour>
      <point x="383" y="639" type="curve" smooth="yes"/>
      <point x="373" y="639"/>
      <point x="366" y="647"/>
      <point x="366" y="656" type="curve" smooth="yes"/>
      <point x="366" y="665"/>
      <point x="373" y="673"/>
      <point x="383" y="673" type="curve" smooth="yes"/>
      <point x="393" y="673"/>
      <point x="400" y="665"/>
      <point x="400" y="656" type="curve" smooth="yes"/>
      <point x="400" y="647"/>
      <point x="393" y="639"/>
    </contour>
  </outline>
</glyph>
<glyph name="igrave" format="2">
  <advance width="182"/>
  <unicode hex="00EC"/>
  <outline>
    <contour>
      <point x="40" y="0" type="line"/>
      <point x="122" y="523" type="line"/>
      <point x="140" y="523" type="line"/>
      <point x="58" y="0" type="line"/>
    </contour>
    <contour>
      <point x="132" y="596" type="line"/>
      <point x="77" y="743" type="line"/>
      <point x="96" y="743" type="line"/>
      <point x="149" y="596" type="line"/>
    </contour>
  </outline>
</glyph>
<glyph name="icircumflex" format="2">
  <advance width="182"/>
  <unicode hex="00EE"/>
  <outline>
    <contour>
      <point x="40" y="0" type="line"/>
      <point x="122" y="523" type="line"/>
      <point x="140" y="523" type="line"/>
      <point x="58" y="0" type="line"/>
    </contour>
    <contour>
      <point x="19" y="596" type="line"/>
      <point x="146" y="720" type="line"/>
      <point x="165" y="720" type="line"/>
      <point x="261" y="596" type="line"/>
      <point x="242" y="596" type="line"/>
      <point x="154" y="705" type="line"/>
      <point x="40" y="596" type="line"/>
    </contour>
  </outline>
</glyph>
<glyph name="idieresis" format="2">
  <advance width="182"/>
  <unicode hex="00EF"/>
  <outline>
    <contour>
      <point x="96" y="639" type="curve" smooth="yes"/>
      <point x="86" y="639"/>
      <point x="79" y="647"/>
      <point x="79" y="656" type="curve" smooth="yes"/>
      <point x="79" y="665"/>
      <point x="86" y="673"/>
      <point x="96" y="673" type="curve" smooth="yes"/>
      <point x="106" y="673"/>
      <point x="113" y="665"/>
      <point x="113" y="656" type="curve" smooth="yes"/>
      <point x="113" y="647"/>
      <point x="106" y="639"/>
    </contour>
    <contour>
      <point x="208" y="639" type="curve" smooth="yes"/>
      <point x="198" y="639"/>
      <point x="191" y="647"/>
      <point x="191" y="656" type="curve" smooth="yes"/>
      <point x="191" y="665"/>
      <point x="198" y="673"/>
      <point x="208" y="673" type="curve" smooth="yes"/>
      <point x="218" y="673"/>
      <point x="225" y="665"/>
      <point x="225" y="656" type="curve" smooth="yes"/>
      <point x="225" y="647"/>
      <point x="218" y="639"/>
    </contour>
    <contour>
      <point x="40" y="0" type="line"/>
      <point x="122" y="523" type="line"/>
      <point x="140" y="523" type="line"/>
      <point x="58" y="0" type="line"/>
    </contour>
  </outline>
</glyph>
<glyph name="eth" format="2">
  <advance width="570"/>
  <unicode hex="00F0"/>
  <outline>
    <contour>
      <point x="160" y="597" type="line"/>
      <point x="154" y="610" type="line"/>
      <point x="314" y="693" type="line"/>
      <point x="279" y="722"/>
      <point x="241" y="748"/>
      <point x="200" y="773" type="curve"/>
      <point x="227" y="773" type="line"/>
      <point x="261" y="752"/>
      <point x="296" y="729"/>
      <point x="330" y="702" type="curve"/>
      <point x="459" y="769" type="line"/>
      <point x="465" y="756" type="line"/>
      <point x="342" y="692" type="line"/>
      <point x="445" y="604"/>
      <point x="530" y="479"/>
      <point x="530" y="297" type="curve" smooth="yes"/>
      <point x="530" y="125"/>
      <point x="427" y="-7"/>
      <point x="261" y="-7" type="curve" smooth="yes"/>
      <point x="126" y="-7"/>
      <point x="37" y="100"/>
      <point x="37" y="231" type="curve" smooth="yes"/>
      <point x="37" y="387"/>
      <point x="139" y="529"/>
      <point x="307" y="529" type="curve" smooth="yes"/>
      <point x="417" y="529"/>
      <point x="473" y="468"/>
      <point x="503" y="408" type="curve"/>
      <point x="473" y="524"/>
      <point x="411" y="611"/>
      <point x="326" y="683" type="curve"/>
    </contour>
    <contour>
      <point x="55" y="231" type="curve" smooth="yes"/>
      <point x="55" y="113"/>
      <point x="133" y="9"/>
      <point x="261" y="9" type="curve" smooth="yes"/>
      <point x="415" y="9"/>
      <point x="512" y="133"/>
      <point x="512" y="292" type="curve" smooth="yes"/>
      <point x="512" y="427"/>
      <point x="427" y="513"/>
      <point x="307" y="513" type="curve" smooth="yes"/>
      <point x="148" y="513"/>
      <point x="55" y="381"/>
    </contour>
  </outline>
</glyph>
<glyph name="ntilde" format="2">
  <advance width="559"/>
  <unicode hex="00F1"/>
  <outline>
    <contour>
      <point x="38" y="0" type="line"/>
      <point x="99" y="389" type="line" smooth="yes"/>
      <point x="110" y="458"/>
      <point x="112" y="494"/>
      <point x="114" y="523" type="curve"/>
      <point x="132" y="523" type="line"/>
      <point x="131" y="496"/>
      <point x="127" y="449"/>
      <point x="119" y="400" type="curve"/>
      <point x="154" y="469"/>
      <point x="228" y="530"/>
      <point x="327" y="530" type="curve" smooth="yes"/>
      <point x="443" y="530"/>
      <point x="513" y="455"/>
      <point x="490" y="310" type="curve" smooth="yes"/>
      <point x="441" y="0" type="line"/>
      <point x="423" y="0" type="line"/>
      <point x="472" y="310" type="line" smooth="yes"/>
      <point x="494" y="448"/>
      <point x="431" y="514"/>
      <point x="327" y="514" type="curve" smooth="yes"/>
      <point x="229" y="514"/>
      <point x="126" y="445"/>
      <point x="106" y="317" type="curve" smooth="yes"/>
      <point x="56" y="0" type="line"/>
    </contour>
    <contour>
      <point x="389" y="613" type="curve" smooth="yes"/>
      <point x="338" y="613"/>
      <point x="295" y="677"/>
      <point x="253" y="677" type="curve" smooth="yes"/>
      <point x="228" y="677"/>
      <point x="203" y="657"/>
      <point x="194" y="614" type="curve"/>
      <point x="177" y="614" type="line"/>
      <point x="188" y="668"/>
      <point x="218" y="693"/>
      <point x="254" y="693" type="curve" smooth="yes"/>
      <point x="303" y="693"/>
      <point x="347" y="629"/>
      <point x="390" y="629" type="curve" smooth="yes"/>
      <point x="414" y="629"/>
      <point x="439" y="649"/>
      <point x="448" y="692" type="curve"/>
      <point x="465" y="692" type="line"/>
      <point x="454" y="639"/>
      <point x="424" y="613"/>
    </contour>
  </outline>
</glyph>
<glyph name="oacute" format="2">
  <advance width="567"/>
  <unicode hex="00F3"/>
  <outline>
    <contour>
      <point x="263" y="-7" type="curve" smooth="yes"/>
      <point x="128" y="-7"/>
      <point x="37" y="100"/>
      <point x="37" y="231" type="curve" smooth="yes"/>
      <point x="37" y="387"/>
      <point x="137" y="529"/>
      <point x="308" y="529" type="curve" smooth="yes"/>
      <point x="448" y="529"/>
      <point x="530" y="417"/>
      <point x="530" y="292" type="curve" smooth="yes"/>
      <point x="530" y="125"/>
      <point x="429" y="-7"/>
    </contour>
    <contour>
      <point x="263" y="9" type="curve" smooth="yes"/>
      <point x="417" y="9"/>
      <point x="512" y="133"/>
      <point x="512" y="292" type="curve" smooth="yes"/>
      <point x="512" y="409"/>
      <point x="439" y="513"/>
      <point x="308" y="513" type="curve" smooth="yes"/>
      <point x="146" y="513"/>
      <point x="55" y="381"/>
      <point x="55" y="231" type="curve" smooth="yes"/>
      <point x="55" y="113"/>
      <point x="135" y="9"/>
    </contour>
    <contour>
      <point x="309" y="596" type="line"/>
      <point x="407" y="743" type="line"/>
      <point x="428" y="743" type="line"/>
      <point x="327" y="596" type="line"/>
    </contour>
  </outline>
</glyph>
<glyph name="otilde" format="2">
  <advance width="567"/>
  <unicode hex="00F5"/>
  <outline>
    <contour>
      <point x="263" y="-7" type="curve" smooth="yes"/>
      <point x="128" y="-7"/>
      <point x="37" y="100"/>
      <point x="37" y="231" type="curve" smooth="yes"/>
      <point x="37" y="387"/>
      <point x="137" y="529"/>
      <point x="308" y="529" type="curve" smooth="yes"/>
      <point x="448" y="529"/>
      <point x="530" y="417"/>
      <point x="530" y="292" type="curve" smooth="yes"/>
      <point x="530" y="125"/>
      <point x="429" y="-7"/>
    </contour>
    <contour>
      <point x="263" y="9" type="curve" smooth="yes"/>
      <point x="417" y="9"/>
      <point x="512" y="133"/>
      <point x="512" y="292" type="curve" smooth="yes"/>
      <point x="512" y="409"/>
      <point x="439" y="513"/>
      <point x="308" y="513" type="curve" smooth="yes"/>
      <point x="146" y="513"/>
      <point x="55" y="381"/>
      <point x="55" y="231" type="curve" smooth="yes"/>
      <point x="55" y="113"/>
      <point x="135" y="9"/>
    </contour>
    <contour>
      <point x="392" y="613" type="curve" smooth="yes"/>
      <point x="341" y="613"/>
      <point x="298" y="677"/>
      <point x="256" y="677" type="curve" smooth="yes"/>
      <point x="231" y="677"/>
      <point x="206" y="657"/>
      <point x="197" y="614" type="curve"/>
      <point x="180" y="614" type="line"/>
      <point x="191" y="668"/>
      <point x="221" y="693"/>
      <point x="257" y="693" type="curve" smooth="yes"/>
      <point x="306" y="693"/>
      <point x="350" y="629"/>
      <point x="393" y="629" type="curve" smooth="yes"/>
      <point x="417" y="629"/>
      <point x="442" y="649"/>
      <point x="451" y="692" type="curve"/>
      <point x="468" y="692" type="line"/>
      <point x="457" y="639"/>
      <point x="427" y="613"/>
    </contour>
  </outline>
</glyph>
<glyph name="odieresis" format="2">
  <advance width="567"/>
  <unicode hex="00F6"/>
  <outline>
    <contour>
      <point x="263" y="-7" type="curve" smooth="yes"/>
      <point x="128" y="-7"/>
      <point x="37" y="100"/>
      <point x="37" y="231" type="curve" smooth="yes"/>
      <point x="37" y="387"/>
      <point x="137" y="529"/>
      <point x="308" y="529" type="curve" smooth="yes"/>
      <point x="448" y="529"/>
      <point x="530" y="417"/>
      <point x="530" y="292" type="curve" smooth="yes"/>
      <point x="530" y="125"/>
      <point x="429" y="-7"/>
    </contour>
    <contour>
      <point x="263" y="9" type="curve" smooth="yes"/>
      <point x="417" y="9"/>
      <point x="512" y="133"/>
      <point x="512" y="292" type="curve" smooth="yes"/>
      <point x="512" y="409"/>
      <point x="439" y="513"/>
      <point x="308" y="513" type="curve" smooth="yes"/>
      <point x="146" y="513"/>
      <point x="55" y="381"/>
      <point x="55" y="231" type="curve" smooth="yes"/>
      <point x="55" y="113"/>
      <point x="135" y="9"/>
    </contour>
    <contour>
      <point x="254" y="639" type="curve" smooth="yes"/>
      <point x="244" y="639"/>
      <point x="237" y="647"/>
      <point x="237" y="656" type="curve" smooth="yes"/>
      <point x="237" y="665"/>
      <point x="244" y="673"/>
      <point x="254" y="673" type="curve" smooth="yes"/>
      <point x="264" y="673"/>
      <point x="271" y="665"/>
      <point x="271" y="656" type="curve" smooth="yes"/>
      <point x="271" y="647"/>
      <point x="264" y="639"/>
    </contour>
    <contour>
      <point x="396" y="639" type="curve" smooth="yes"/>
      <point x="386" y="639"/>
      <point x="379" y="647"/>
      <point x="379" y="656" type="curve" smooth="yes"/>
      <point x="379" y="665"/>
      <point x="386" y="673"/>
      <point x="396" y="673" type="curve" smooth="yes"/>
      <point x="406" y="673"/>
      <point x="413" y="665"/>
      <point x="413" y="656" type="curve" smooth="yes"/>
      <point x="413" y="647"/>
      <point x="406" y="639"/>
    </contour>
  </outline>
</glyph>
<glyph name="divide" format="2">
  <advance width="500"/>
  <unicode hex="00F7"/>
  <outline>
    <contour>
      <point x="47" y="334" type="line"/>
      <point x="50" y="350" type="line"/>
      <point x="476" y="350" type="line"/>
      <point x="473" y="334" type="line"/>
    </contour>
    <contour>
      <point x="239" y="161" type="curve" smooth="yes"/>
      <point x="229" y="161"/>
      <point x="222" y="169"/>
      <point x="222" y="178" type="curve" smooth="yes"/>
      <point x="222" y="187"/>
      <point x="229" y="195"/>
      <point x="239" y="195" type="curve" smooth="yes"/>
      <point x="249" y="195"/>
      <point x="256" y="187"/>
      <point x="256" y="178" type="curve" smooth="yes"/>
      <point x="256" y="169"/>
      <point x="249" y="161"/>
    </contour>
    <contour>
      <point x="285" y="489" type="curve" smooth="yes"/>
      <point x="275" y="489"/>
      <point x="268" y="497"/>
      <point x="268" y="506" type="curve" smooth="yes"/>
      <point x="268" y="515"/>
      <point x="275" y="523"/>
      <point x="285" y="523" type="curve" smooth="yes"/>
      <point x="295" y="523"/>
      <point x="302" y="515"/>
      <point x="302" y="506" type="curve" smooth="yes"/>
      <point x="302" y="497"/>
      <point x="295" y="489"/>
    </contour>
  </outline>
</glyph>
<glyph name="oslash" format="2">
  <advance width="567"/>
  <unicode hex="00F8"/>
  <outline>
    <contour>
      <point x="32" y="-11" type="line"/>
      <point x="20" y="-1" type="line"/>
      <point x="91" y="72" type="line"/>
      <point x="56" y="114"/>
      <point x="37" y="170"/>
      <point x="37" y="231" type="curve" smooth="yes"/>
      <point x="37" y="387"/>
      <point x="137" y="529"/>
      <point x="308" y="529" type="curve" smooth="yes"/>
      <point x="375" y="529"/>
      <point x="429" y="503"/>
      <point x="467" y="462" type="curve"/>
      <point x="535" y="533" type="line"/>
      <point x="546" y="523" type="line"/>
      <point x="476" y="451" type="line"/>
      <point x="511" y="408"/>
      <point x="530" y="351"/>
      <point x="530" y="292" type="curve" smooth="yes"/>
      <point x="530" y="125"/>
      <point x="429" y="-7"/>
      <point x="263" y="-7" type="curve" smooth="yes"/>
      <point x="196" y="-7"/>
      <point x="141" y="19"/>
      <point x="101" y="61" type="curve"/>
    </contour>
    <contour>
      <point x="263" y="9" type="curve" smooth="yes"/>
      <point x="417" y="9"/>
      <point x="512" y="133"/>
      <point x="512" y="292" type="curve" smooth="yes"/>
      <point x="512" y="347"/>
      <point x="495" y="399"/>
      <point x="465" y="439" type="curve"/>
      <point x="113" y="73" type="line"/>
      <point x="149" y="33"/>
      <point x="200" y="9"/>
    </contour>
    <contour>
      <point x="55" y="231" type="curve" smooth="yes"/>
      <point x="55" y="176"/>
      <point x="72" y="124"/>
      <point x="103" y="85" type="curve"/>
      <point x="455" y="450" type="line"/>
      <point x="421" y="489"/>
      <point x="371" y="513"/>
      <point x="308" y="513" type="curve" smooth="yes"/>
      <point x="146" y="513"/>
      <point x="55" y="381"/>
    </contour>
  </outline>
</glyph>
<glyph name="ugrave" format="2">
  <advance width="555"/>
  <unicode hex="00F9"/>
  <outline>
    <contour>
      <point x="513" y="523" type="line"/>
      <point x="452" y="134" type="line" smooth="yes"/>
      <point x="443" y="75"/>
      <point x="440" y="25"/>
      <point x="439" y="0" type="curve"/>
      <point x="421" y="0" type="line"/>
      <point x="422" y="31"/>
      <point x="426" y="78"/>
      <point x="432" y="121" type="curve"/>
      <point x="397" y="52"/>
      <point x="324" y="-7"/>
      <point x="225" y="-7" type="curve" smooth="yes"/>
      <point x="109" y="-7"/>
      <point x="41" y="68"/>
      <point x="64" y="213" type="curve" smooth="yes"/>
      <point x="113" y="523" type="line"/>
      <point x="131" y="523" type="line"/>
      <point x="82" y="213" type="line" smooth="yes"/>
      <point x="60" y="75"/>
      <point x="121" y="9"/>
      <point x="225" y="9" type="curve" smooth="yes"/>
      <point x="323" y="9"/>
      <point x="425" y="78"/>
      <point x="445" y="206" type="curve" smooth="yes"/>
      <point x="495" y="523" type="line"/>
    </contour>
    <contour>
      <point x="311" y="596" type="line"/>
      <point x="256" y="743" type="line"/>
      <point x="275" y="743" type="line"/>
      <point x="328" y="596" type="line"/>
    </contour>
  </outline>
</glyph>
<glyph name="ydieresis" format="2">
  <advance width="480"/>
  <unicode hex="00FF"/>
  <outline>
    <contour>
      <point x="78" y="-182" type="line"/>
      <point x="200" y="36" type="line"/>
      <point x="66" y="523" type="line"/>
      <point x="84" y="523" type="line"/>
      <point x="213" y="57" type="line"/>
      <point x="474" y="523" type="line"/>
      <point x="494" y="523" type="line"/>
      <point x="98" y="-182" type="line"/>
    </contour>
    <contour>
      <point x="229" y="639" type="curve" smooth="yes"/>
      <point x="219" y="639"/>
      <point x="212" y="647"/>
      <point x="212" y="656" type="curve" smooth="yes"/>
      <point x="212" y="665"/>
      <point x="219" y="673"/>
      <point x="229" y="673" type="curve" smooth="yes"/>
      <point x="239" y="673"/>
      <point x="246" y="665"/>
      <point x="246" y="656" type="curve" smooth="yes"/>
      <point x="246" y="647"/>
      <point x="239" y="639"/>
    </contour>
    <contour>
      <point x="371" y="639" type="curve" smooth="yes"/>
      <point x="361" y="639"/>
      <point x="354" y="647"/>
      <point x="354" y="656" type="curve" smooth="yes"/>
      <point x="354" y="665"/>
      <point x="361" y="673"/>
      <point x="371" y="673" type="curve" smooth="yes"/>
      <point x="381" y="673"/>
      <point x="388" y="665"/>
      <point x="388" y="656" type="curve" smooth="yes"/>
      <point x="388" y="647"/>
      <point x="381" y="639"/>
    </contour>
  </outline>
</glyph>
<glyph name="Abreve" format="2">
  <advance width="630"/>
  <unicode hex="0102"/>
  <outline>
    <contour>
      <point x="540" y="0" type="line"/>
      <point x="486" y="235" type="line"/>
      <point x="131" y="235" type="line"/>
      <point x="7" y="0" type="line"/>
      <point x="-12" y="0" type="line"/>
      <point x="368" y="715" type="line"/>
      <point x="394" y="715" type="line"/>
      <point x="558" y="0" type="line"/>
    </contour>
    <contour>
      <point x="379" y="701" type="line"/>
      <point x="140" y="252" type="line"/>
      <point x="482" y="252" type="line"/>
    </contour>
    <contour>
      <point x="386" y="775" type="curve" smooth="yes"/>
      <point x="319" y="775"/>
      <point x="277" y="822"/>
      <point x="276" y="887" type="curve"/>
      <point x="294" y="887" type="line"/>
      <point x="295" y="831"/>
      <point x="331" y="791"/>
      <point x="386" y="791" type="curve" smooth="yes"/>
      <point x="440" y="791"/>
      <point x="487" y="830"/>
      <point x="498" y="887" type="curve"/>
      <point x="516" y="887" type="line"/>
      <point x="505" y="820"/>
      <point x="448" y="775"/>
    </contour>
  </outline>
</glyph>
<glyph name="Aogonek" format="2">
  <advance width="630"/>
  <unicode hex="0104"/>
  <outline>
    <contour>
      <point x="539" y="4" type="curve"/>
      <point x="486" y="235" type="line"/>
      <point x="131" y="235" type="line"/>
      <point x="7" y="0" type="line"/>
      <point x="-12" y="0" type="line"/>
      <point x="368" y="715" type="line"/>
      <point x="394" y="715" type="line"/>
      <point x="558" y="0" type="line"/>
      <point x="520" y="-22"/>
      <point x="454" y="-62"/>
      <point x="454" y="-115" type="curve" smooth="yes"/>
      <point x="454" y="-143"/>
      <point x="470" y="-166"/>
      <point x="513" y="-166" type="curve" smooth="yes"/>
      <point x="529" y="-166"/>
      <point x="541" y="-164"/>
      <point x="558" y="-159" type="curve"/>
      <point x="555" y="-175" type="line"/>
      <point x="543" y="-179"/>
      <point x="528" y="-182"/>
      <point x="512" y="-182" type="curve" smooth="yes"/>
      <point x="458" y="-182"/>
      <point x="436" y="-152"/>
      <point x="436" y="-115" type="curve" smooth="yes"/>
      <point x="436" y="-57"/>
      <point x="503" y="-17"/>
    </contour>
    <contour>
      <point x="379" y="701" type="line"/>
      <point x="140" y="252" type="line"/>
      <point x="482" y="252" type="line"/>
    </contour>
  </outline>
</glyph>
<glyph name="ccaron" format="2">
  <advance width="539"/>
  <unicode hex="010D"/>
  <outline>
    <contour>
      <point x="268" y="-7" type="curve" smooth="yes"/>
      <point x="128" y="-7"/>
      <point x="42" y="91"/>
      <point x="42" y="231" type="curve" smooth="yes"/>
      <point x="42" y="395"/>
      <point x="150" y="530"/>
      <point x="311" y="530" type="curve" smooth="yes"/>
      <point x="419" y="530"/>
      <point x="498" y="462"/>
      <point x="504" y="363" type="curve"/>
      <point x="486" y="363" type="line"/>
      <point x="482" y="449"/>
      <point x="413" y="514"/>
      <point x="310" y="514" type="curve" smooth="yes"/>
      <point x="157" y="514"/>
      <point x="60" y="384"/>
      <point x="60" y="231" type="curve" smooth="yes"/>
      <point x="60" y="96"/>
      <point x="145" y="9"/>
      <point x="268" y="9" type="curve" smooth="yes"/>
      <point x="371" y="9"/>
      <point x="450" y="65"/>
      <point x="478" y="170" type="curve"/>
      <point x="496" y="170" type="line"/>
      <point x="468" y="52"/>
      <point x="378" y="-7"/>
    </contour>
    <contour>
      <point x="452" y="737" type="line"/>
      <point x="325" y="613" type="line"/>
      <point x="306" y="613" type="line"/>
      <point x="210" y="737" type="line"/>
      <point x="229" y="737" type="line"/>
      <point x="317" y="628" type="line"/>
      <point x="431" y="737" type="line"/>
    </contour>
  </outline>
</glyph>
<glyph name="Dcaron" format="2">
  <advance width="677"/>
  <unicode hex="010E"/>
  <outline>
    <contour>
      <point x="53" y="0" type="line"/>
      <point x="166" y="715" type="line"/>
      <point x="337" y="715" type="line" smooth="yes"/>
      <point x="547" y="715"/>
      <point x="649" y="583"/>
      <point x="649" y="411" type="curve" smooth="yes"/>
      <point x="649" y="150"/>
      <point x="488" y="0"/>
      <point x="243" y="0" type="curve" smooth="yes"/>
    </contour>
    <contour>
      <point x="74" y="17" type="line"/>
      <point x="243" y="17" type="line" smooth="yes"/>
      <point x="480" y="17"/>
      <point x="630" y="163"/>
      <point x="630" y="411" type="curve" smooth="yes"/>
      <point x="630" y="569"/>
      <point x="538" y="698"/>
      <point x="337" y="698" type="curve" smooth="yes"/>
      <point x="182" y="698" type="line"/>
    </contour>
    <contour>
      <point x="515" y="888" type="line"/>
      <point x="388" y="771" type="line"/>
      <point x="368" y="771" type="line"/>
      <point x="271" y="888" type="line"/>
      <point x="290" y="888" type="line"/>
      <point x="379" y="786" type="line"/>
      <point x="494" y="888" type="line"/>
    </contour>
  </outline>
</glyph>
<glyph name="Ebreve" format="2">
  <advance width="566"/>
  <unicode hex="0114"/>
  <outline>
    <contour>
      <point x="53" y="0" type="line"/>
      <point x="166" y="715" type="line"/>
      <point x="563" y="715" type="line"/>
      <point x="560" y="698" type="line"/>
      <point x="182" y="698" type="line"/>
      <point x="131" y="378" type="line"/>
      <point x="445" y="378" type="line"/>
      <point x="442" y="361" type="line"/>
      <point x="129" y="361" type="line"/>
      <point x="74" y="17" type="line"/>
      <point x="478" y="17" type="line"/>
      <point x="474" y="0" type="line"/>
    </contour>
    <contour>
      <point x="369" y="775" type="curve" smooth="yes"/>
      <point x="302" y="775"/>
      <point x="260" y="822"/>
      <point x="259" y="887" type="curve"/>
      <point x="277" y="887" type="line"/>
      <point x="278" y="831"/>
      <point x="314" y="791"/>
      <point x="369" y="791" type="curve" smooth="yes"/>
      <point x="423" y="791"/>
      <point x="470" y="830"/>
      <point x="481" y="887" type="curve"/>
      <point x="499" y="887" type="line"/>
      <point x="488" y="820"/>
      <point x="431" y="775"/>
    </contour>
  </outline>
</glyph>
<glyph name="ebreve" format="2">
  <advance width="529"/>
  <unicode hex="0115"/>
  <outline>
    <contour>
      <point x="57" y="219" type="curve" smooth="yes"/>
      <point x="57" y="85"/>
      <point x="125" y="9"/>
      <point x="253" y="9" type="curve" smooth="yes"/>
      <point x="348" y="9"/>
      <point x="418" y="53"/>
      <point x="453" y="141" type="curve"/>
      <point x="471" y="141" type="line"/>
      <point x="436" y="43"/>
      <point x="358" y="-7"/>
      <point x="253" y="-7" type="curve" smooth="yes"/>
      <point x="110" y="-7"/>
      <point x="38" y="79"/>
      <point x="38" y="219" type="curve" smooth="yes"/>
      <point x="38" y="380"/>
      <point x="134" y="530"/>
      <point x="299" y="530" type="curve" smooth="yes"/>
      <point x="451" y="530"/>
      <point x="512" y="419"/>
      <point x="491" y="283" type="curve" smooth="yes"/>
      <point x="489" y="270" type="line"/>
      <point x="60" y="270" type="line"/>
      <point x="58" y="253"/>
      <point x="57" y="236"/>
    </contour>
    <contour>
      <point x="299" y="514" type="curve" smooth="yes"/>
      <point x="164" y="514"/>
      <point x="83" y="411"/>
      <point x="62" y="286" type="curve"/>
      <point x="474" y="286" type="line"/>
      <point x="492" y="414"/>
      <point x="441" y="514"/>
    </contour>
    <contour>
      <point x="309" y="612" type="curve" smooth="yes"/>
      <point x="244" y="612"/>
      <point x="208" y="656"/>
      <point x="207" y="720" type="curve"/>
      <point x="225" y="720" type="line"/>
      <point x="225" y="665"/>
      <point x="256" y="628"/>
      <point x="309" y="628" type="curve" smooth="yes"/>
      <point x="361" y="628"/>
      <point x="402" y="664"/>
      <point x="413" y="720" type="curve"/>
      <point x="431" y="720" type="line"/>
      <point x="419" y="653"/>
      <point x="368" y="612"/>
    </contour>
  </outline>
</glyph>
<glyph name="Edotaccent" format="2">
  <advance width="566"/>
  <unicode hex="0116"/>
  <outline>
    <contour>
      <point x="53" y="0" type="line"/>
      <point x="166" y="715" type="line"/>
      <point x="563" y="715" type="line"/>
      <point x="560" y="698" type="line"/>
      <point x="182" y="698" type="line"/>
      <point x="131" y="378" type="line"/>
      <point x="445" y="378" type="line"/>
      <point x="442" y="361" type="line"/>
      <point x="129" y="361" type="line"/>
      <point x="74" y="17" type="line"/>
      <point x="478" y="17" type="line"/>
      <point x="474" y="0" type="line"/>
    </contour>
    <contour>
      <point x="367" y="787" type="curve" smooth="yes"/>
      <point x="357" y="787"/>
      <point x="350" y="795"/>
      <point x="350" y="804" type="curve" smooth="yes"/>
      <point x="350" y="813"/>
      <point x="357" y="821"/>
      <point x="367" y="821" type="curve" smooth="yes"/>
      <point x="377" y="821"/>
      <point x="384" y="813"/>
      <point x="384" y="804" type="curve" smooth="yes"/>
      <point x="384" y="795"/>
      <point x="377" y="787"/>
    </contour>
  </outline>
</glyph>
<glyph name="Eogonek" format="2">
  <advance width="566"/>
  <unicode hex="0118"/>
  <outline>
    <contour>
      <point x="53" y="0" type="line"/>
      <point x="166" y="715" type="line"/>
      <point x="563" y="715" type="line"/>
      <point x="560" y="698" type="line"/>
      <point x="182" y="698" type="line"/>
      <point x="131" y="378" type="line"/>
      <point x="445" y="378" type="line"/>
      <point x="442" y="361" type="line"/>
      <point x="129" y="361" type="line"/>
      <point x="74" y="17" type="line"/>
      <point x="477" y="17" type="line"/>
      <point x="474" y="0" type="line"/>
      <point x="413" y="0" type="line"/>
      <point x="372" y="-22"/>
      <point x="306" y="-62"/>
      <point x="306" y="-115" type="curve" smooth="yes"/>
      <point x="306" y="-143"/>
      <point x="322" y="-166"/>
      <point x="365" y="-166" type="curve" smooth="yes"/>
      <point x="381" y="-166"/>
      <point x="393" y="-164"/>
      <point x="410" y="-159" type="curve"/>
      <point x="407" y="-175" type="line"/>
      <point x="395" y="-179"/>
      <point x="380" y="-182"/>
      <point x="364" y="-182" type="curve" smooth="yes"/>
      <point x="310" y="-182"/>
      <point x="288" y="-152"/>
      <point x="288" y="-115" type="curve" smooth="yes"/>
      <point x="288" y="-59"/>
      <point x="353" y="-18"/>
      <point x="384" y="0" type="curve"/>
    </contour>
  </outline>
</glyph>
<glyph name="eogonek" format="2">
  <advance width="529"/>
  <unicode hex="0119"/>
  <outline>
    <contour>
      <point x="293" y="-182" type="curve" smooth="yes"/>
      <point x="239" y="-182"/>
      <point x="217" y="-152"/>
      <point x="217" y="-115" type="curve" smooth="yes"/>
      <point x="217" y="-59"/>
      <point x="282" y="-19"/>
      <point x="320" y="2" type="curve"/>
      <point x="300" y="-2"/>
      <point x="275" y="-7"/>
      <point x="253" y="-7" type="curve" smooth="yes"/>
      <point x="110" y="-7"/>
      <point x="38" y="79"/>
      <point x="38" y="219" type="curve" smooth="yes"/>
      <point x="38" y="380"/>
      <point x="134" y="530"/>
      <point x="299" y="530" type="curve" smooth="yes"/>
      <point x="451" y="530"/>
      <point x="512" y="419"/>
      <point x="491" y="283" type="curve" smooth="yes"/>
      <point x="489" y="270" type="line"/>
      <point x="60" y="270" type="line"/>
      <point x="58" y="253"/>
      <point x="57" y="236"/>
      <point x="57" y="219" type="curve" smooth="yes"/>
      <point x="57" y="85"/>
      <point x="125" y="9"/>
      <point x="253" y="9" type="curve" smooth="yes"/>
      <point x="348" y="9"/>
      <point x="418" y="53"/>
      <point x="453" y="141" type="curve"/>
      <point x="471" y="141" type="line"/>
      <point x="454" y="94"/>
      <point x="428" y="60"/>
      <point x="393" y="34" type="curve" smooth="yes"/>
      <point x="317" y="-22"/>
      <point x="235" y="-53"/>
      <point x="235" y="-115" type="curve" smooth="yes"/>
      <point x="235" y="-143"/>
      <point x="251" y="-166"/>
      <point x="294" y="-166" type="curve" smooth="yes"/>
      <point x="310" y="-166"/>
      <point x="322" y="-164"/>
      <point x="339" y="-159" type="curve"/>
      <point x="336" y="-175" type="line"/>
      <point x="324" y="-179"/>
      <point x="309" y="-182"/>
    </contour>
    <contour>
      <point x="299" y="514" type="curve" smooth="yes"/>
      <point x="164" y="514"/>
      <point x="84" y="411"/>
      <point x="63" y="286" type="curve"/>
      <point x="474" y="286" type="line"/>
      <point x="492" y="414"/>
      <point x="441" y="514"/>
    </contour>
  </outline>
</glyph>
<glyph name="Ecaron" format="2">
  <advance width="566"/>
  <unicode hex="011A"/>
  <outline>
    <contour>
      <point x="53" y="0" type="line"/>
      <point x="166" y="715" type="line"/>
      <point x="563" y="715" type="line"/>
      <point x="560" y="698" type="line"/>
      <point x="182" y="698" type="line"/>
      <point x="131" y="378" type="line"/>
      <point x="445" y="378" type="line"/>
      <point x="442" y="361" type="line"/>
      <point x="129" y="361" type="line"/>
      <point x="74" y="17" type="line"/>
      <point x="478" y="17" type="line"/>
      <point x="474" y="0" type="line"/>
    </contour>
    <contour>
      <point x="503" y="888" type="line"/>
      <point x="376" y="771" type="line"/>
      <point x="356" y="771" type="line"/>
      <point x="259" y="888" type="line"/>
      <point x="278" y="888" type="line"/>
      <point x="367" y="786" type="line"/>
      <point x="482" y="888" type="line"/>
    </contour>
  </outline>
</glyph>
<glyph name="Gcircumflex" format="2">
  <advance width="744"/>
  <unicode hex="011C"/>
  <outline>
    <contour>
      <point x="383" y="-6" type="curve" smooth="yes"/>
      <point x="175" y="-6"/>
      <point x="58" y="132"/>
      <point x="58" y="317" type="curve" smooth="yes"/>
      <point x="58" y="540"/>
      <point x="208" y="721"/>
      <point x="430" y="721" type="curve" smooth="yes"/>
      <point x="561" y="721"/>
      <point x="680" y="659"/>
      <point x="700" y="526" type="curve"/>
      <point x="681" y="526" type="line"/>
      <point x="664" y="645"/>
      <point x="555" y="704"/>
      <point x="430" y="704" type="curve" smooth="yes"/>
      <point x="219" y="704"/>
      <point x="77" y="532"/>
      <point x="77" y="317" type="curve" smooth="yes"/>
      <point x="77" y="145"/>
      <point x="186" y="11"/>
      <point x="383" y="11" type="curve" smooth="yes"/>
      <point x="551" y="11"/>
      <point x="667" y="106"/>
      <point x="687" y="317" type="curve"/>
      <point x="449" y="317" type="line"/>
      <point x="452" y="334" type="line"/>
      <point x="708" y="334" type="line"/>
      <point x="690" y="92"/>
      <point x="559" y="-6"/>
    </contour>
    <contour>
      <point x="317" y="771" type="line"/>
      <point x="444" y="888" type="line"/>
      <point x="464" y="888" type="line"/>
      <point x="561" y="771" type="line"/>
      <point x="542" y="771" type="line"/>
      <point x="453" y="873" type="line"/>
      <point x="338" y="771" type="line"/>
    </contour>
  </outline>
</glyph>
<glyph name="Gcommaaccent" format="2">
  <advance width="744"/>
  <unicode hex="0122"/>
  <outline>
    <contour>
      <point x="383" y="-6" type="curve" smooth="yes"/>
      <point x="175" y="-6"/>
      <point x="58" y="132"/>
      <point x="58" y="317" type="curve" smooth="yes"/>
      <point x="58" y="540"/>
      <point x="208" y="721"/>
      <point x="430" y="721" type="curve" smooth="yes"/>
      <point x="561" y="721"/>
      <point x="680" y="659"/>
      <point x="700" y="526" type="curve"/>
      <point x="681" y="526" type="line"/>
      <point x="664" y="645"/>
      <point x="555" y="704"/>
      <point x="430" y="704" type="curve" smooth="yes"/>
      <point x="219" y="704"/>
      <point x="77" y="532"/>
      <point x="77" y="317" type="curve" smooth="yes"/>
      <point x="77" y="145"/>
      <point x="186" y="11"/>
      <point x="383" y="11" type="curve" smooth="yes"/>
      <point x="551" y="11"/>
      <point x="667" y="106"/>
      <point x="687" y="317" type="curve"/>
      <point x="449" y="317" type="line"/>
      <point x="452" y="334" type="line"/>
      <point x="708" y="334" type="line"/>
      <point x="690" y="92"/>
      <point x="559" y="-6"/>
    </contour>
    <contour>
      <point x="269" y="-186" type="line"/>
      <point x="255" y="-179" type="line"/>
      <point x="322" y="-46" type="line"/>
      <point x="341" y="-51" type="line"/>
    </contour>
  </outline>
</glyph>
<glyph name="Hcircumflex" format="2">
  <advance width="702"/>
  <unicode hex="0124"/>
  <outline>
    <contour>
      <point x="53" y="0" type="line"/>
      <point x="166" y="715" type="line"/>
      <point x="185" y="715" type="line"/>
      <point x="130" y="371" type="line"/>
      <point x="604" y="371" type="line"/>
      <point x="659" y="715" type="line"/>
      <point x="678" y="715" type="line"/>
      <point x="565" y="0" type="line"/>
      <point x="546" y="0" type="line"/>
      <point x="602" y="354" type="line"/>
      <point x="128" y="354" type="line"/>
      <point x="72" y="0" type="line"/>
    </contour>
    <contour>
      <point x="300" y="771" type="line"/>
      <point x="427" y="888" type="line"/>
      <point x="447" y="888" type="line"/>
      <point x="544" y="771" type="line"/>
      <point x="525" y="771" type="line"/>
      <point x="436" y="873" type="line"/>
      <point x="321" y="771" type="line"/>
    </contour>
  </outline>
</glyph>
<glyph name="hcircumflex" format="2">
  <advance width="559"/>
  <unicode hex="0125"/>
  <outline>
    <contour>
      <point x="38" y="0" type="line"/>
      <point x="160" y="773" type="line"/>
      <point x="178" y="773" type="line"/>
      <point x="119" y="400" type="line"/>
      <point x="154" y="469"/>
      <point x="228" y="530"/>
      <point x="327" y="530" type="curve" smooth="yes"/>
      <point x="443" y="530"/>
      <point x="513" y="455"/>
      <point x="490" y="310" type="curve" smooth="yes"/>
      <point x="441" y="0" type="line"/>
      <point x="423" y="0" type="line"/>
      <point x="472" y="310" type="line" smooth="yes"/>
      <point x="494" y="448"/>
      <point x="431" y="514"/>
      <point x="327" y="514" type="curve" smooth="yes"/>
      <point x="229" y="514"/>
      <point x="126" y="445"/>
      <point x="106" y="317" type="curve" smooth="yes"/>
      <point x="56" y="0" type="line"/>
    </contour>
    <contour>
      <point x="228" y="811" type="line"/>
      <point x="355" y="928" type="line"/>
      <point x="375" y="928" type="line"/>
      <point x="472" y="811" type="line"/>
      <point x="453" y="811" type="line"/>
      <point x="364" y="913" type="line"/>
      <point x="249" y="811" type="line"/>
    </contour>
  </outline>
</glyph>
<glyph name="Hbar" format="2">
  <advance width="702"/>
  <unicode hex="0126"/>
  <outline>
    <contour>
      <point x="46" y="531" type="line"/>
      <point x="49" y="547" type="line"/>
      <point x="139" y="547" type="line"/>
      <point x="166" y="715" type="line"/>
      <point x="185" y="715" type="line"/>
      <point x="158" y="547" type="line"/>
      <point x="632" y="547" type="line"/>
      <point x="659" y="715" type="line"/>
      <point x="678" y="715" type="line"/>
      <point x="651" y="547" type="line"/>
      <point x="743" y="547" type="line"/>
      <point x="740" y="531" type="line"/>
      <point x="649" y="531" type="line"/>
      <point x="565" y="0" type="line"/>
      <point x="546" y="0" type="line"/>
      <point x="602" y="354" type="line"/>
      <point x="128" y="354" type="line"/>
      <point x="72" y="0" type="line"/>
      <point x="53" y="0" type="line"/>
      <point x="137" y="531" type="line"/>
    </contour>
    <contour>
      <point x="130" y="371" type="line"/>
      <point x="604" y="371" type="line"/>
      <point x="629" y="531" type="line"/>
      <point x="155" y="531" type="line"/>
    </contour>
  </outline>
</glyph>
<glyph name="hbar" format="2">
  <advance width="559"/>
  <unicode hex="0127"/>
  <outline>
    <contour>
      <point x="56" y="633" type="line"/>
      <point x="59" y="649" type="line"/>
      <point x="140" y="649" type="line"/>
      <point x="160" y="773" type="line"/>
      <point x="178" y="773" type="line"/>
      <point x="158" y="649" type="line"/>
      <point x="354" y="649" type="line"/>
      <point x="351" y="633" type="line"/>
      <point x="156" y="633" type="line"/>
      <point x="119" y="400" type="line"/>
      <point x="154" y="469"/>
      <point x="228" y="530"/>
      <point x="327" y="530" type="curve" smooth="yes"/>
      <point x="443" y="530"/>
      <point x="513" y="455"/>
      <point x="490" y="310" type="curve" smooth="yes"/>
      <point x="441" y="0" type="line"/>
      <point x="423" y="0" type="line"/>
      <point x="472" y="310" type="line" smooth="yes"/>
      <point x="494" y="448"/>
      <point x="431" y="514"/>
      <point x="327" y="514" type="curve" smooth="yes"/>
      <point x="229" y="514"/>
      <point x="126" y="445"/>
      <point x="106" y="317" type="curve" smooth="yes"/>
      <point x="56" y="0" type="line"/>
      <point x="38" y="0" type="line"/>
      <point x="138" y="633" type="line"/>
    </contour>
  </outline>
</glyph>
<glyph name="Itilde" format="2">
  <advance width="219"/>
  <unicode hex="0128"/>
  <outline>
    <contour>
      <point x="58" y="0" type="line"/>
      <point x="171" y="715" type="line"/>
      <point x="190" y="715" type="line"/>
      <point x="77" y="0" type="line"/>
    </contour>
    <contour>
      <point x="256" y="774" type="curve" smooth="yes"/>
      <point x="205" y="774"/>
      <point x="162" y="838"/>
      <point x="120" y="838" type="curve" smooth="yes"/>
      <point x="95" y="838"/>
      <point x="70" y="818"/>
      <point x="61" y="775" type="curve"/>
      <point x="44" y="775" type="line"/>
      <point x="55" y="829"/>
      <point x="85" y="854"/>
      <point x="121" y="854" type="curve" smooth="yes"/>
      <point x="170" y="854"/>
      <point x="214" y="790"/>
      <point x="257" y="790" type="curve" smooth="yes"/>
      <point x="281" y="790"/>
      <point x="306" y="810"/>
      <point x="315" y="853" type="curve"/>
      <point x="332" y="853" type="line"/>
      <point x="321" y="800"/>
      <point x="291" y="774"/>
    </contour>
  </outline>
</glyph>
<glyph name="itilde" format="2">
  <advance width="182"/>
  <unicode hex="0129"/>
  <outline>
    <contour>
      <point x="40" y="0" type="line"/>
      <point x="122" y="523" type="line"/>
      <point x="140" y="523" type="line"/>
      <point x="58" y="0" type="line"/>
    </contour>
    <contour>
      <point x="213" y="613" type="curve" smooth="yes"/>
      <point x="162" y="613"/>
      <point x="119" y="677"/>
      <point x="77" y="677" type="curve" smooth="yes"/>
      <point x="52" y="677"/>
      <point x="27" y="657"/>
      <point x="18" y="614" type="curve"/>
      <point x="1" y="614" type="line"/>
      <point x="12" y="668"/>
      <point x="42" y="693"/>
      <point x="78" y="693" type="curve" smooth="yes"/>
      <point x="127" y="693"/>
      <point x="171" y="629"/>
      <point x="214" y="629" type="curve" smooth="yes"/>
      <point x="238" y="629"/>
      <point x="263" y="649"/>
      <point x="272" y="692" type="curve"/>
      <point x="289" y="692" type="line"/>
      <point x="278" y="639"/>
      <point x="248" y="613"/>
    </contour>
  </outline>
</glyph>
<glyph name="Imacron" format="2">
  <advance width="219"/>
  <unicode hex="012A"/>
  <outline>
    <contour>
      <point x="58" y="0" type="line"/>
      <point x="171" y="715" type="line"/>
      <point x="190" y="715" type="line"/>
      <point x="77" y="0" type="line"/>
    </contour>
    <contour>
      <point x="81" y="797" type="line"/>
      <point x="84" y="814" type="line"/>
      <point x="310" y="814" type="line"/>
      <point x="307" y="797" type="line"/>
    </contour>
  </outline>
</glyph>
<glyph name="imacron" format="2">
  <advance width="182"/>
  <unicode hex="012B"/>
  <outline>
    <contour>
      <point x="76" y="646" type="line"/>
      <point x="79" y="663" type="line"/>
      <point x="229" y="663" type="line"/>
      <point x="226" y="646" type="line"/>
    </contour>
    <contour>
      <point x="40" y="0" type="line"/>
      <point x="122" y="523" type="line"/>
      <point x="140" y="523" type="line"/>
      <point x="58" y="0" type="line"/>
    </contour>
  </outline>
</glyph>
<glyph name="Ibreve" format="2">
  <advance width="219"/>
  <unicode hex="012C"/>
  <outline>
    <contour>
      <point x="58" y="0" type="line"/>
      <point x="171" y="715" type="line"/>
      <point x="190" y="715" type="line"/>
      <point x="77" y="0" type="line"/>
    </contour>
    <contour>
      <point x="187" y="775" type="curve" smooth="yes"/>
      <point x="120" y="775"/>
      <point x="78" y="822"/>
      <point x="77" y="887" type="curve"/>
      <point x="95" y="887" type="line"/>
      <point x="96" y="831"/>
      <point x="132" y="791"/>
      <point x="187" y="791" type="curve" smooth="yes"/>
      <point x="241" y="791"/>
      <point x="288" y="830"/>
      <point x="299" y="887" type="curve"/>
      <point x="317" y="887" type="line"/>
      <point x="306" y="820"/>
      <point x="249" y="775"/>
    </contour>
  </outline>
</glyph>
<glyph name="ibreve" format="2">
  <advance width="182"/>
  <unicode hex="012D"/>
  <outline>
    <contour>
      <point x="40" y="0" type="line"/>
      <point x="122" y="523" type="line"/>
      <point x="140" y="523" type="line"/>
      <point x="58" y="0" type="line"/>
    </contour>
    <contour>
      <point x="144" y="612" type="curve" smooth="yes"/>
      <point x="79" y="612"/>
      <point x="43" y="656"/>
      <point x="42" y="720" type="curve"/>
      <point x="60" y="720" type="line"/>
      <point x="60" y="665"/>
      <point x="91" y="628"/>
      <point x="144" y="628" type="curve" smooth="yes"/>
      <point x="196" y="628"/>
      <point x="237" y="664"/>
      <point x="248" y="720" type="curve"/>
      <point x="266" y="720" type="line"/>
      <point x="254" y="653"/>
      <point x="203" y="612"/>
    </contour>
  </outline>
</glyph>
<glyph name="Iogonek" format="2">
  <advance width="219"/>
  <unicode hex="012E"/>
  <outline>
    <contour>
      <point x="50" y="-182" type="curve" smooth="yes"/>
      <point x="-4" y="-182"/>
      <point x="-26" y="-152"/>
      <point x="-26" y="-115" type="curve" smooth="yes"/>
      <point x="-26" y="-60"/>
      <point x="31" y="-17"/>
      <point x="59" y="5" type="curve"/>
      <point x="171" y="715" type="line"/>
      <point x="190" y="715" type="line"/>
      <point x="77" y="0" type="line"/>
      <point x="43" y="-26"/>
      <point x="-8" y="-65"/>
      <point x="-8" y="-115" type="curve" smooth="yes"/>
      <point x="-8" y="-143"/>
      <point x="8" y="-166"/>
      <point x="51" y="-166" type="curve" smooth="yes"/>
      <point x="67" y="-166"/>
      <point x="79" y="-164"/>
      <point x="96" y="-159" type="curve"/>
      <point x="93" y="-175" type="line"/>
      <point x="81" y="-179"/>
      <point x="66" y="-182"/>
    </contour>
  </outline>
</glyph>
<glyph name="iogonek" format="2">
  <advance width="182"/>
  <unicode hex="012F"/>
  <outline>
    <contour>
      <point x="41" y="4" type="curve"/>
      <point x="122" y="523" type="line"/>
      <point x="140" y="523" type="line"/>
      <point x="58" y="0" type="line"/>
      <point x="24" y="-26"/>
      <point x="-23" y="-65"/>
      <point x="-23" y="-115" type="curve" smooth="yes"/>
      <point x="-23" y="-143"/>
      <point x="-7" y="-166"/>
      <point x="36" y="-166" type="curve" smooth="yes"/>
      <point x="52" y="-166"/>
      <point x="64" y="-164"/>
      <point x="81" y="-159" type="curve"/>
      <point x="78" y="-175" type="line"/>
      <point x="66" y="-179"/>
      <point x="51" y="-182"/>
      <point x="35" y="-182" type="curve" smooth="yes"/>
      <point x="-19" y="-182"/>
      <point x="-41" y="-152"/>
      <point x="-41" y="-115" type="curve" smooth="yes"/>
      <point x="-41" y="-60"/>
      <point x="13" y="-18"/>
    </contour>
    <contour>
      <point x="151" y="639" type="curve" smooth="yes"/>
      <point x="141" y="639"/>
      <point x="134" y="647"/>
      <point x="134" y="656" type="curve" smooth="yes"/>
      <point x="134" y="665"/>
      <point x="141" y="673"/>
      <point x="151" y="673" type="curve" smooth="yes"/>
      <point x="161" y="673"/>
      <point x="168" y="665"/>
      <point x="168" y="656" type="curve" smooth="yes"/>
      <point x="168" y="647"/>
      <point x="161" y="639"/>
    </contour>
  </outline>
</glyph>
<glyph name="Idotaccent" format="2">
  <advance width="219"/>
  <unicode hex="0130"/>
  <outline>
    <contour>
      <point x="58" y="0" type="line"/>
      <point x="171" y="715" type="line"/>
      <point x="190" y="715" type="line"/>
      <point x="77" y="0" type="line"/>
    </contour>
    <contour>
      <point x="192" y="787" type="curve" smooth="yes"/>
      <point x="182" y="787"/>
      <point x="175" y="795"/>
      <point x="175" y="804" type="curve" smooth="yes"/>
      <point x="175" y="813"/>
      <point x="182" y="821"/>
      <point x="192" y="821" type="curve" smooth="yes"/>
      <point x="202" y="821"/>
      <point x="209" y="813"/>
      <point x="209" y="804" type="curve" smooth="yes"/>
      <point x="209" y="795"/>
      <point x="202" y="787"/>
    </contour>
  </outline>
</glyph>
<glyph name="dotlessi" format="2">
  <advance width="182"/>
  <unicode hex="0131"/>
  <outline>
    <contour>
      <point x="40" y="0" type="line"/>
      <point x="122" y="523" type="line"/>
      <point x="140" y="523" type="line"/>
      <point x="58" y="0" type="line"/>
    </contour>
  </outline>
</glyph>
<glyph name="IJ" format="2">
  <advance width="567"/>
  <unicode hex="0132"/>
  <outline>
    <contour>
      <point x="58" y="0" type="line"/>
      <point x="171" y="715" type="line"/>
      <point x="190" y="715" type="line"/>
      <point x="77" y="0" type="line"/>
    </contour>
    <contour>
      <point x="303" y="-4" type="curve" smooth="yes"/>
      <point x="246" y="-4"/>
      <point x="209" y="11"/>
      <point x="186" y="25" type="curve"/>
      <point x="189" y="43" type="line"/>
      <point x="219" y="25"/>
      <point x="254" y="13"/>
      <point x="303" y="13" type="curve" smooth="yes"/>
      <point x="382" y="13"/>
      <point x="435" y="53"/>
      <point x="451" y="153" type="curve" smooth="yes"/>
      <point x="540" y="715" type="line"/>
      <point x="559" y="715" type="line"/>
      <point x="470" y="152" type="line" smooth="yes"/>
      <point x="452" y="38"/>
      <point x="390" y="-4"/>
    </contour>
  </outline>
</glyph>
<glyph name="ij" format="2">
  <advance width="364"/>
  <unicode hex="0133"/>
  <outline>
    <contour>
      <point x="151" y="639" type="curve" smooth="yes"/>
      <point x="141" y="639"/>
      <point x="134" y="647"/>
      <point x="134" y="656" type="curve" smooth="yes"/>
      <point x="134" y="665"/>
      <point x="141" y="673"/>
      <point x="151" y="673" type="curve" smooth="yes"/>
      <point x="161" y="673"/>
      <point x="168" y="665"/>
      <point x="168" y="656" type="curve" smooth="yes"/>
      <point x="168" y="647"/>
      <point x="161" y="639"/>
    </contour>
    <contour>
      <point x="40" y="0" type="line"/>
      <point x="122" y="523" type="line"/>
      <point x="140" y="523" type="line"/>
      <point x="58" y="0" type="line"/>
    </contour>
    <contour>
      <point x="116" y="-184" type="curve"/>
      <point x="119" y="-168" type="line"/>
      <point x="177" y="-165"/>
      <point x="199" y="-138"/>
      <point x="209" y="-76" type="curve" smooth="yes"/>
      <point x="304" y="523" type="line"/>
      <point x="322" y="523" type="line"/>
      <point x="227" y="-76" type="line" smooth="yes"/>
      <point x="214" y="-156"/>
      <point x="182" y="-181"/>
    </contour>
    <contour>
      <point x="333" y="639" type="curve" smooth="yes"/>
      <point x="323" y="639"/>
      <point x="316" y="647"/>
      <point x="316" y="656" type="curve" smooth="yes"/>
      <point x="316" y="665"/>
      <point x="323" y="673"/>
      <point x="333" y="673" type="curve" smooth="yes"/>
      <point x="343" y="673"/>
      <point x="350" y="665"/>
      <point x="350" y="656" type="curve" smooth="yes"/>
      <point x="350" y="647"/>
      <point x="343" y="639"/>
    </contour>
  </outline>
</glyph>
<glyph name="jcircumflex" format="2">
  <advance width="182"/>
  <unicode hex="0135"/>
  <outline>
    <contour>
      <point x="-66" y="-184" type="curve"/>
      <point x="-63" y="-168" type="line"/>
      <point x="-5" y="-165"/>
      <point x="17" y="-138"/>
      <point x="27" y="-76" type="curve" smooth="yes"/>
      <point x="122" y="523" type="line"/>
      <point x="140" y="523" type="line"/>
      <point x="45" y="-76" type="line" smooth="yes"/>
      <point x="32" y="-156"/>
      <point x="0" y="-181"/>
    </contour>
    <contour>
      <point x="17" y="596" type="line"/>
      <point x="144" y="720" type="line"/>
      <point x="163" y="720" type="line"/>
      <point x="259" y="596" type="line"/>
      <point x="240" y="596" type="line"/>
      <point x="152" y="705" type="line"/>
      <point x="38" y="596" type="line"/>
    </contour>
  </outline>
</glyph>
<glyph name="Kcommaaccent" format="2">
  <advance width="579"/>
  <unicode hex="0136"/>
  <outline>
    <contour>
      <point x="503" y="0" type="line"/>
      <point x="479" y="0" type="line"/>
      <point x="140" y="368" type="line"/>
      <point x="570" y="715" type="line"/>
      <point x="596" y="715" type="line"/>
      <point x="165" y="367" type="line"/>
    </contour>
    <contour>
      <point x="53" y="0" type="line"/>
      <point x="166" y="715" type="line"/>
      <point x="185" y="715" type="line"/>
      <point x="72" y="0" type="line"/>
    </contour>
    <contour>
      <point x="205" y="-186" type="line"/>
      <point x="191" y="-179" type="line"/>
      <point x="258" y="-46" type="line"/>
      <point x="277" y="-51" type="line"/>
    </contour>
  </outline>
</glyph>
<glyph name="kcommaaccent" format="2">
  <advance width="452"/>
  <unicode hex="0137"/>
  <outline>
    <contour>
      <point x="368" y="0" type="line"/>
      <point x="106" y="281" type="line"/>
      <point x="429" y="523" type="line"/>
      <point x="455" y="523" type="line"/>
      <point x="131" y="280" type="line"/>
      <point x="391" y="0" type="line"/>
    </contour>
    <contour>
      <point x="38" y="0" type="line"/>
      <point x="160" y="773" type="line"/>
      <point x="178" y="773" type="line"/>
      <point x="56" y="0" type="line"/>
    </contour>
    <contour>
      <point x="130" y="-186" type="line"/>
      <point x="116" y="-179" type="line"/>
      <point x="183" y="-46" type="line"/>
      <point x="202" y="-51" type="line"/>
    </contour>
  </outline>
</glyph>
<glyph name="lacute" format="2">
  <advance width="182"/>
  <unicode hex="013A"/>
  <outline>
    <contour>
      <point x="40" y="0" type="line"/>
      <point x="162" y="773" type="line"/>
      <point x="180" y="773" type="line"/>
      <point x="58" y="0" type="line"/>
    </contour>
    <contour>
      <point x="169" y="811" type="line"/>
      <point x="250" y="928" type="line"/>
      <point x="272" y="928" type="line"/>
      <point x="188" y="811" type="line"/>
    </contour>
  </outline>
</glyph>
<glyph name="Lcommaaccent" format="2">
  <advance width="525"/>
  <unicode hex="013B"/>
  <outline>
    <contour>
      <point x="53" y="0" type="line"/>
      <point x="166" y="715" type="line"/>
      <point x="185" y="715" type="line"/>
      <point x="74" y="17" type="line"/>
      <point x="446" y="17" type="line"/>
      <point x="443" y="0" type="line"/>
    </contour>
    <contour>
      <point x="177" y="-186" type="line"/>
      <point x="163" y="-179" type="line"/>
      <point x="230" y="-46" type="line"/>
      <point x="249" y="-51" type="line"/>
    </contour>
  </outline>
</glyph>
<glyph name="lcommaaccent" format="2">
  <advance width="182"/>
  <unicode hex="013C"/>
  <outline>
    <contour>
      <point x="40" y="0" type="line"/>
      <point x="162" y="773" type="line"/>
      <point x="180" y="773" type="line"/>
      <point x="58" y="0" type="line"/>
    </contour>
    <contour>
      <point x="-18" y="-186" type="line"/>
      <point x="-32" y="-179" type="line"/>
      <point x="35" y="-46" type="line"/>
      <point x="54" y="-51" type="line"/>
    </contour>
  </outline>
</glyph>
<glyph name="lcaron" format="2">
  <advance width="182"/>
  <unicode hex="013E"/>
  <outline>
    <contour>
      <point x="218" y="626" type="line"/>
      <point x="257" y="773" type="line"/>
      <point x="276" y="773" type="line"/>
      <point x="235" y="626" type="line"/>
    </contour>
    <contour>
      <point x="40" y="0" type="line"/>
      <point x="162" y="773" type="line"/>
      <point x="180" y="773" type="line"/>
      <point x="58" y="0" type="line"/>
    </contour>
  </outline>
</glyph>
<glyph name="Ldot" format="2">
  <advance width="525"/>
  <unicode hex="013F"/>
  <outline>
    <contour>
      <point x="53" y="0" type="line"/>
      <point x="166" y="715" type="line"/>
      <point x="185" y="715" type="line"/>
      <point x="74" y="17" type="line"/>
      <point x="446" y="17" type="line"/>
      <point x="443" y="0" type="line"/>
    </contour>
    <contour>
      <point x="438" y="350" type="curve" smooth="yes"/>
      <point x="428" y="350"/>
      <point x="421" y="358"/>
      <point x="421" y="367" type="curve" smooth="yes"/>
      <point x="421" y="376"/>
      <point x="428" y="384"/>
      <point x="438" y="384" type="curve" smooth="yes"/>
      <point x="448" y="384"/>
      <point x="455" y="376"/>
      <point x="455" y="367" type="curve" smooth="yes"/>
      <point x="455" y="358"/>
      <point x="448" y="350"/>
    </contour>
  </outline>
</glyph>
<glyph name="ldot" format="2">
  <advance width="222"/>
  <unicode hex="0140"/>
  <outline>
    <contour>
      <point x="40" y="0" type="line"/>
      <point x="162" y="773" type="line"/>
      <point x="180" y="773" type="line"/>
      <point x="58" y="0" type="line"/>
    </contour>
    <contour>
      <point x="219" y="363" type="curve" smooth="yes"/>
      <point x="209" y="363"/>
      <point x="202" y="371"/>
      <point x="202" y="380" type="curve" smooth="yes"/>
      <point x="202" y="389"/>
      <point x="209" y="397"/>
      <point x="219" y="397" type="curve" smooth="yes"/>
      <point x="229" y="397"/>
      <point x="236" y="389"/>
      <point x="236" y="380" type="curve" smooth="yes"/>
      <point x="236" y="371"/>
      <point x="229" y="363"/>
    </contour>
  </outline>
</glyph>
<glyph name="Lslash" format="2">
  <advance width="534"/>
  <unicode hex="0141"/>
  <outline>
    <contour>
      <point x="25" y="268" type="line"/>
      <point x="28" y="286" type="line"/>
      <point x="112" y="315" type="line"/>
      <point x="175" y="715" type="line"/>
      <point x="194" y="715" type="line"/>
      <point x="131" y="322" type="line"/>
      <point x="396" y="416" type="line"/>
      <point x="394" y="398" type="line"/>
      <point x="128" y="304" type="line"/>
      <point x="83" y="17" type="line"/>
      <point x="454" y="17" type="line"/>
      <point x="452" y="0" type="line"/>
      <point x="62" y="0" type="line"/>
      <point x="109" y="297" type="line"/>
    </contour>
  </outline>
</glyph>
<glyph name="lslash" format="2">
  <advance width="206"/>
  <unicode hex="0142"/>
  <outline>
    <contour>
      <point x="30" y="355" type="line"/>
      <point x="33" y="375" type="line"/>
      <point x="120" y="431" type="line"/>
      <point x="174" y="773" type="line"/>
      <point x="192" y="773" type="line"/>
      <point x="140" y="444" type="line"/>
      <point x="231" y="503" type="line"/>
      <point x="228" y="483" type="line"/>
      <point x="137" y="424" type="line"/>
      <point x="70" y="0" type="line"/>
      <point x="52" y="0" type="line"/>
      <point x="117" y="411" type="line"/>
    </contour>
  </outline>
</glyph>
<glyph name="Ncaron" format="2">
  <advance width="701"/>
  <unicode hex="0147"/>
  <outline>
    <contour>
      <point x="53" y="0" type="line"/>
      <point x="166" y="715" type="line"/>
      <point x="195" y="715" type="line"/>
      <point x="548" y="22" type="line"/>
      <point x="658" y="715" type="line"/>
      <point x="677" y="715" type="line"/>
      <point x="564" y="0" type="line"/>
      <point x="539" y="0" type="line"/>
      <point x="182" y="700" type="line"/>
      <point x="72" y="0" type="line"/>
    </contour>
    <contour>
      <point x="579" y="888" type="line"/>
      <point x="452" y="771" type="line"/>
      <point x="432" y="771" type="line"/>
      <point x="335" y="888" type="line"/>
      <point x="354" y="888" type="line"/>
      <point x="443" y="786" type="line"/>
      <point x="558" y="888" type="line"/>
    </contour>
  </outline>
</glyph>
